<?xml version="1.0" encoding="UTF-8" standalone="no"?>
<!DOCTYPE svg PUBLIC "-//W3C//DTD SVG 1.1//EN"
 "http://www.w3.org/Graphics/SVG/1.1/DTD/svg11.dtd">
<!-- Generated by graphviz version 12.1.0 (20240811.2233)
 -->
<!-- Title: dependency&#45;cruiser output Pages: 1 -->
<svg width="344pt" height="280pt"
 viewBox="0.00 0.00 344.25 280.00" xmlns="http://www.w3.org/2000/svg" xmlns:xlink="http://www.w3.org/1999/xlink">
<g id="graph0" class="graph" transform="scale(1 1) rotate(0) translate(4 276)">
<title>dependency&#45;cruiser output</title>
<polygon fill="white" stroke="none" points="-4,4 -4,-276 340.25,-276 340.25,4 -4,4"/>
<g id="clust1" class="cluster">
<title>cluster_..</title>
<path fill="#ffffff" stroke="black" stroke-width="2" d="M20,-8C20,-8 222.25,-8 222.25,-8 228.25,-8 234.25,-14 234.25,-20 234.25,-20 234.25,-252 234.25,-252 234.25,-258 228.25,-264 222.25,-264 222.25,-264 20,-264 20,-264 14,-264 8,-258 8,-252 8,-252 8,-20 8,-20 8,-14 14,-8 20,-8"/>
<text text-anchor="middle" x="121.12" y="-251.45" font-family="Helvetica,sans-Serif" font-weight="bold" font-size="9.00">..</text>
</g>
<g id="clust2" class="cluster">
<title>cluster_../..</title>
<path fill="#ffffff" stroke="black" stroke-width="2" d="M28,-16C28,-16 214.25,-16 214.25,-16 220.25,-16 226.25,-22 226.25,-28 226.25,-28 226.25,-226 226.25,-226 226.25,-232 220.25,-238 214.25,-238 214.25,-238 28,-238 28,-238 22,-238 16,-232 16,-226 16,-226 16,-28 16,-28 16,-22 22,-16 28,-16"/>
<text text-anchor="middle" x="121.12" y="-225.45" font-family="Helvetica,sans-Serif" font-weight="bold" font-size="9.00">..</text>
</g>
<g id="clust3" class="cluster">
<title>cluster_../../SML</title>
<path fill="#ffffff" stroke="black" stroke-width="2" d="M36,-24C36,-24 206.25,-24 206.25,-24 212.25,-24 218.25,-30 218.25,-36 218.25,-36 218.25,-200 218.25,-200 218.25,-206 212.25,-212 206.25,-212 206.25,-212 36,-212 36,-212 30,-212 24,-206 24,-200 24,-200 24,-36 24,-36 24,-30 30,-24 36,-24"/>
<text text-anchor="middle" x="121.12" y="-199.45" font-family="Helvetica,sans-Serif" font-weight="bold" font-size="9.00">SML</text>
</g>
<g id="clust4" class="cluster">
<title>cluster_../../SML/apps</title>
<path fill="#ffffff" stroke="black" stroke-width="2" d="M44,-32C44,-32 198.25,-32 198.25,-32 204.25,-32 210.25,-38 210.25,-44 210.25,-44 210.25,-174 210.25,-174 210.25,-180 204.25,-186 198.25,-186 198.25,-186 44,-186 44,-186 38,-186 32,-180 32,-174 32,-174 32,-44 32,-44 32,-38 38,-32 44,-32"/>
<text text-anchor="middle" x="121.12" y="-173.45" font-family="Helvetica,sans-Serif" font-weight="bold" font-size="9.00">apps</text>
</g>
<g id="clust5" class="cluster">
<title>cluster_../../SML/apps/web</title>
<path fill="#ffffff" stroke="black" stroke-width="2" d="M52,-40C52,-40 190.25,-40 190.25,-40 196.25,-40 202.25,-46 202.25,-52 202.25,-52 202.25,-148 202.25,-148 202.25,-154 196.25,-160 190.25,-160 190.25,-160 52,-160 52,-160 46,-160 40,-154 40,-148 40,-148 40,-52 40,-52 40,-46 46,-40 52,-40"/>
<text text-anchor="middle" x="121.12" y="-147.45" font-family="Helvetica,sans-Serif" font-weight="bold" font-size="9.00">web</text>
</g>
<g id="clust6" class="cluster">
<title>cluster_../../SML/apps/web/components</title>
<path fill="#ffffff" stroke="black" stroke-width="2" d="M60,-48C60,-48 182.25,-48 182.25,-48 188.25,-48 194.25,-54 194.25,-60 194.25,-60 194.25,-122 194.25,-122 194.25,-128 188.25,-134 182.25,-134 182.25,-134 60,-134 60,-134 54,-134 48,-128 48,-122 48,-122 48,-60 48,-60 48,-54 54,-48 60,-48"/>
<text text-anchor="middle" x="121.12" y="-121.45" font-family="Helvetica,sans-Serif" font-weight="bold" font-size="9.00">components</text>
</g>
<g id="clust7" class="cluster">
<title>cluster_../../SML/apps/web/components/hoc</title>
<path fill="#ffffff" stroke="black" stroke-width="2" d="M68,-56C68,-56 174.25,-56 174.25,-56 180.25,-56 186.25,-62 186.25,-68 186.25,-68 186.25,-96 186.25,-96 186.25,-102 180.25,-108 174.25,-108 174.25,-108 68,-108 68,-108 62,-108 56,-102 56,-96 56,-96 56,-68 56,-68 56,-62 62,-56 68,-56"/>
<text text-anchor="middle" x="121.12" y="-95.45" font-family="Helvetica,sans-Serif" font-weight="bold" font-size="9.00">hoc</text>
</g>
<g id="clust8" class="cluster">
<title>cluster_@</title>
<path fill="#ffffff" stroke="black" stroke-width="2" d="M254.25,-87C254.25,-87 316.25,-87 316.25,-87 322.25,-87 328.25,-93 328.25,-99 328.25,-99 328.25,-161 328.25,-161 328.25,-167 322.25,-173 316.25,-173 316.25,-173 254.25,-173 254.25,-173 248.25,-173 242.25,-167 242.25,-161 242.25,-161 242.25,-99 242.25,-99 242.25,-93 248.25,-87 254.25,-87"/>
<text text-anchor="middle" x="285.25" y="-160.45" font-family="Helvetica,sans-Serif" font-weight="bold" font-size="9.00">@</text>
</g>
<g id="clust9" class="cluster">
<title>cluster_@/lib</title>
<path fill="#ffffff" stroke="black" stroke-width="2" d="M262.25,-95C262.25,-95 308.25,-95 308.25,-95 314.25,-95 320.25,-101 320.25,-107 320.25,-107 320.25,-135 320.25,-135 320.25,-141 314.25,-147 308.25,-147 308.25,-147 262.25,-147 262.25,-147 256.25,-147 250.25,-141 250.25,-135 250.25,-135 250.25,-107 250.25,-107 250.25,-101 256.25,-95 262.25,-95"/>
<text text-anchor="middle" x="285.25" y="-134.45" font-family="Helvetica,sans-Serif" font-weight="bold" font-size="9.00">lib</text>
</g>
<g id="clust10" class="cluster">
<title>cluster_node_modules</title>
<path fill="#ffffff" stroke="black" stroke-width="2" d="M258.25,-27C258.25,-27 313.25,-27 313.25,-27 319.25,-27 325.25,-33 325.25,-39 325.25,-39 325.25,-67 325.25,-67 325.25,-73 319.25,-79 313.25,-79 313.25,-79 258.25,-79 258.25,-79 252.25,-79 246.25,-73 246.25,-67 246.25,-67 246.25,-39 246.25,-39 246.25,-33 252.25,-27 258.25,-27"/>
<text text-anchor="middle" x="285.75" y="-66.45" font-family="Helvetica,sans-Serif" font-weight="bold" font-size="9.00">node_modules</text>
</g>
<!-- ../../SML/apps/web/components/hoc/with&#45;horizontal&#45;scroll.tsx -->
<g id="node1" class="node">
<title>../../SML/apps/web/components/hoc/with&#45;horizontal&#45;scroll.tsx</title>
<g id="a_node1"><a xlink:href="../../SML/apps/web/components/hoc/with-horizontal-scroll.tsx" xlink:title="with&#45;horizontal&#45;scroll.tsx">
<path fill="#bbfeff" stroke="black" d="M172.33,-81.88C172.33,-81.88 69.92,-81.88 69.92,-81.88 66.96,-81.88 64,-78.92 64,-75.96 64,-75.96 64,-70.04 64,-70.04 64,-67.08 66.96,-64.12 69.92,-64.12 69.92,-64.12 172.33,-64.12 172.33,-64.12 175.29,-64.12 178.25,-67.08 178.25,-70.04 178.25,-70.04 178.25,-75.96 178.25,-75.96 178.25,-78.92 175.29,-81.88 172.33,-81.88"/>
<text text-anchor="start" x="72" y="-69.33" font-family="Helvetica,sans-Serif" font-size="9.00">with&#45;horizontal&#45;scroll.tsx</text>
</a>
</g>
</g>
<!-- @/lib/utils -->
<g id="node2" class="node">
<title>@/lib/utils</title>
<g id="a_node2"><a xlink:title="utils">
<path fill="#ffffcc" stroke="black" d="M306.33,-120.88C306.33,-120.88 264.17,-120.88 264.17,-120.88 261.21,-120.88 258.25,-117.92 258.25,-114.96 258.25,-114.96 258.25,-109.04 258.25,-109.04 258.25,-106.08 261.21,-103.12 264.17,-103.12 264.17,-103.12 306.33,-103.12 306.33,-103.12 309.29,-103.12 312.25,-106.08 312.25,-109.04 312.25,-109.04 312.25,-114.96 312.25,-114.96 312.25,-117.92 309.29,-120.88 306.33,-120.88"/>
<text text-anchor="start" x="277" y="-108.33" font-family="Helvetica,sans-Serif" font-size="9.00">utils</text>
</a>
</g>
</g>
<!-- ../../SML/apps/web/components/hoc/with&#45;horizontal&#45;scroll.tsx&#45;&gt;@/lib/utils -->
<g id="edge1" class="edge">
<title>../../SML/apps/web/components/hoc/with&#45;horizontal&#45;scroll.tsx&#45;&gt;@/lib/utils</title>
<path fill="none" stroke="#000000" stroke-width="2" stroke-opacity="0.200000" d="M160.96,-82.34C187.77,-88.79 223.14,-97.3 249.12,-103.55"/>
<polygon fill="#000000" fill-opacity="0.200000" stroke="#000000" stroke-width="2" stroke-opacity="0.200000" points="248.62,-105.59 254.94,-104.95 249.6,-101.5 248.62,-105.59"/>
</g>
<!-- node_modules/.pnpm -->
<g id="node3" class="node">
<title>node_modules/.pnpm</title>
<g id="a_node3"><a xlink:href="https://www.npmjs.com/package/.pnpm" xlink:title=".pnpm">
<polygon fill="#c40b0a" fill-opacity="0.101961" stroke="black" points="312.25,-52.88 260.22,-52.88 258.25,-50.9 258.25,-35.12 310.28,-35.12 312.25,-37.1 312.25,-52.88"/>
<polyline fill="none" stroke="black" points="310.28,-50.9 258.25,-50.9"/>
<polyline fill="none" stroke="black" points="310.28,-50.9 310.28,-35.12"/>
<polyline fill="none" stroke="black" points="310.28,-50.9 312.25,-52.88"/>
<text text-anchor="start" x="272.5" y="-40.33" font-family="Helvetica,sans-Serif" font-size="9.00" fill="#c40b0a">.pnpm</text>
</a>
</g>
</g>
<!-- ../../SML/apps/web/components/hoc/with&#45;horizontal&#45;scroll.tsx&#45;&gt;node_modules/.pnpm -->
<g id="edge2" class="edge">
<title>../../SML/apps/web/components/hoc/with&#45;horizontal&#45;scroll.tsx&#45;&gt;node_modules/.pnpm</title>
<path fill="none" stroke="#000000" stroke-opacity="0.200000" d="M174.31,-63.66C199.43,-59.17 228.8,-53.92 250.86,-49.97"/>
<polygon fill="#000000" fill-opacity="0.200000" stroke="#000000" stroke-opacity="0.200000" points="251.02,-52.08 256.56,-48.95 250.28,-47.94 251.02,-52.08"/>
</g>
</g>
</svg>
