<?xml version="1.0" encoding="UTF-8" standalone="no"?>
<!DOCTYPE svg PUBLIC "-//W3C//DTD SVG 1.1//EN"
 "http://www.w3.org/Graphics/SVG/1.1/DTD/svg11.dtd">
<!-- Generated by graphviz version 12.1.0 (20240811.2233)
 -->
<!-- Title: dependency&#45;cruiser output Pages: 1 -->
<svg width="483pt" height="738pt"
 viewBox="0.00 0.00 483.25 738.00" xmlns="http://www.w3.org/2000/svg" xmlns:xlink="http://www.w3.org/1999/xlink">
<g id="graph0" class="graph" transform="scale(1 1) rotate(0) translate(4 734)">
<title>dependency&#45;cruiser output</title>
<polygon fill="white" stroke="none" points="-4,4 -4,-734 479.25,-734 479.25,4 -4,4"/>
<g id="clust1" class="cluster">
<title>cluster_..</title>
<path fill="#ffffff" stroke="black" stroke-width="2" d="M20,-466C20,-466 454,-466 454,-466 460,-466 466,-472 466,-478 466,-478 466,-710 466,-710 466,-716 460,-722 454,-722 454,-722 20,-722 20,-722 14,-722 8,-716 8,-710 8,-710 8,-478 8,-478 8,-472 14,-466 20,-466"/>
<text text-anchor="middle" x="237" y="-709.45" font-family="Helvetica,sans-Serif" font-weight="bold" font-size="9.00">..</text>
</g>
<g id="clust2" class="cluster">
<title>cluster_../..</title>
<path fill="#ffffff" stroke="black" stroke-width="2" d="M28,-474C28,-474 446,-474 446,-474 452,-474 458,-480 458,-486 458,-486 458,-684 458,-684 458,-690 452,-696 446,-696 446,-696 28,-696 28,-696 22,-696 16,-690 16,-684 16,-684 16,-486 16,-486 16,-480 22,-474 28,-474"/>
<text text-anchor="middle" x="237" y="-683.45" font-family="Helvetica,sans-Serif" font-weight="bold" font-size="9.00">..</text>
</g>
<g id="clust3" class="cluster">
<title>cluster_../../SML</title>
<path fill="#ffffff" stroke="black" stroke-width="2" d="M36,-482C36,-482 438,-482 438,-482 444,-482 450,-488 450,-494 450,-494 450,-658 450,-658 450,-664 444,-670 438,-670 438,-670 36,-670 36,-670 30,-670 24,-664 24,-658 24,-658 24,-494 24,-494 24,-488 30,-482 36,-482"/>
<text text-anchor="middle" x="237" y="-657.45" font-family="Helvetica,sans-Serif" font-weight="bold" font-size="9.00">SML</text>
</g>
<g id="clust4" class="cluster">
<title>cluster_../../SML/apps</title>
<path fill="#ffffff" stroke="black" stroke-width="2" d="M44,-490C44,-490 297.75,-490 297.75,-490 303.75,-490 309.75,-496 309.75,-502 309.75,-502 309.75,-632 309.75,-632 309.75,-638 303.75,-644 297.75,-644 297.75,-644 44,-644 44,-644 38,-644 32,-638 32,-632 32,-632 32,-502 32,-502 32,-496 38,-490 44,-490"/>
<text text-anchor="middle" x="170.88" y="-631.45" font-family="Helvetica,sans-Serif" font-weight="bold" font-size="9.00">apps</text>
</g>
<g id="clust5" class="cluster">
<title>cluster_../../SML/apps/web</title>
<path fill="#ffffff" stroke="black" stroke-width="2" d="M52,-498C52,-498 289.75,-498 289.75,-498 295.75,-498 301.75,-504 301.75,-510 301.75,-510 301.75,-606 301.75,-606 301.75,-612 295.75,-618 289.75,-618 289.75,-618 52,-618 52,-618 46,-618 40,-612 40,-606 40,-606 40,-510 40,-510 40,-504 46,-498 52,-498"/>
<text text-anchor="middle" x="170.88" y="-605.45" font-family="Helvetica,sans-Serif" font-weight="bold" font-size="9.00">web</text>
</g>
<g id="clust6" class="cluster">
<title>cluster_../../SML/apps/web/components</title>
<path fill="#ffffff" stroke="black" stroke-width="2" d="M60,-506C60,-506 281.75,-506 281.75,-506 287.75,-506 293.75,-512 293.75,-518 293.75,-518 293.75,-580 293.75,-580 293.75,-586 287.75,-592 281.75,-592 281.75,-592 60,-592 60,-592 54,-592 48,-586 48,-580 48,-580 48,-518 48,-518 48,-512 54,-506 60,-506"/>
<text text-anchor="middle" x="170.88" y="-579.45" font-family="Helvetica,sans-Serif" font-weight="bold" font-size="9.00">components</text>
</g>
<g id="clust7" class="cluster">
<title>cluster_../../SML/apps/web/components/breadcrumbs</title>
<path fill="#ffffff" stroke="black" stroke-width="2" d="M68,-514C68,-514 273.75,-514 273.75,-514 279.75,-514 285.75,-520 285.75,-526 285.75,-526 285.75,-554 285.75,-554 285.75,-560 279.75,-566 273.75,-566 273.75,-566 68,-566 68,-566 62,-566 56,-560 56,-554 56,-554 56,-526 56,-526 56,-520 62,-514 68,-514"/>
<text text-anchor="middle" x="170.88" y="-553.45" font-family="Helvetica,sans-Serif" font-weight="bold" font-size="9.00">breadcrumbs</text>
</g>
<g id="clust8" class="cluster">
<title>cluster_../../SML/packages</title>
<path fill="#ffffff" stroke="black" stroke-width="2" d="M355,-506C355,-506 430,-506 430,-506 436,-506 442,-512 442,-518 442,-518 442,-580 442,-580 442,-586 436,-592 430,-592 430,-592 355,-592 355,-592 349,-592 343,-586 343,-580 343,-580 343,-518 343,-518 343,-512 349,-506 355,-506"/>
<text text-anchor="middle" x="392.5" y="-579.45" font-family="Helvetica,sans-Serif" font-weight="bold" font-size="9.00">packages</text>
</g>
<g id="clust9" class="cluster">
<title>cluster_../../SML/packages/utils</title>
<path fill="#ffffff" stroke="black" stroke-width="2" d="M363,-514C363,-514 422,-514 422,-514 428,-514 434,-520 434,-526 434,-526 434,-554 434,-554 434,-560 428,-566 422,-566 422,-566 363,-566 363,-566 357,-566 351,-560 351,-554 351,-554 351,-526 351,-526 351,-520 357,-514 363,-514"/>
<text text-anchor="middle" x="392.5" y="-553.45" font-family="Helvetica,sans-Serif" font-weight="bold" font-size="9.00">utils</text>
</g>
<g id="clust10" class="cluster">
<title>cluster_@</title>
<path fill="#ffffff" stroke="black" stroke-width="2" d="M329.75,-68C329.75,-68 455.25,-68 455.25,-68 461.25,-68 467.25,-74 467.25,-80 467.25,-80 467.25,-446 467.25,-446 467.25,-452 461.25,-458 455.25,-458 455.25,-458 329.75,-458 329.75,-458 323.75,-458 317.75,-452 317.75,-446 317.75,-446 317.75,-80 317.75,-80 317.75,-74 323.75,-68 329.75,-68"/>
<text text-anchor="middle" x="392.5" y="-445.45" font-family="Helvetica,sans-Serif" font-weight="bold" font-size="9.00">@</text>
</g>
<g id="clust11" class="cluster">
<title>cluster_@/dicontainer</title>
<path fill="#ffffff" stroke="black" stroke-width="2" d="M369.5,-286C369.5,-286 415.5,-286 415.5,-286 421.5,-286 427.5,-292 427.5,-298 427.5,-298 427.5,-326 427.5,-326 427.5,-332 421.5,-338 415.5,-338 415.5,-338 369.5,-338 369.5,-338 363.5,-338 357.5,-332 357.5,-326 357.5,-326 357.5,-298 357.5,-298 357.5,-292 363.5,-286 369.5,-286"/>
<text text-anchor="middle" x="392.5" y="-325.45" font-family="Helvetica,sans-Serif" font-weight="bold" font-size="9.00">dicontainer</text>
</g>
<g id="clust12" class="cluster">
<title>cluster_@/hooks</title>
<path fill="#ffffff" stroke="black" stroke-width="2" d="M337.75,-136C337.75,-136 447.25,-136 447.25,-136 453.25,-136 459.25,-142 459.25,-148 459.25,-148 459.25,-266 459.25,-266 459.25,-272 453.25,-278 447.25,-278 447.25,-278 337.75,-278 337.75,-278 331.75,-278 325.75,-272 325.75,-266 325.75,-266 325.75,-148 325.75,-148 325.75,-142 331.75,-136 337.75,-136"/>
<text text-anchor="middle" x="392.5" y="-265.45" font-family="Helvetica,sans-Serif" font-weight="bold" font-size="9.00">hooks</text>
</g>
<g id="clust13" class="cluster">
<title>cluster_@/hooks/file&#45;hooks</title>
<path fill="#ffffff" stroke="black" stroke-width="2" d="M345.75,-144C345.75,-144 439.25,-144 439.25,-144 445.25,-144 451.25,-150 451.25,-156 451.25,-156 451.25,-184 451.25,-184 451.25,-190 445.25,-196 439.25,-196 439.25,-196 345.75,-196 345.75,-196 339.75,-196 333.75,-190 333.75,-184 333.75,-184 333.75,-156 333.75,-156 333.75,-150 339.75,-144 345.75,-144"/>
<text text-anchor="middle" x="392.5" y="-183.45" font-family="Helvetica,sans-Serif" font-weight="bold" font-size="9.00">file&#45;hooks</text>
</g>
<g id="clust14" class="cluster">
<title>cluster_@/lib</title>
<path fill="#ffffff" stroke="black" stroke-width="2" d="M369.5,-76C369.5,-76 415.5,-76 415.5,-76 421.5,-76 427.5,-82 427.5,-88 427.5,-88 427.5,-116 427.5,-116 427.5,-122 421.5,-128 415.5,-128 415.5,-128 369.5,-128 369.5,-128 363.5,-128 357.5,-122 357.5,-116 357.5,-116 357.5,-88 357.5,-88 357.5,-82 363.5,-76 369.5,-76"/>
<text text-anchor="middle" x="392.5" y="-115.45" font-family="Helvetica,sans-Serif" font-weight="bold" font-size="9.00">lib</text>
</g>
<g id="clust15" class="cluster">
<title>cluster_@/store</title>
<path fill="#ffffff" stroke="black" stroke-width="2" d="M360.25,-346C360.25,-346 424.75,-346 424.75,-346 430.75,-346 436.75,-352 436.75,-358 436.75,-358 436.75,-420 436.75,-420 436.75,-426 430.75,-432 424.75,-432 424.75,-432 360.25,-432 360.25,-432 354.25,-432 348.25,-426 348.25,-420 348.25,-420 348.25,-358 348.25,-358 348.25,-352 354.25,-346 360.25,-346"/>
<text text-anchor="middle" x="392.5" y="-419.45" font-family="Helvetica,sans-Serif" font-weight="bold" font-size="9.00">store</text>
</g>
<g id="clust16" class="cluster">
<title>cluster_@/store/tabs</title>
<path fill="#ffffff" stroke="black" stroke-width="2" d="M368.25,-354C368.25,-354 416.75,-354 416.75,-354 422.75,-354 428.75,-360 428.75,-366 428.75,-366 428.75,-394 428.75,-394 428.75,-400 422.75,-406 416.75,-406 416.75,-406 368.25,-406 368.25,-406 362.25,-406 356.25,-400 356.25,-394 356.25,-394 356.25,-366 356.25,-366 356.25,-360 362.25,-354 368.25,-354"/>
<text text-anchor="middle" x="392.5" y="-393.45" font-family="Helvetica,sans-Serif" font-weight="bold" font-size="9.00">tabs</text>
</g>
<g id="clust17" class="cluster">
<title>cluster_node_modules</title>
<path fill="#ffffff" stroke="black" stroke-width="2" d="M365.5,-8C365.5,-8 420.5,-8 420.5,-8 426.5,-8 432.5,-14 432.5,-20 432.5,-20 432.5,-48 432.5,-48 432.5,-54 426.5,-60 420.5,-60 420.5,-60 365.5,-60 365.5,-60 359.5,-60 353.5,-54 353.5,-48 353.5,-48 353.5,-20 353.5,-20 353.5,-14 359.5,-8 365.5,-8"/>
<text text-anchor="middle" x="393" y="-47.45" font-family="Helvetica,sans-Serif" font-weight="bold" font-size="9.00">node_modules</text>
</g>
<!-- ../../SML/apps/web/components/breadcrumbs/breadcrumbs.tsx -->
<g id="node1" class="node">
<title>../../SML/apps/web/components/breadcrumbs/breadcrumbs.tsx</title>
<g id="a_node1"><a xlink:href="../../SML/apps/web/components/breadcrumbs/breadcrumbs.tsx" xlink:title="breadcrumbs.tsx">
<path fill="#bbfeff" stroke="black" d="M141.58,-539.88C141.58,-539.88 69.92,-539.88 69.92,-539.88 66.96,-539.88 64,-536.92 64,-533.96 64,-533.96 64,-528.04 64,-528.04 64,-525.08 66.96,-522.12 69.92,-522.12 69.92,-522.12 141.58,-522.12 141.58,-522.12 144.54,-522.12 147.5,-525.08 147.5,-528.04 147.5,-528.04 147.5,-533.96 147.5,-533.96 147.5,-536.92 144.54,-539.88 141.58,-539.88"/>
<text text-anchor="start" x="72" y="-527.33" font-family="Helvetica,sans-Serif" font-size="9.00">breadcrumbs.tsx</text>
</a>
</g>
</g>
<!-- ../../SML/apps/web/components/breadcrumbs/use&#45;breadcrumb&#45;items.ts -->
<g id="node2" class="node">
<title>../../SML/apps/web/components/breadcrumbs/use&#45;breadcrumb&#45;items.ts</title>
<g id="a_node2"><a xlink:href="../../SML/apps/web/components/breadcrumbs/use-breadcrumb-items.ts" xlink:title="use&#45;breadcrumb&#45;items.ts">
<path fill="#ddfeff" stroke="black" d="M271.83,-539.88C271.83,-539.88 166.42,-539.88 166.42,-539.88 163.46,-539.88 160.5,-536.92 160.5,-533.96 160.5,-533.96 160.5,-528.04 160.5,-528.04 160.5,-525.08 163.46,-522.12 166.42,-522.12 166.42,-522.12 271.83,-522.12 271.83,-522.12 274.79,-522.12 277.75,-525.08 277.75,-528.04 277.75,-528.04 277.75,-533.96 277.75,-533.96 277.75,-536.92 274.79,-539.88 271.83,-539.88"/>
<text text-anchor="start" x="168.5" y="-527.33" font-family="Helvetica,sans-Serif" font-size="9.00">use&#45;breadcrumb&#45;items.ts</text>
</a>
</g>
</g>
<!-- ../../SML/apps/web/components/breadcrumbs/breadcrumbs.tsx&#45;&gt;../../SML/apps/web/components/breadcrumbs/use&#45;breadcrumb&#45;items.ts -->
<g id="edge1" class="edge">
<title>../../SML/apps/web/components/breadcrumbs/breadcrumbs.tsx&#45;&gt;../../SML/apps/web/components/breadcrumbs/use&#45;breadcrumb&#45;items.ts</title>
<path fill="none" stroke="#000000" stroke-width="2" stroke-opacity="0.200000" d="M147.91,-531C149.02,-531 150.14,-531 151.27,-531"/>
<polygon fill="#000000" fill-opacity="0.200000" stroke="#000000" stroke-width="2" stroke-opacity="0.200000" points="151,-533.1 157,-531 151,-528.9 151,-533.1"/>
</g>
<!-- @/hooks/file&#45;hooks/use&#45;open&#45;file&#45;for&#45;edit -->
<g id="node3" class="node">
<title>@/hooks/file&#45;hooks/use&#45;open&#45;file&#45;for&#45;edit</title>
<g id="a_node3"><a xlink:title="use&#45;open&#45;file&#45;for&#45;edit">
<path fill="#ffffcc" stroke="black" d="M437.33,-169.88C437.33,-169.88 347.67,-169.88 347.67,-169.88 344.71,-169.88 341.75,-166.92 341.75,-163.96 341.75,-163.96 341.75,-158.04 341.75,-158.04 341.75,-155.08 344.71,-152.12 347.67,-152.12 347.67,-152.12 437.33,-152.12 437.33,-152.12 440.29,-152.12 443.25,-155.08 443.25,-158.04 443.25,-158.04 443.25,-163.96 443.25,-163.96 443.25,-166.92 440.29,-169.88 437.33,-169.88"/>
<text text-anchor="start" x="349.75" y="-157.32" font-family="Helvetica,sans-Serif" font-size="9.00">use&#45;open&#45;file&#45;for&#45;edit</text>
</a>
</g>
</g>
<!-- ../../SML/apps/web/components/breadcrumbs/breadcrumbs.tsx&#45;&gt;@/hooks/file&#45;hooks/use&#45;open&#45;file&#45;for&#45;edit -->
<g id="edge2" class="edge">
<title>../../SML/apps/web/components/breadcrumbs/breadcrumbs.tsx&#45;&gt;@/hooks/file&#45;hooks/use&#45;open&#45;file&#45;for&#45;edit</title>
<path fill="none" stroke="#000000" stroke-width="2" stroke-opacity="0.200000" d="M109.09,-521.88C121.41,-475.78 183.4,-267.05 317.75,-174 322.38,-170.79 327.55,-168.3 332.95,-166.37"/>
<polygon fill="#000000" fill-opacity="0.200000" stroke="#000000" stroke-width="2" stroke-opacity="0.200000" points="333.54,-168.39 338.69,-164.65 332.34,-164.36 333.54,-168.39"/>
</g>
<!-- @/lib/utils -->
<g id="node4" class="node">
<title>@/lib/utils</title>
<g id="a_node4"><a xlink:title="utils">
<path fill="#ffffcc" stroke="black" d="M413.58,-101.88C413.58,-101.88 371.42,-101.88 371.42,-101.88 368.46,-101.88 365.5,-98.92 365.5,-95.96 365.5,-95.96 365.5,-90.04 365.5,-90.04 365.5,-87.08 368.46,-84.12 371.42,-84.12 371.42,-84.12 413.58,-84.12 413.58,-84.12 416.54,-84.12 419.5,-87.08 419.5,-90.04 419.5,-90.04 419.5,-95.96 419.5,-95.96 419.5,-98.92 416.54,-101.88 413.58,-101.88"/>
<text text-anchor="middle" x="392.5" y="-89.33" font-family="Helvetica,sans-Serif" font-size="9.00">utils</text>
</a>
</g>
</g>
<!-- ../../SML/apps/web/components/breadcrumbs/breadcrumbs.tsx&#45;&gt;@/lib/utils -->
<g id="edge3" class="edge">
<title>../../SML/apps/web/components/breadcrumbs/breadcrumbs.tsx&#45;&gt;@/lib/utils</title>
<path fill="none" stroke="#000000" stroke-width="2" stroke-opacity="0.200000" d="M106.91,-521.85C107.98,-471.88 115.39,-232.06 160.5,-177 209.48,-117.21 304.79,-99.98 356.35,-95.01"/>
<polygon fill="#000000" fill-opacity="0.200000" stroke="#000000" stroke-width="2" stroke-opacity="0.200000" points="356.33,-97.12 362.13,-94.5 355.97,-92.94 356.33,-97.12"/>
</g>
<!-- node_modules/.pnpm -->
<g id="node5" class="node">
<title>node_modules/.pnpm</title>
<g id="a_node5"><a xlink:href="https://www.npmjs.com/package/.pnpm" xlink:title=".pnpm">
<polygon fill="#c40b0a" fill-opacity="0.101961" stroke="black" points="419.5,-33.88 367.47,-33.88 365.5,-31.9 365.5,-16.12 417.53,-16.12 419.5,-18.1 419.5,-33.88"/>
<polyline fill="none" stroke="black" points="417.53,-31.9 365.5,-31.9"/>
<polyline fill="none" stroke="black" points="417.53,-31.9 417.53,-16.12"/>
<polyline fill="none" stroke="black" points="417.53,-31.9 419.5,-33.88"/>
<text text-anchor="start" x="379.75" y="-21.32" font-family="Helvetica,sans-Serif" font-size="9.00" fill="#c40b0a">.pnpm</text>
</a>
</g>
</g>
<!-- ../../SML/apps/web/components/breadcrumbs/breadcrumbs.tsx&#45;&gt;node_modules/.pnpm -->
<g id="edge4" class="edge">
<title>../../SML/apps/web/components/breadcrumbs/breadcrumbs.tsx&#45;&gt;node_modules/.pnpm</title>
<path fill="none" stroke="#000000" stroke-opacity="0.200000" d="M106.6,-521.74C105.86,-465.16 104.66,-166.34 160.5,-99 209.69,-39.68 306.59,-27.35 357.86,-25.15"/>
<polygon fill="#000000" fill-opacity="0.200000" stroke="#000000" stroke-opacity="0.200000" points="357.65,-27.26 363.57,-24.95 357.5,-23.06 357.65,-27.26"/>
</g>
<!-- ../../SML/apps/web/components/breadcrumbs/use&#45;breadcrumb&#45;items.ts&#45;&gt;node_modules/.pnpm -->
<g id="edge9" class="edge">
<title>../../SML/apps/web/components/breadcrumbs/use&#45;breadcrumb&#45;items.ts&#45;&gt;node_modules/.pnpm</title>
<path fill="none" stroke="#000000" stroke-opacity="0.200000" d="M221.13,-521.73C227.56,-463.73 264.35,-150.73 317.75,-73 328.57,-57.24 346.44,-45.42 361.87,-37.45"/>
<polygon fill="#000000" fill-opacity="0.200000" stroke="#000000" stroke-opacity="0.200000" points="362.5,-39.49 366.95,-34.95 360.64,-35.72 362.5,-39.49"/>
</g>
<!-- @/dicontainer/diTypes -->
<g id="node6" class="node">
<title>@/dicontainer/diTypes</title>
<g id="a_node6"><a xlink:title="diTypes">
<path fill="#ffffcc" stroke="black" d="M413.58,-311.88C413.58,-311.88 371.42,-311.88 371.42,-311.88 368.46,-311.88 365.5,-308.92 365.5,-305.96 365.5,-305.96 365.5,-300.04 365.5,-300.04 365.5,-297.08 368.46,-294.12 371.42,-294.12 371.42,-294.12 413.58,-294.12 413.58,-294.12 416.54,-294.12 419.5,-297.08 419.5,-300.04 419.5,-300.04 419.5,-305.96 419.5,-305.96 419.5,-308.92 416.54,-311.88 413.58,-311.88"/>
<text text-anchor="start" x="376.38" y="-299.32" font-family="Helvetica,sans-Serif" font-size="9.00">diTypes</text>
</a>
</g>
</g>
<!-- ../../SML/apps/web/components/breadcrumbs/use&#45;breadcrumb&#45;items.ts&#45;&gt;@/dicontainer/diTypes -->
<g id="edge5" class="edge">
<title>../../SML/apps/web/components/breadcrumbs/use&#45;breadcrumb&#45;items.ts&#45;&gt;@/dicontainer/diTypes</title>
<path fill="none" stroke="#000000" stroke-width="2" stroke-opacity="0.200000" d="M223.26,-521.78C233.23,-493.48 266.63,-406.38 317.75,-351 330.99,-336.66 349.37,-324.68 364.48,-316.28"/>
<polygon fill="#000000" fill-opacity="0.200000" stroke="#000000" stroke-width="2" stroke-opacity="0.200000" points="365.08,-318.34 369.37,-313.65 363.09,-314.64 365.08,-318.34"/>
</g>
<!-- @/hooks/use&#45;files -->
<g id="node7" class="node">
<title>@/hooks/use&#45;files</title>
<g id="a_node7"><a xlink:title="use&#45;files">
<path fill="#ffffcc" stroke="black" d="M413.58,-221.88C413.58,-221.88 371.42,-221.88 371.42,-221.88 368.46,-221.88 365.5,-218.92 365.5,-215.96 365.5,-215.96 365.5,-210.04 365.5,-210.04 365.5,-207.08 368.46,-204.12 371.42,-204.12 371.42,-204.12 413.58,-204.12 413.58,-204.12 416.54,-204.12 419.5,-207.08 419.5,-210.04 419.5,-210.04 419.5,-215.96 419.5,-215.96 419.5,-218.92 416.54,-221.88 413.58,-221.88"/>
<text text-anchor="start" x="375.25" y="-209.32" font-family="Helvetica,sans-Serif" font-size="9.00">use&#45;files</text>
</a>
</g>
</g>
<!-- ../../SML/apps/web/components/breadcrumbs/use&#45;breadcrumb&#45;items.ts&#45;&gt;@/hooks/use&#45;files -->
<g id="edge6" class="edge">
<title>../../SML/apps/web/components/breadcrumbs/use&#45;breadcrumb&#45;items.ts&#45;&gt;@/hooks/use&#45;files</title>
<path fill="none" stroke="#000000" stroke-width="2" stroke-opacity="0.200000" d="M226.13,-521.65C242.94,-494.93 290.5,-415.42 309.75,-342 312.97,-329.72 309.38,-237.55 317.75,-228 327.22,-217.2 342.16,-212.91 356.12,-211.53"/>
<polygon fill="#000000" fill-opacity="0.200000" stroke="#000000" stroke-width="2" stroke-opacity="0.200000" points="356.19,-213.63 362.06,-211.18 355.95,-209.44 356.19,-213.63"/>
</g>
<!-- @/hooks/use&#45;tabs -->
<g id="node8" class="node">
<title>@/hooks/use&#45;tabs</title>
<g id="a_node8"><a xlink:title="use&#45;tabs">
<path fill="#ffffcc" stroke="black" d="M413.58,-251.88C413.58,-251.88 371.42,-251.88 371.42,-251.88 368.46,-251.88 365.5,-248.92 365.5,-245.96 365.5,-245.96 365.5,-240.04 365.5,-240.04 365.5,-237.08 368.46,-234.12 371.42,-234.12 371.42,-234.12 413.58,-234.12 413.58,-234.12 416.54,-234.12 419.5,-237.08 419.5,-240.04 419.5,-240.04 419.5,-245.96 419.5,-245.96 419.5,-248.92 416.54,-251.88 413.58,-251.88"/>
<text text-anchor="start" x="374.88" y="-239.32" font-family="Helvetica,sans-Serif" font-size="9.00">use&#45;tabs</text>
</a>
</g>
</g>
<!-- ../../SML/apps/web/components/breadcrumbs/use&#45;breadcrumb&#45;items.ts&#45;&gt;@/hooks/use&#45;tabs -->
<g id="edge7" class="edge">
<title>../../SML/apps/web/components/breadcrumbs/use&#45;breadcrumb&#45;items.ts&#45;&gt;@/hooks/use&#45;tabs</title>
<path fill="none" stroke="#000000" stroke-width="2" stroke-opacity="0.200000" d="M225.66,-521.97C241.64,-495.45 288.03,-415.1 309.75,-342 317.29,-316.63 302.71,-304.78 317.75,-283 327.09,-269.47 342.53,-260.1 356.87,-253.85"/>
<polygon fill="#000000" fill-opacity="0.200000" stroke="#000000" stroke-width="2" stroke-opacity="0.200000" points="357.55,-255.84 362.33,-251.65 355.98,-251.94 357.55,-255.84"/>
</g>
<!-- @/store/tabs/tabs&#45;store -->
<g id="node9" class="node">
<title>@/store/tabs/tabs&#45;store</title>
<g id="a_node9"><a xlink:title="tabs&#45;store">
<path fill="#ffffcc" stroke="black" d="M414.83,-379.88C414.83,-379.88 370.17,-379.88 370.17,-379.88 367.21,-379.88 364.25,-376.92 364.25,-373.96 364.25,-373.96 364.25,-368.04 364.25,-368.04 364.25,-365.08 367.21,-362.12 370.17,-362.12 370.17,-362.12 414.83,-362.12 414.83,-362.12 417.79,-362.12 420.75,-365.08 420.75,-368.04 420.75,-368.04 420.75,-373.96 420.75,-373.96 420.75,-376.92 417.79,-379.88 414.83,-379.88"/>
<text text-anchor="start" x="372.25" y="-367.32" font-family="Helvetica,sans-Serif" font-size="9.00">tabs&#45;store</text>
</a>
</g>
</g>
<!-- ../../SML/apps/web/components/breadcrumbs/use&#45;breadcrumb&#45;items.ts&#45;&gt;@/store/tabs/tabs&#45;store -->
<g id="edge8" class="edge">
<title>../../SML/apps/web/components/breadcrumbs/use&#45;breadcrumb&#45;items.ts&#45;&gt;@/store/tabs/tabs&#45;store</title>
<path fill="none" stroke="#000000" stroke-width="2" stroke-opacity="0.200000" d="M230.08,-521.71C258.48,-495.19 340.08,-419.01 375.15,-386.26"/>
<polygon fill="#000000" fill-opacity="0.200000" stroke="#000000" stroke-width="2" stroke-opacity="0.200000" points="376.35,-388.01 379.31,-382.39 373.49,-384.94 376.35,-388.01"/>
</g>
<!-- ../../SML/packages/utils/secure.util.ts -->
<g id="node10" class="node">
<title>../../SML/packages/utils/secure.util.ts</title>
<g id="a_node10"><a xlink:href="../../SML/packages/utils/secure.util.ts" xlink:title="secure.util.ts">
<path fill="#ddfeff" stroke="black" d="M420.08,-539.88C420.08,-539.88 364.92,-539.88 364.92,-539.88 361.96,-539.88 359,-536.92 359,-533.96 359,-533.96 359,-528.04 359,-528.04 359,-525.08 361.96,-522.12 364.92,-522.12 364.92,-522.12 420.08,-522.12 420.08,-522.12 423.04,-522.12 426,-525.08 426,-528.04 426,-528.04 426,-533.96 426,-533.96 426,-536.92 423.04,-539.88 420.08,-539.88"/>
<text text-anchor="start" x="367" y="-527.33" font-family="Helvetica,sans-Serif" font-size="9.00">secure.util.ts</text>
</a>
</g>
</g>
<!-- ../../SML/apps/web/components/breadcrumbs/use&#45;breadcrumb&#45;items.ts&#45;&gt;../../SML/packages/utils/secure.util.ts -->
<g id="edge10" class="edge">
<title>../../SML/apps/web/components/breadcrumbs/use&#45;breadcrumb&#45;items.ts&#45;&gt;../../SML/packages/utils/secure.util.ts</title>
<path fill="none" stroke="#000000" stroke-width="2" stroke-opacity="0.200000" d="M278.14,-531C301.6,-531 328.14,-531 349.65,-531"/>
<polygon fill="#000000" fill-opacity="0.200000" stroke="#000000" stroke-width="2" stroke-opacity="0.200000" points="349.51,-533.1 355.51,-531 349.51,-528.9 349.51,-533.1"/>
</g>
</g>
</svg>
