<?xml version="1.0" encoding="UTF-8" standalone="no"?>
<!DOCTYPE svg PUBLIC "-//W3C//DTD SVG 1.1//EN"
 "http://www.w3.org/Graphics/SVG/1.1/DTD/svg11.dtd">
<!-- Generated by graphviz version 12.1.0 (20240811.2233)
 -->
<!-- Title: dependency&#45;cruiser output Pages: 1 -->
<svg width="330pt" height="280pt"
 viewBox="0.00 0.00 330.00 280.00" xmlns="http://www.w3.org/2000/svg" xmlns:xlink="http://www.w3.org/1999/xlink">
<g id="graph0" class="graph" transform="scale(1 1) rotate(0) translate(4 276)">
<title>dependency&#45;cruiser output</title>
<polygon fill="white" stroke="none" points="-4,4 -4,-276 326,-276 326,4 -4,4"/>
<g id="clust1" class="cluster">
<title>cluster_..</title>
<path fill="#ffffff" stroke="black" stroke-width="2" d="M20,-8C20,-8 220,-8 220,-8 226,-8 232,-14 232,-20 232,-20 232,-252 232,-252 232,-258 226,-264 220,-264 220,-264 20,-264 20,-264 14,-264 8,-258 8,-252 8,-252 8,-20 8,-20 8,-14 14,-8 20,-8"/>
<text text-anchor="middle" x="120" y="-251.45" font-family="Helvetica,sans-Serif" font-weight="bold" font-size="9.00">..</text>
</g>
<g id="clust2" class="cluster">
<title>cluster_../..</title>
<path fill="#ffffff" stroke="black" stroke-width="2" d="M28,-16C28,-16 212,-16 212,-16 218,-16 224,-22 224,-28 224,-28 224,-226 224,-226 224,-232 218,-238 212,-238 212,-238 28,-238 28,-238 22,-238 16,-232 16,-226 16,-226 16,-28 16,-28 16,-22 22,-16 28,-16"/>
<text text-anchor="middle" x="120" y="-225.45" font-family="Helvetica,sans-Serif" font-weight="bold" font-size="9.00">..</text>
</g>
<g id="clust3" class="cluster">
<title>cluster_../../SML</title>
<path fill="#ffffff" stroke="black" stroke-width="2" d="M36,-24C36,-24 204,-24 204,-24 210,-24 216,-30 216,-36 216,-36 216,-200 216,-200 216,-206 210,-212 204,-212 204,-212 36,-212 36,-212 30,-212 24,-206 24,-200 24,-200 24,-36 24,-36 24,-30 30,-24 36,-24"/>
<text text-anchor="middle" x="120" y="-199.45" font-family="Helvetica,sans-Serif" font-weight="bold" font-size="9.00">SML</text>
</g>
<g id="clust4" class="cluster">
<title>cluster_../../SML/apps</title>
<path fill="#ffffff" stroke="black" stroke-width="2" d="M44,-32C44,-32 196,-32 196,-32 202,-32 208,-38 208,-44 208,-44 208,-174 208,-174 208,-180 202,-186 196,-186 196,-186 44,-186 44,-186 38,-186 32,-180 32,-174 32,-174 32,-44 32,-44 32,-38 38,-32 44,-32"/>
<text text-anchor="middle" x="120" y="-173.45" font-family="Helvetica,sans-Serif" font-weight="bold" font-size="9.00">apps</text>
</g>
<g id="clust5" class="cluster">
<title>cluster_../../SML/apps/web</title>
<path fill="#ffffff" stroke="black" stroke-width="2" d="M52,-40C52,-40 188,-40 188,-40 194,-40 200,-46 200,-52 200,-52 200,-148 200,-148 200,-154 194,-160 188,-160 188,-160 52,-160 52,-160 46,-160 40,-154 40,-148 40,-148 40,-52 40,-52 40,-46 46,-40 52,-40"/>
<text text-anchor="middle" x="120" y="-147.45" font-family="Helvetica,sans-Serif" font-weight="bold" font-size="9.00">web</text>
</g>
<g id="clust6" class="cluster">
<title>cluster_../../SML/apps/web/components</title>
<path fill="#ffffff" stroke="black" stroke-width="2" d="M60,-48C60,-48 180,-48 180,-48 186,-48 192,-54 192,-60 192,-60 192,-122 192,-122 192,-128 186,-134 180,-134 180,-134 60,-134 60,-134 54,-134 48,-128 48,-122 48,-122 48,-60 48,-60 48,-54 54,-48 60,-48"/>
<text text-anchor="middle" x="120" y="-121.45" font-family="Helvetica,sans-Serif" font-weight="bold" font-size="9.00">components</text>
</g>
<g id="clust7" class="cluster">
<title>cluster_../../SML/apps/web/components/hoc</title>
<path fill="#ffffff" stroke="black" stroke-width="2" d="M68,-56C68,-56 172,-56 172,-56 178,-56 184,-62 184,-68 184,-68 184,-96 184,-96 184,-102 178,-108 172,-108 172,-108 68,-108 68,-108 62,-108 56,-102 56,-96 56,-96 56,-68 56,-68 56,-62 62,-56 68,-56"/>
<text text-anchor="middle" x="120" y="-95.45" font-family="Helvetica,sans-Serif" font-weight="bold" font-size="9.00">hoc</text>
</g>
<g id="clust8" class="cluster">
<title>cluster_node_modules</title>
<path fill="#ffffff" stroke="black" stroke-width="2" d="M252,-56C252,-56 307,-56 307,-56 313,-56 319,-62 319,-68 319,-68 319,-96 319,-96 319,-102 313,-108 307,-108 307,-108 252,-108 252,-108 246,-108 240,-102 240,-96 240,-96 240,-68 240,-68 240,-62 246,-56 252,-56"/>
<text text-anchor="middle" x="279.5" y="-95.45" font-family="Helvetica,sans-Serif" font-weight="bold" font-size="9.00">node_modules</text>
</g>
<!-- ../../SML/apps/web/components/hoc/with&#45;dynamic&#45;height.tsx -->
<g id="node1" class="node">
<title>../../SML/apps/web/components/hoc/with&#45;dynamic&#45;height.tsx</title>
<g id="a_node1"><a xlink:href="../../SML/apps/web/components/hoc/with-dynamic-height.tsx" xlink:title="with&#45;dynamic&#45;height.tsx">
<path fill="#bbfeff" stroke="black" d="M170.08,-81.88C170.08,-81.88 69.92,-81.88 69.92,-81.88 66.96,-81.88 64,-78.92 64,-75.96 64,-75.96 64,-70.04 64,-70.04 64,-67.08 66.96,-64.12 69.92,-64.12 69.92,-64.12 170.08,-64.12 170.08,-64.12 173.04,-64.12 176,-67.08 176,-70.04 176,-70.04 176,-75.96 176,-75.96 176,-78.92 173.04,-81.88 170.08,-81.88"/>
<text text-anchor="start" x="72" y="-69.33" font-family="Helvetica,sans-Serif" font-size="9.00">with&#45;dynamic&#45;height.tsx</text>
</a>
</g>
</g>
<!-- node_modules/.pnpm -->
<g id="node2" class="node">
<title>node_modules/.pnpm</title>
<g id="a_node2"><a xlink:href="https://www.npmjs.com/package/.pnpm" xlink:title=".pnpm">
<polygon fill="#c40b0a" fill-opacity="0.101961" stroke="black" points="306,-81.88 253.97,-81.88 252,-79.9 252,-64.12 304.03,-64.12 306,-66.1 306,-81.88"/>
<polyline fill="none" stroke="black" points="304.03,-79.9 252,-79.9"/>
<polyline fill="none" stroke="black" points="304.03,-79.9 304.03,-64.12"/>
<polyline fill="none" stroke="black" points="304.03,-79.9 306,-81.88"/>
<text text-anchor="start" x="266.25" y="-69.33" font-family="Helvetica,sans-Serif" font-size="9.00" fill="#c40b0a">.pnpm</text>
</a>
</g>
</g>
<!-- ../../SML/apps/web/components/hoc/with&#45;dynamic&#45;height.tsx&#45;&gt;node_modules/.pnpm -->
<g id="edge1" class="edge">
<title>../../SML/apps/web/components/hoc/with&#45;dynamic&#45;height.tsx&#45;&gt;node_modules/.pnpm</title>
<path fill="none" stroke="#000000" stroke-opacity="0.200000" d="M176.35,-73C199.05,-73 224.59,-73 244.39,-73"/>
<polygon fill="#000000" fill-opacity="0.200000" stroke="#000000" stroke-opacity="0.200000" points="244.17,-75.1 250.17,-73 244.17,-70.9 244.17,-75.1"/>
</g>
</g>
</svg>
