<?xml version="1.0" encoding="UTF-8" standalone="no"?>
<!DOCTYPE svg PUBLIC "-//W3C//DTD SVG 1.1//EN"
 "http://www.w3.org/Graphics/SVG/1.1/DTD/svg11.dtd">
<!-- Generated by graphviz version 12.1.0 (20240811.2233)
 -->
<!-- Title: dependency&#45;cruiser output Pages: 1 -->
<svg width="324pt" height="280pt"
 viewBox="0.00 0.00 324.00 280.00" xmlns="http://www.w3.org/2000/svg" xmlns:xlink="http://www.w3.org/1999/xlink">
<g id="graph0" class="graph" transform="scale(1 1) rotate(0) translate(4 276)">
<title>dependency&#45;cruiser output</title>
<polygon fill="white" stroke="none" points="-4,4 -4,-276 320,-276 320,4 -4,4"/>
<g id="clust1" class="cluster">
<title>cluster_..</title>
<path fill="#ffffff" stroke="black" stroke-width="2" d="M20,-8C20,-8 202,-8 202,-8 208,-8 214,-14 214,-20 214,-20 214,-252 214,-252 214,-258 208,-264 202,-264 202,-264 20,-264 20,-264 14,-264 8,-258 8,-252 8,-252 8,-20 8,-20 8,-14 14,-8 20,-8"/>
<text text-anchor="middle" x="111" y="-251.45" font-family="Helvetica,sans-Serif" font-weight="bold" font-size="9.00">..</text>
</g>
<g id="clust2" class="cluster">
<title>cluster_../..</title>
<path fill="#ffffff" stroke="black" stroke-width="2" d="M28,-16C28,-16 194,-16 194,-16 200,-16 206,-22 206,-28 206,-28 206,-226 206,-226 206,-232 200,-238 194,-238 194,-238 28,-238 28,-238 22,-238 16,-232 16,-226 16,-226 16,-28 16,-28 16,-22 22,-16 28,-16"/>
<text text-anchor="middle" x="111" y="-225.45" font-family="Helvetica,sans-Serif" font-weight="bold" font-size="9.00">..</text>
</g>
<g id="clust3" class="cluster">
<title>cluster_../../SML</title>
<path fill="#ffffff" stroke="black" stroke-width="2" d="M36,-24C36,-24 186,-24 186,-24 192,-24 198,-30 198,-36 198,-36 198,-200 198,-200 198,-206 192,-212 186,-212 186,-212 36,-212 36,-212 30,-212 24,-206 24,-200 24,-200 24,-36 24,-36 24,-30 30,-24 36,-24"/>
<text text-anchor="middle" x="111" y="-199.45" font-family="Helvetica,sans-Serif" font-weight="bold" font-size="9.00">SML</text>
</g>
<g id="clust4" class="cluster">
<title>cluster_../../SML/apps</title>
<path fill="#ffffff" stroke="black" stroke-width="2" d="M44,-32C44,-32 178,-32 178,-32 184,-32 190,-38 190,-44 190,-44 190,-174 190,-174 190,-180 184,-186 178,-186 178,-186 44,-186 44,-186 38,-186 32,-180 32,-174 32,-174 32,-44 32,-44 32,-38 38,-32 44,-32"/>
<text text-anchor="middle" x="111" y="-173.45" font-family="Helvetica,sans-Serif" font-weight="bold" font-size="9.00">apps</text>
</g>
<g id="clust5" class="cluster">
<title>cluster_../../SML/apps/web</title>
<path fill="#ffffff" stroke="black" stroke-width="2" d="M52,-40C52,-40 170,-40 170,-40 176,-40 182,-46 182,-52 182,-52 182,-148 182,-148 182,-154 176,-160 170,-160 170,-160 52,-160 52,-160 46,-160 40,-154 40,-148 40,-148 40,-52 40,-52 40,-46 46,-40 52,-40"/>
<text text-anchor="middle" x="111" y="-147.45" font-family="Helvetica,sans-Serif" font-weight="bold" font-size="9.00">web</text>
</g>
<g id="clust6" class="cluster">
<title>cluster_../../SML/apps/web/components</title>
<path fill="#ffffff" stroke="black" stroke-width="2" d="M60,-48C60,-48 162,-48 162,-48 168,-48 174,-54 174,-60 174,-60 174,-122 174,-122 174,-128 168,-134 162,-134 162,-134 60,-134 60,-134 54,-134 48,-128 48,-122 48,-122 48,-60 48,-60 48,-54 54,-48 60,-48"/>
<text text-anchor="middle" x="111" y="-121.45" font-family="Helvetica,sans-Serif" font-weight="bold" font-size="9.00">components</text>
</g>
<g id="clust7" class="cluster">
<title>cluster_../../SML/apps/web/components/activity&#45;bar</title>
<path fill="#ffffff" stroke="black" stroke-width="2" d="M68,-56C68,-56 154,-56 154,-56 160,-56 166,-62 166,-68 166,-68 166,-96 166,-96 166,-102 160,-108 154,-108 154,-108 68,-108 68,-108 62,-108 56,-102 56,-96 56,-96 56,-68 56,-68 56,-62 62,-56 68,-56"/>
<text text-anchor="middle" x="111" y="-95.45" font-family="Helvetica,sans-Serif" font-weight="bold" font-size="9.00">activity&#45;bar</text>
</g>
<g id="clust8" class="cluster">
<title>cluster_@</title>
<path fill="#ffffff" stroke="black" stroke-width="2" d="M234,-48C234,-48 296,-48 296,-48 302,-48 308,-54 308,-60 308,-60 308,-122 308,-122 308,-128 302,-134 296,-134 296,-134 234,-134 234,-134 228,-134 222,-128 222,-122 222,-122 222,-60 222,-60 222,-54 228,-48 234,-48"/>
<text text-anchor="middle" x="265" y="-121.45" font-family="Helvetica,sans-Serif" font-weight="bold" font-size="9.00">@</text>
</g>
<g id="clust9" class="cluster">
<title>cluster_@/lib</title>
<path fill="#ffffff" stroke="black" stroke-width="2" d="M242,-56C242,-56 288,-56 288,-56 294,-56 300,-62 300,-68 300,-68 300,-96 300,-96 300,-102 294,-108 288,-108 288,-108 242,-108 242,-108 236,-108 230,-102 230,-96 230,-96 230,-68 230,-68 230,-62 236,-56 242,-56"/>
<text text-anchor="middle" x="265" y="-95.45" font-family="Helvetica,sans-Serif" font-weight="bold" font-size="9.00">lib</text>
</g>
<!-- ../../SML/apps/web/components/activity&#45;bar/activity&#45;bar&#45;item.tsx -->
<g id="node1" class="node">
<title>../../SML/apps/web/components/activity&#45;bar/activity&#45;bar&#45;item.tsx</title>
<g id="a_node1"><a xlink:href="../../SML/apps/web/components/activity-bar/activity-bar-item.tsx" xlink:title="activity&#45;bar&#45;item.tsx">
<path fill="#bbfeff" stroke="black" d="M152.08,-81.88C152.08,-81.88 69.92,-81.88 69.92,-81.88 66.96,-81.88 64,-78.92 64,-75.96 64,-75.96 64,-70.04 64,-70.04 64,-67.08 66.96,-64.12 69.92,-64.12 69.92,-64.12 152.08,-64.12 152.08,-64.12 155.04,-64.12 158,-67.08 158,-70.04 158,-70.04 158,-75.96 158,-75.96 158,-78.92 155.04,-81.88 152.08,-81.88"/>
<text text-anchor="start" x="72" y="-69.33" font-family="Helvetica,sans-Serif" font-size="9.00">activity&#45;bar&#45;item.tsx</text>
</a>
</g>
</g>
<!-- @/lib/utils -->
<g id="node2" class="node">
<title>@/lib/utils</title>
<g id="a_node2"><a xlink:title="utils">
<path fill="#ffffcc" stroke="black" d="M286.08,-81.88C286.08,-81.88 243.92,-81.88 243.92,-81.88 240.96,-81.88 238,-78.92 238,-75.96 238,-75.96 238,-70.04 238,-70.04 238,-67.08 240.96,-64.12 243.92,-64.12 243.92,-64.12 286.08,-64.12 286.08,-64.12 289.04,-64.12 292,-67.08 292,-70.04 292,-70.04 292,-75.96 292,-75.96 292,-78.92 289.04,-81.88 286.08,-81.88"/>
<text text-anchor="start" x="256.75" y="-69.33" font-family="Helvetica,sans-Serif" font-size="9.00">utils</text>
</a>
</g>
</g>
<!-- ../../SML/apps/web/components/activity&#45;bar/activity&#45;bar&#45;item.tsx&#45;&gt;@/lib/utils -->
<g id="edge1" class="edge">
<title>../../SML/apps/web/components/activity&#45;bar/activity&#45;bar&#45;item.tsx&#45;&gt;@/lib/utils</title>
<path fill="none" stroke="#000000" stroke-width="2" stroke-opacity="0.200000" d="M158.43,-73C181.09,-73 207.91,-73 228.85,-73"/>
<polygon fill="#000000" fill-opacity="0.200000" stroke="#000000" stroke-width="2" stroke-opacity="0.200000" points="228.7,-75.1 234.7,-73 228.7,-70.9 228.7,-75.1"/>
</g>
</g>
</svg>
