<?xml version="1.0" encoding="UTF-8" standalone="no"?>
<!DOCTYPE svg PUBLIC "-//W3C//DTD SVG 1.1//EN"
 "http://www.w3.org/Graphics/SVG/1.1/DTD/svg11.dtd">
<!-- Generated by graphviz version 12.1.0 (20240811.2233)
 -->
<!-- Title: dependency&#45;cruiser output Pages: 1 -->
<svg width="330pt" height="314pt"
 viewBox="0.00 0.00 329.50 314.00" xmlns="http://www.w3.org/2000/svg" xmlns:xlink="http://www.w3.org/1999/xlink">
<g id="graph0" class="graph" transform="scale(1 1) rotate(0) translate(4 310)">
<title>dependency&#45;cruiser output</title>
<polygon fill="white" stroke="none" points="-4,4 -4,-310 325.5,-310 325.5,4 -4,4"/>
<g id="clust1" class="cluster">
<title>cluster_..</title>
<path fill="#ffffff" stroke="black" stroke-width="2" d="M20,-8C20,-8 207.5,-8 207.5,-8 213.5,-8 219.5,-14 219.5,-20 219.5,-20 219.5,-286 219.5,-286 219.5,-292 213.5,-298 207.5,-298 207.5,-298 20,-298 20,-298 14,-298 8,-292 8,-286 8,-286 8,-20 8,-20 8,-14 14,-8 20,-8"/>
<text text-anchor="middle" x="113.75" y="-285.45" font-family="Helvetica,sans-Serif" font-weight="bold" font-size="9.00">..</text>
</g>
<g id="clust2" class="cluster">
<title>cluster_../..</title>
<path fill="#ffffff" stroke="black" stroke-width="2" d="M28,-16C28,-16 199.5,-16 199.5,-16 205.5,-16 211.5,-22 211.5,-28 211.5,-28 211.5,-260 211.5,-260 211.5,-266 205.5,-272 199.5,-272 199.5,-272 28,-272 28,-272 22,-272 16,-266 16,-260 16,-260 16,-28 16,-28 16,-22 22,-16 28,-16"/>
<text text-anchor="middle" x="113.75" y="-259.45" font-family="Helvetica,sans-Serif" font-weight="bold" font-size="9.00">..</text>
</g>
<g id="clust3" class="cluster">
<title>cluster_../../SML</title>
<path fill="#ffffff" stroke="black" stroke-width="2" d="M36,-24C36,-24 191.5,-24 191.5,-24 197.5,-24 203.5,-30 203.5,-36 203.5,-36 203.5,-234 203.5,-234 203.5,-240 197.5,-246 191.5,-246 191.5,-246 36,-246 36,-246 30,-246 24,-240 24,-234 24,-234 24,-36 24,-36 24,-30 30,-24 36,-24"/>
<text text-anchor="middle" x="113.75" y="-233.45" font-family="Helvetica,sans-Serif" font-weight="bold" font-size="9.00">SML</text>
</g>
<g id="clust4" class="cluster">
<title>cluster_../../SML/apps</title>
<path fill="#ffffff" stroke="black" stroke-width="2" d="M44,-32C44,-32 183.5,-32 183.5,-32 189.5,-32 195.5,-38 195.5,-44 195.5,-44 195.5,-208 195.5,-208 195.5,-214 189.5,-220 183.5,-220 183.5,-220 44,-220 44,-220 38,-220 32,-214 32,-208 32,-208 32,-44 32,-44 32,-38 38,-32 44,-32"/>
<text text-anchor="middle" x="113.75" y="-207.45" font-family="Helvetica,sans-Serif" font-weight="bold" font-size="9.00">apps</text>
</g>
<g id="clust5" class="cluster">
<title>cluster_../../SML/apps/web</title>
<path fill="#ffffff" stroke="black" stroke-width="2" d="M52,-40C52,-40 175.5,-40 175.5,-40 181.5,-40 187.5,-46 187.5,-52 187.5,-52 187.5,-182 187.5,-182 187.5,-188 181.5,-194 175.5,-194 175.5,-194 52,-194 52,-194 46,-194 40,-188 40,-182 40,-182 40,-52 40,-52 40,-46 46,-40 52,-40"/>
<text text-anchor="middle" x="113.75" y="-181.45" font-family="Helvetica,sans-Serif" font-weight="bold" font-size="9.00">web</text>
</g>
<g id="clust6" class="cluster">
<title>cluster_../../SML/apps/web/components</title>
<path fill="#ffffff" stroke="black" stroke-width="2" d="M60,-48C60,-48 167.5,-48 167.5,-48 173.5,-48 179.5,-54 179.5,-60 179.5,-60 179.5,-156 179.5,-156 179.5,-162 173.5,-168 167.5,-168 167.5,-168 60,-168 60,-168 54,-168 48,-162 48,-156 48,-156 48,-60 48,-60 48,-54 54,-48 60,-48"/>
<text text-anchor="middle" x="113.75" y="-155.45" font-family="Helvetica,sans-Serif" font-weight="bold" font-size="9.00">components</text>
</g>
<g id="clust7" class="cluster">
<title>cluster_../../SML/apps/web/components/data&#45;preview</title>
<path fill="#ffffff" stroke="black" stroke-width="2" d="M68,-56C68,-56 159.5,-56 159.5,-56 165.5,-56 171.5,-62 171.5,-68 171.5,-68 171.5,-130 171.5,-130 171.5,-136 165.5,-142 159.5,-142 159.5,-142 68,-142 68,-142 62,-142 56,-136 56,-130 56,-130 56,-68 56,-68 56,-62 62,-56 68,-56"/>
<text text-anchor="middle" x="113.75" y="-129.45" font-family="Helvetica,sans-Serif" font-weight="bold" font-size="9.00">data&#45;preview</text>
</g>
<g id="clust8" class="cluster">
<title>cluster_../../SML/apps/web/components/data&#45;preview/table&#45;utilities</title>
<path fill="#ffffff" stroke="black" stroke-width="2" d="M76,-64C76,-64 151.5,-64 151.5,-64 157.5,-64 163.5,-70 163.5,-76 163.5,-76 163.5,-104 163.5,-104 163.5,-110 157.5,-116 151.5,-116 151.5,-116 76,-116 76,-116 70,-116 64,-110 64,-104 64,-104 64,-76 64,-76 64,-70 70,-64 76,-64"/>
<text text-anchor="middle" x="113.75" y="-103.45" font-family="Helvetica,sans-Serif" font-weight="bold" font-size="9.00">table&#45;utilities</text>
</g>
<g id="clust9" class="cluster">
<title>cluster_@</title>
<path fill="#ffffff" stroke="black" stroke-width="2" d="M239.5,-56C239.5,-56 301.5,-56 301.5,-56 307.5,-56 313.5,-62 313.5,-68 313.5,-68 313.5,-130 313.5,-130 313.5,-136 307.5,-142 301.5,-142 301.5,-142 239.5,-142 239.5,-142 233.5,-142 227.5,-136 227.5,-130 227.5,-130 227.5,-68 227.5,-68 227.5,-62 233.5,-56 239.5,-56"/>
<text text-anchor="middle" x="270.5" y="-129.45" font-family="Helvetica,sans-Serif" font-weight="bold" font-size="9.00">@</text>
</g>
<g id="clust10" class="cluster">
<title>cluster_@/lib</title>
<path fill="#ffffff" stroke="black" stroke-width="2" d="M247.5,-64C247.5,-64 293.5,-64 293.5,-64 299.5,-64 305.5,-70 305.5,-76 305.5,-76 305.5,-104 305.5,-104 305.5,-110 299.5,-116 293.5,-116 293.5,-116 247.5,-116 247.5,-116 241.5,-116 235.5,-110 235.5,-104 235.5,-104 235.5,-76 235.5,-76 235.5,-70 241.5,-64 247.5,-64"/>
<text text-anchor="middle" x="270.5" y="-103.45" font-family="Helvetica,sans-Serif" font-weight="bold" font-size="9.00">lib</text>
</g>
<!-- ../../SML/apps/web/components/data&#45;preview/table&#45;utilities/generate&#45;cell.tsx -->
<g id="node1" class="node">
<title>../../SML/apps/web/components/data&#45;preview/table&#45;utilities/generate&#45;cell.tsx</title>
<g id="a_node1"><a xlink:href="../../SML/apps/web/components/data-preview/table-utilities/generate-cell.tsx" xlink:title="generate&#45;cell.tsx">
<path fill="#bbfeff" stroke="black" d="M149.58,-89.88C149.58,-89.88 77.92,-89.88 77.92,-89.88 74.96,-89.88 72,-86.92 72,-83.96 72,-83.96 72,-78.04 72,-78.04 72,-75.08 74.96,-72.12 77.92,-72.12 77.92,-72.12 149.58,-72.12 149.58,-72.12 152.54,-72.12 155.5,-75.08 155.5,-78.04 155.5,-78.04 155.5,-83.96 155.5,-83.96 155.5,-86.92 152.54,-89.88 149.58,-89.88"/>
<text text-anchor="start" x="80" y="-77.33" font-family="Helvetica,sans-Serif" font-size="9.00">generate&#45;cell.tsx</text>
</a>
</g>
</g>
<!-- @/lib/utils -->
<g id="node2" class="node">
<title>@/lib/utils</title>
<g id="a_node2"><a xlink:title="utils">
<path fill="#ffffcc" stroke="black" d="M291.58,-89.88C291.58,-89.88 249.42,-89.88 249.42,-89.88 246.46,-89.88 243.5,-86.92 243.5,-83.96 243.5,-83.96 243.5,-78.04 243.5,-78.04 243.5,-75.08 246.46,-72.12 249.42,-72.12 249.42,-72.12 291.58,-72.12 291.58,-72.12 294.54,-72.12 297.5,-75.08 297.5,-78.04 297.5,-78.04 297.5,-83.96 297.5,-83.96 297.5,-86.92 294.54,-89.88 291.58,-89.88"/>
<text text-anchor="start" x="262.25" y="-77.33" font-family="Helvetica,sans-Serif" font-size="9.00">utils</text>
</a>
</g>
</g>
<!-- ../../SML/apps/web/components/data&#45;preview/table&#45;utilities/generate&#45;cell.tsx&#45;&gt;@/lib/utils -->
<g id="edge1" class="edge">
<title>../../SML/apps/web/components/data&#45;preview/table&#45;utilities/generate&#45;cell.tsx&#45;&gt;@/lib/utils</title>
<path fill="none" stroke="#000000" stroke-width="2" stroke-opacity="0.200000" d="M155.81,-81C180.32,-81 211.11,-81 234.46,-81"/>
<polygon fill="#000000" fill-opacity="0.200000" stroke="#000000" stroke-width="2" stroke-opacity="0.200000" points="234.31,-83.1 240.31,-81 234.31,-78.9 234.31,-83.1"/>
</g>
</g>
</svg>
