<?xml version="1.0" encoding="UTF-8" standalone="no"?>
<!DOCTYPE svg PUBLIC "-//W3C//DTD SVG 1.1//EN"
 "http://www.w3.org/Graphics/SVG/1.1/DTD/svg11.dtd">
<!-- Generated by graphviz version 12.1.0 (20240811.2233)
 -->
<!-- Title: dependency&#45;cruiser output Pages: 1 -->
<svg width="376pt" height="280pt"
 viewBox="0.00 0.00 376.00 280.00" xmlns="http://www.w3.org/2000/svg" xmlns:xlink="http://www.w3.org/1999/xlink">
<g id="graph0" class="graph" transform="scale(1 1) rotate(0) translate(4 276)">
<title>dependency&#45;cruiser output</title>
<polygon fill="white" stroke="none" points="-4,4 -4,-276 372,-276 372,4 -4,4"/>
<g id="clust1" class="cluster">
<title>cluster_..</title>
<path fill="#ffffff" stroke="black" stroke-width="2" d="M20,-8C20,-8 254,-8 254,-8 260,-8 266,-14 266,-20 266,-20 266,-252 266,-252 266,-258 260,-264 254,-264 254,-264 20,-264 20,-264 14,-264 8,-258 8,-252 8,-252 8,-20 8,-20 8,-14 14,-8 20,-8"/>
<text text-anchor="middle" x="137" y="-251.45" font-family="Helvetica,sans-Serif" font-weight="bold" font-size="9.00">..</text>
</g>
<g id="clust2" class="cluster">
<title>cluster_../..</title>
<path fill="#ffffff" stroke="black" stroke-width="2" d="M28,-16C28,-16 246,-16 246,-16 252,-16 258,-22 258,-28 258,-28 258,-226 258,-226 258,-232 252,-238 246,-238 246,-238 28,-238 28,-238 22,-238 16,-232 16,-226 16,-226 16,-28 16,-28 16,-22 22,-16 28,-16"/>
<text text-anchor="middle" x="137" y="-225.45" font-family="Helvetica,sans-Serif" font-weight="bold" font-size="9.00">..</text>
</g>
<g id="clust3" class="cluster">
<title>cluster_../../SML</title>
<path fill="#ffffff" stroke="black" stroke-width="2" d="M36,-24C36,-24 238,-24 238,-24 244,-24 250,-30 250,-36 250,-36 250,-200 250,-200 250,-206 244,-212 238,-212 238,-212 36,-212 36,-212 30,-212 24,-206 24,-200 24,-200 24,-36 24,-36 24,-30 30,-24 36,-24"/>
<text text-anchor="middle" x="137" y="-199.45" font-family="Helvetica,sans-Serif" font-weight="bold" font-size="9.00">SML</text>
</g>
<g id="clust4" class="cluster">
<title>cluster_../../SML/apps</title>
<path fill="#ffffff" stroke="black" stroke-width="2" d="M44,-32C44,-32 230,-32 230,-32 236,-32 242,-38 242,-44 242,-44 242,-174 242,-174 242,-180 236,-186 230,-186 230,-186 44,-186 44,-186 38,-186 32,-180 32,-174 32,-174 32,-44 32,-44 32,-38 38,-32 44,-32"/>
<text text-anchor="middle" x="137" y="-173.45" font-family="Helvetica,sans-Serif" font-weight="bold" font-size="9.00">apps</text>
</g>
<g id="clust5" class="cluster">
<title>cluster_../../SML/apps/web</title>
<path fill="#ffffff" stroke="black" stroke-width="2" d="M52,-40C52,-40 222,-40 222,-40 228,-40 234,-46 234,-52 234,-52 234,-148 234,-148 234,-154 228,-160 222,-160 222,-160 52,-160 52,-160 46,-160 40,-154 40,-148 40,-148 40,-52 40,-52 40,-46 46,-40 52,-40"/>
<text text-anchor="middle" x="137" y="-147.45" font-family="Helvetica,sans-Serif" font-weight="bold" font-size="9.00">web</text>
</g>
<g id="clust6" class="cluster">
<title>cluster_../../SML/apps/web/components</title>
<path fill="#ffffff" stroke="black" stroke-width="2" d="M60,-48C60,-48 214,-48 214,-48 220,-48 226,-54 226,-60 226,-60 226,-122 226,-122 226,-128 220,-134 214,-134 214,-134 60,-134 60,-134 54,-134 48,-128 48,-122 48,-122 48,-60 48,-60 48,-54 54,-48 60,-48"/>
<text text-anchor="middle" x="137" y="-121.45" font-family="Helvetica,sans-Serif" font-weight="bold" font-size="9.00">components</text>
</g>
<g id="clust7" class="cluster">
<title>cluster_../../SML/apps/web/components/breadcrumb</title>
<path fill="#ffffff" stroke="black" stroke-width="2" d="M68,-56C68,-56 206,-56 206,-56 212,-56 218,-62 218,-68 218,-68 218,-96 218,-96 218,-102 212,-108 206,-108 206,-108 68,-108 68,-108 62,-108 56,-102 56,-96 56,-96 56,-68 56,-68 56,-62 62,-56 68,-56"/>
<text text-anchor="middle" x="137" y="-95.45" font-family="Helvetica,sans-Serif" font-weight="bold" font-size="9.00">breadcrumb</text>
</g>
<g id="clust8" class="cluster">
<title>cluster_@</title>
<path fill="#ffffff" stroke="black" stroke-width="2" d="M286,-87C286,-87 348,-87 348,-87 354,-87 360,-93 360,-99 360,-99 360,-161 360,-161 360,-167 354,-173 348,-173 348,-173 286,-173 286,-173 280,-173 274,-167 274,-161 274,-161 274,-99 274,-99 274,-93 280,-87 286,-87"/>
<text text-anchor="middle" x="317" y="-160.45" font-family="Helvetica,sans-Serif" font-weight="bold" font-size="9.00">@</text>
</g>
<g id="clust9" class="cluster">
<title>cluster_@/lib</title>
<path fill="#ffffff" stroke="black" stroke-width="2" d="M294,-95C294,-95 340,-95 340,-95 346,-95 352,-101 352,-107 352,-107 352,-135 352,-135 352,-141 346,-147 340,-147 340,-147 294,-147 294,-147 288,-147 282,-141 282,-135 282,-135 282,-107 282,-107 282,-101 288,-95 294,-95"/>
<text text-anchor="middle" x="317" y="-134.45" font-family="Helvetica,sans-Serif" font-weight="bold" font-size="9.00">lib</text>
</g>
<g id="clust10" class="cluster">
<title>cluster_node_modules</title>
<path fill="#ffffff" stroke="black" stroke-width="2" d="M290,-27C290,-27 345,-27 345,-27 351,-27 357,-33 357,-39 357,-39 357,-67 357,-67 357,-73 351,-79 345,-79 345,-79 290,-79 290,-79 284,-79 278,-73 278,-67 278,-67 278,-39 278,-39 278,-33 284,-27 290,-27"/>
<text text-anchor="middle" x="317.5" y="-66.45" font-family="Helvetica,sans-Serif" font-weight="bold" font-size="9.00">node_modules</text>
</g>
<!-- ../../SML/apps/web/components/breadcrumb/breadcrumb.tsx -->
<g id="node1" class="node">
<title>../../SML/apps/web/components/breadcrumb/breadcrumb.tsx</title>
<g id="a_node1"><a xlink:href="../../SML/apps/web/components/breadcrumb/breadcrumb.tsx" xlink:title="breadcrumb.tsx">
<path fill="#bbfeff" stroke="black" d="M204.08,-81.88C204.08,-81.88 136.92,-81.88 136.92,-81.88 133.96,-81.88 131,-78.92 131,-75.96 131,-75.96 131,-70.04 131,-70.04 131,-67.08 133.96,-64.12 136.92,-64.12 136.92,-64.12 204.08,-64.12 204.08,-64.12 207.04,-64.12 210,-67.08 210,-70.04 210,-70.04 210,-75.96 210,-75.96 210,-78.92 207.04,-81.88 204.08,-81.88"/>
<text text-anchor="start" x="139" y="-69.33" font-family="Helvetica,sans-Serif" font-size="9.00">breadcrumb.tsx</text>
</a>
</g>
</g>
<!-- @/lib/utils -->
<g id="node2" class="node">
<title>@/lib/utils</title>
<g id="a_node2"><a xlink:title="utils">
<path fill="#ffffcc" stroke="black" d="M338.08,-120.88C338.08,-120.88 295.92,-120.88 295.92,-120.88 292.96,-120.88 290,-117.92 290,-114.96 290,-114.96 290,-109.04 290,-109.04 290,-106.08 292.96,-103.12 295.92,-103.12 295.92,-103.12 338.08,-103.12 338.08,-103.12 341.04,-103.12 344,-106.08 344,-109.04 344,-109.04 344,-114.96 344,-114.96 344,-117.92 341.04,-120.88 338.08,-120.88"/>
<text text-anchor="start" x="308.75" y="-108.33" font-family="Helvetica,sans-Serif" font-size="9.00">utils</text>
</a>
</g>
</g>
<!-- ../../SML/apps/web/components/breadcrumb/breadcrumb.tsx&#45;&gt;@/lib/utils -->
<g id="edge1" class="edge">
<title>../../SML/apps/web/components/breadcrumb/breadcrumb.tsx&#45;&gt;@/lib/utils</title>
<path fill="none" stroke="#000000" stroke-width="2" stroke-opacity="0.200000" d="M206.11,-82.34C228.81,-88.47 258.4,-96.45 281.15,-102.59"/>
<polygon fill="#000000" fill-opacity="0.200000" stroke="#000000" stroke-width="2" stroke-opacity="0.200000" points="280.55,-104.61 286.89,-104.14 281.65,-100.55 280.55,-104.61"/>
</g>
<!-- node_modules/.pnpm -->
<g id="node3" class="node">
<title>node_modules/.pnpm</title>
<g id="a_node3"><a xlink:href="https://www.npmjs.com/package/.pnpm" xlink:title=".pnpm">
<polygon fill="#c40b0a" fill-opacity="0.101961" stroke="black" points="344,-52.88 291.97,-52.88 290,-50.9 290,-35.12 342.03,-35.12 344,-37.1 344,-52.88"/>
<polyline fill="none" stroke="black" points="342.03,-50.9 290,-50.9"/>
<polyline fill="none" stroke="black" points="342.03,-50.9 342.03,-35.12"/>
<polyline fill="none" stroke="black" points="342.03,-50.9 344,-52.88"/>
<text text-anchor="start" x="304.25" y="-40.33" font-family="Helvetica,sans-Serif" font-size="9.00" fill="#c40b0a">.pnpm</text>
</a>
</g>
</g>
<!-- ../../SML/apps/web/components/breadcrumb/breadcrumb.tsx&#45;&gt;node_modules/.pnpm -->
<g id="edge2" class="edge">
<title>../../SML/apps/web/components/breadcrumb/breadcrumb.tsx&#45;&gt;node_modules/.pnpm</title>
<path fill="none" stroke="#000000" stroke-opacity="0.200000" d="M210.22,-65.23C232.66,-60.73 260.63,-55.11 282.18,-50.79"/>
<polygon fill="#000000" fill-opacity="0.200000" stroke="#000000" stroke-opacity="0.200000" points="282.56,-52.85 288.03,-49.61 281.73,-48.74 282.56,-52.85"/>
</g>
<!-- ../../SML/apps/web/components/breadcrumb/index.tsx -->
<g id="node4" class="node">
<title>../../SML/apps/web/components/breadcrumb/index.tsx</title>
<g id="a_node4"><a xlink:href="../../SML/apps/web/components/breadcrumb/index.tsx" xlink:title="index.tsx">
<path fill="#bbfeff" stroke="black" d="M112.08,-81.88C112.08,-81.88 69.92,-81.88 69.92,-81.88 66.96,-81.88 64,-78.92 64,-75.96 64,-75.96 64,-70.04 64,-70.04 64,-67.08 66.96,-64.12 69.92,-64.12 69.92,-64.12 112.08,-64.12 112.08,-64.12 115.04,-64.12 118,-67.08 118,-70.04 118,-70.04 118,-75.96 118,-75.96 118,-78.92 115.04,-81.88 112.08,-81.88"/>
<text text-anchor="start" x="73" y="-69.33" font-family="Helvetica,sans-Serif" font-size="9.00">index.tsx</text>
</a>
</g>
</g>
<!-- ../../SML/apps/web/components/breadcrumb/index.tsx&#45;&gt;../../SML/apps/web/components/breadcrumb/breadcrumb.tsx -->
<g id="edge3" class="edge">
<title>../../SML/apps/web/components/breadcrumb/index.tsx&#45;&gt;../../SML/apps/web/components/breadcrumb/breadcrumb.tsx</title>
<path fill="none" stroke="#000000" stroke-width="2" stroke-opacity="0.200000" d="M118.24,-73C120.01,-73 121.81,-73 123.64,-73"/>
<polygon fill="#000000" fill-opacity="0.200000" stroke="#000000" stroke-width="2" stroke-opacity="0.200000" points="129.76,-75.1 123.76,-73 129.76,-70.9 129.76,-75.1"/>
</g>
</g>
</svg>
