<?xml version="1.0" encoding="UTF-8" standalone="no"?>
<!DOCTYPE svg PUBLIC "-//W3C//DTD SVG 1.1//EN"
 "http://www.w3.org/Graphics/SVG/1.1/DTD/svg11.dtd">
<!-- Generated by graphviz version 12.1.0 (20240811.2233)
 -->
<!-- Title: dependency&#45;cruiser output Pages: 1 -->
<svg width="409pt" height="310pt"
 viewBox="0.00 0.00 409.00 310.00" xmlns="http://www.w3.org/2000/svg" xmlns:xlink="http://www.w3.org/1999/xlink">
<g id="graph0" class="graph" transform="scale(1 1) rotate(0) translate(4 306)">
<title>dependency&#45;cruiser output</title>
<polygon fill="white" stroke="none" points="-4,4 -4,-306 405,-306 405,4 -4,4"/>
<g id="clust1" class="cluster">
<title>cluster_..</title>
<path fill="#ffffff" stroke="black" stroke-width="2" d="M20,-8C20,-8 287,-8 287,-8 293,-8 299,-14 299,-20 299,-20 299,-282 299,-282 299,-288 293,-294 287,-294 287,-294 20,-294 20,-294 14,-294 8,-288 8,-282 8,-282 8,-20 8,-20 8,-14 14,-8 20,-8"/>
<text text-anchor="middle" x="153.5" y="-281.45" font-family="Helvetica,sans-Serif" font-weight="bold" font-size="9.00">..</text>
</g>
<g id="clust2" class="cluster">
<title>cluster_../..</title>
<path fill="#ffffff" stroke="black" stroke-width="2" d="M28,-16C28,-16 279,-16 279,-16 285,-16 291,-22 291,-28 291,-28 291,-256 291,-256 291,-262 285,-268 279,-268 279,-268 28,-268 28,-268 22,-268 16,-262 16,-256 16,-256 16,-28 16,-28 16,-22 22,-16 28,-16"/>
<text text-anchor="middle" x="153.5" y="-255.45" font-family="Helvetica,sans-Serif" font-weight="bold" font-size="9.00">..</text>
</g>
<g id="clust3" class="cluster">
<title>cluster_../../SML</title>
<path fill="#ffffff" stroke="black" stroke-width="2" d="M36,-24C36,-24 271,-24 271,-24 277,-24 283,-30 283,-36 283,-36 283,-230 283,-230 283,-236 277,-242 271,-242 271,-242 36,-242 36,-242 30,-242 24,-236 24,-230 24,-230 24,-36 24,-36 24,-30 30,-24 36,-24"/>
<text text-anchor="middle" x="153.5" y="-229.45" font-family="Helvetica,sans-Serif" font-weight="bold" font-size="9.00">SML</text>
</g>
<g id="clust4" class="cluster">
<title>cluster_../../SML/apps</title>
<path fill="#ffffff" stroke="black" stroke-width="2" d="M44,-32C44,-32 263,-32 263,-32 269,-32 275,-38 275,-44 275,-44 275,-204 275,-204 275,-210 269,-216 263,-216 263,-216 44,-216 44,-216 38,-216 32,-210 32,-204 32,-204 32,-44 32,-44 32,-38 38,-32 44,-32"/>
<text text-anchor="middle" x="153.5" y="-203.45" font-family="Helvetica,sans-Serif" font-weight="bold" font-size="9.00">apps</text>
</g>
<g id="clust5" class="cluster">
<title>cluster_../../SML/apps/web</title>
<path fill="#ffffff" stroke="black" stroke-width="2" d="M52,-40C52,-40 255,-40 255,-40 261,-40 267,-46 267,-52 267,-52 267,-178 267,-178 267,-184 261,-190 255,-190 255,-190 52,-190 52,-190 46,-190 40,-184 40,-178 40,-178 40,-52 40,-52 40,-46 46,-40 52,-40"/>
<text text-anchor="middle" x="153.5" y="-177.45" font-family="Helvetica,sans-Serif" font-weight="bold" font-size="9.00">web</text>
</g>
<g id="clust6" class="cluster">
<title>cluster_../../SML/apps/web/components</title>
<path fill="#ffffff" stroke="black" stroke-width="2" d="M60,-48C60,-48 247,-48 247,-48 253,-48 259,-54 259,-60 259,-60 259,-152 259,-152 259,-158 253,-164 247,-164 247,-164 60,-164 60,-164 54,-164 48,-158 48,-152 48,-152 48,-60 48,-60 48,-54 54,-48 60,-48"/>
<text text-anchor="middle" x="153.5" y="-151.45" font-family="Helvetica,sans-Serif" font-weight="bold" font-size="9.00">components</text>
</g>
<g id="clust7" class="cluster">
<title>cluster_../../SML/apps/web/components/data&#45;preview</title>
<path fill="#ffffff" stroke="black" stroke-width="2" d="M68,-71C68,-71 151,-71 151,-71 157,-71 163,-77 163,-83 163,-83 163,-111 163,-111 163,-117 157,-123 151,-123 151,-123 68,-123 68,-123 62,-123 56,-117 56,-111 56,-111 56,-83 56,-83 56,-77 62,-71 68,-71"/>
<text text-anchor="middle" x="109.5" y="-110.45" font-family="Helvetica,sans-Serif" font-weight="bold" font-size="9.00">data&#45;preview</text>
</g>
<g id="clust8" class="cluster">
<title>cluster_../../SML/apps/web/components/ui</title>
<path fill="#ffffff" stroke="black" stroke-width="2" d="M183,-56C183,-56 239,-56 239,-56 245,-56 251,-62 251,-68 251,-68 251,-126 251,-126 251,-132 245,-138 239,-138 239,-138 183,-138 183,-138 177,-138 171,-132 171,-126 171,-126 171,-68 171,-68 171,-62 177,-56 183,-56"/>
<text text-anchor="middle" x="211" y="-125.45" font-family="Helvetica,sans-Serif" font-weight="bold" font-size="9.00">ui</text>
</g>
<g id="clust9" class="cluster">
<title>cluster_@</title>
<path fill="#ffffff" stroke="black" stroke-width="2" d="M319,-84C319,-84 381,-84 381,-84 387,-84 393,-90 393,-96 393,-96 393,-158 393,-158 393,-164 387,-170 381,-170 381,-170 319,-170 319,-170 313,-170 307,-164 307,-158 307,-158 307,-96 307,-96 307,-90 313,-84 319,-84"/>
<text text-anchor="middle" x="350" y="-157.45" font-family="Helvetica,sans-Serif" font-weight="bold" font-size="9.00">@</text>
</g>
<g id="clust10" class="cluster">
<title>cluster_@/lib</title>
<path fill="#ffffff" stroke="black" stroke-width="2" d="M327,-92C327,-92 373,-92 373,-92 379,-92 385,-98 385,-104 385,-104 385,-132 385,-132 385,-138 379,-144 373,-144 373,-144 327,-144 327,-144 321,-144 315,-138 315,-132 315,-132 315,-104 315,-104 315,-98 321,-92 327,-92"/>
<text text-anchor="middle" x="350" y="-131.45" font-family="Helvetica,sans-Serif" font-weight="bold" font-size="9.00">lib</text>
</g>
<g id="clust11" class="cluster">
<title>cluster_node_modules</title>
<path fill="#ffffff" stroke="black" stroke-width="2" d="M323,-24C323,-24 378,-24 378,-24 384,-24 390,-30 390,-36 390,-36 390,-64 390,-64 390,-70 384,-76 378,-76 378,-76 323,-76 323,-76 317,-76 311,-70 311,-64 311,-64 311,-36 311,-36 311,-30 317,-24 323,-24"/>
<text text-anchor="middle" x="350.5" y="-63.45" font-family="Helvetica,sans-Serif" font-weight="bold" font-size="9.00">node_modules</text>
</g>
<!-- ../../SML/apps/web/components/data&#45;preview/loading&#45;screen.tsx -->
<g id="node1" class="node">
<title>../../SML/apps/web/components/data&#45;preview/loading&#45;screen.tsx</title>
<g id="a_node1"><a xlink:href="../../SML/apps/web/components/data-preview/loading-screen.tsx" xlink:title="loading&#45;screen.tsx">
<path fill="#bbfeff" stroke="black" d="M149.08,-96.88C149.08,-96.88 69.92,-96.88 69.92,-96.88 66.96,-96.88 64,-93.92 64,-90.96 64,-90.96 64,-85.04 64,-85.04 64,-82.08 66.96,-79.12 69.92,-79.12 69.92,-79.12 149.08,-79.12 149.08,-79.12 152.04,-79.12 155,-82.08 155,-85.04 155,-85.04 155,-90.96 155,-90.96 155,-93.92 152.04,-96.88 149.08,-96.88"/>
<text text-anchor="start" x="72" y="-84.33" font-family="Helvetica,sans-Serif" font-size="9.00">loading&#45;screen.tsx</text>
</a>
</g>
</g>
<!-- ../../SML/apps/web/components/ui/skeleton.tsx -->
<g id="node2" class="node">
<title>../../SML/apps/web/components/ui/skeleton.tsx</title>
<g id="a_node2"><a xlink:href="../../SML/apps/web/components/ui/skeleton.tsx" xlink:title="skeleton.tsx">
<path fill="#bbfeff" stroke="black" d="M237.08,-111.88C237.08,-111.88 184.92,-111.88 184.92,-111.88 181.96,-111.88 179,-108.92 179,-105.96 179,-105.96 179,-100.04 179,-100.04 179,-97.08 181.96,-94.12 184.92,-94.12 184.92,-94.12 237.08,-94.12 237.08,-94.12 240.04,-94.12 243,-97.08 243,-100.04 243,-100.04 243,-105.96 243,-105.96 243,-108.92 240.04,-111.88 237.08,-111.88"/>
<text text-anchor="start" x="187" y="-99.33" font-family="Helvetica,sans-Serif" font-size="9.00">skeleton.tsx</text>
</a>
</g>
</g>
<!-- ../../SML/apps/web/components/data&#45;preview/loading&#45;screen.tsx&#45;&gt;../../SML/apps/web/components/ui/skeleton.tsx -->
<g id="edge1" class="edge">
<title>../../SML/apps/web/components/data&#45;preview/loading&#45;screen.tsx&#45;&gt;../../SML/apps/web/components/ui/skeleton.tsx</title>
<path fill="none" stroke="#000000" stroke-width="2" stroke-opacity="0.200000" d="M155.3,-94.75C160.08,-95.47 164.92,-96.2 169.64,-96.92"/>
<polygon fill="#000000" fill-opacity="0.200000" stroke="#000000" stroke-width="2" stroke-opacity="0.200000" points="169.29,-98.99 175.54,-97.8 169.92,-94.83 169.29,-98.99"/>
</g>
<!-- ../../SML/apps/web/components/ui/table.tsx -->
<g id="node3" class="node">
<title>../../SML/apps/web/components/ui/table.tsx</title>
<g id="a_node3"><a xlink:href="../../SML/apps/web/components/ui/table.tsx" xlink:title="table.tsx">
<path fill="#bbfeff" stroke="black" d="M232.08,-81.88C232.08,-81.88 189.92,-81.88 189.92,-81.88 186.96,-81.88 184,-78.92 184,-75.96 184,-75.96 184,-70.04 184,-70.04 184,-67.08 186.96,-64.12 189.92,-64.12 189.92,-64.12 232.08,-64.12 232.08,-64.12 235.04,-64.12 238,-67.08 238,-70.04 238,-70.04 238,-75.96 238,-75.96 238,-78.92 235.04,-81.88 232.08,-81.88"/>
<text text-anchor="start" x="194.12" y="-69.33" font-family="Helvetica,sans-Serif" font-size="9.00">table.tsx</text>
</a>
</g>
</g>
<!-- ../../SML/apps/web/components/data&#45;preview/loading&#45;screen.tsx&#45;&gt;../../SML/apps/web/components/ui/table.tsx -->
<g id="edge2" class="edge">
<title>../../SML/apps/web/components/data&#45;preview/loading&#45;screen.tsx&#45;&gt;../../SML/apps/web/components/ui/table.tsx</title>
<path fill="none" stroke="#000000" stroke-width="2" stroke-opacity="0.200000" d="M155.3,-81.25C161.82,-80.26 168.45,-79.26 174.74,-78.32"/>
<polygon fill="#000000" fill-opacity="0.200000" stroke="#000000" stroke-width="2" stroke-opacity="0.200000" points="175.05,-80.39 180.67,-77.42 174.42,-76.24 175.05,-80.39"/>
</g>
<!-- @/lib/utils -->
<g id="node4" class="node">
<title>@/lib/utils</title>
<g id="a_node4"><a xlink:title="utils">
<path fill="#ffffcc" stroke="black" d="M371.08,-117.88C371.08,-117.88 328.92,-117.88 328.92,-117.88 325.96,-117.88 323,-114.92 323,-111.96 323,-111.96 323,-106.04 323,-106.04 323,-103.08 325.96,-100.12 328.92,-100.12 328.92,-100.12 371.08,-100.12 371.08,-100.12 374.04,-100.12 377,-103.08 377,-106.04 377,-106.04 377,-111.96 377,-111.96 377,-114.92 374.04,-117.88 371.08,-117.88"/>
<text text-anchor="start" x="341.75" y="-105.33" font-family="Helvetica,sans-Serif" font-size="9.00">utils</text>
</a>
</g>
</g>
<!-- ../../SML/apps/web/components/data&#45;preview/loading&#45;screen.tsx&#45;&gt;@/lib/utils -->
<g id="edge3" class="edge">
<title>../../SML/apps/web/components/data&#45;preview/loading&#45;screen.tsx&#45;&gt;@/lib/utils</title>
<path fill="none" stroke="#000000" stroke-width="2" stroke-opacity="0.200000" d="M117.45,-97.33C127.57,-110.05 147.74,-132.25 171,-141 224.25,-161.02 244.4,-156.98 299,-141 310.75,-137.56 322.35,-130.43 331.42,-123.77"/>
<polygon fill="#000000" fill-opacity="0.200000" stroke="#000000" stroke-width="2" stroke-opacity="0.200000" points="332.54,-125.56 336,-120.23 329.97,-122.24 332.54,-125.56"/>
</g>
<!-- node_modules/.pnpm -->
<g id="node5" class="node">
<title>node_modules/.pnpm</title>
<g id="a_node5"><a xlink:href="https://www.npmjs.com/package/.pnpm" xlink:title=".pnpm">
<polygon fill="#c40b0a" fill-opacity="0.101961" stroke="black" points="377,-49.88 324.97,-49.88 323,-47.9 323,-32.12 375.03,-32.12 377,-34.1 377,-49.88"/>
<polyline fill="none" stroke="black" points="375.03,-47.9 323,-47.9"/>
<polyline fill="none" stroke="black" points="375.03,-47.9 375.03,-32.12"/>
<polyline fill="none" stroke="black" points="375.03,-47.9 377,-49.88"/>
<text text-anchor="start" x="337.25" y="-37.33" font-family="Helvetica,sans-Serif" font-size="9.00" fill="#c40b0a">.pnpm</text>
</a>
</g>
</g>
<!-- ../../SML/apps/web/components/data&#45;preview/loading&#45;screen.tsx&#45;&gt;node_modules/.pnpm -->
<g id="edge4" class="edge">
<title>../../SML/apps/web/components/data&#45;preview/loading&#45;screen.tsx&#45;&gt;node_modules/.pnpm</title>
<path fill="none" stroke="#000000" stroke-opacity="0.200000" d="M122.69,-78.68C134.39,-70.31 152.89,-58.52 171,-53 219.54,-38.2 278.86,-37.43 315.28,-38.79"/>
<polygon fill="#000000" fill-opacity="0.200000" stroke="#000000" stroke-opacity="0.200000" points="315.09,-40.89 321.18,-39.05 315.27,-36.69 315.09,-40.89"/>
</g>
<!-- ../../SML/apps/web/components/ui/skeleton.tsx&#45;&gt;@/lib/utils -->
<g id="edge5" class="edge">
<title>../../SML/apps/web/components/ui/skeleton.tsx&#45;&gt;@/lib/utils</title>
<path fill="none" stroke="#000000" stroke-width="2" stroke-opacity="0.200000" d="M243.43,-104.38C264.44,-105.3 292.12,-106.51 313.86,-107.46"/>
<polygon fill="#000000" fill-opacity="0.200000" stroke="#000000" stroke-width="2" stroke-opacity="0.200000" points="313.67,-109.55 319.75,-107.72 313.85,-105.36 313.67,-109.55"/>
</g>
<!-- ../../SML/apps/web/components/ui/table.tsx&#45;&gt;@/lib/utils -->
<g id="edge6" class="edge">
<title>../../SML/apps/web/components/ui/table.tsx&#45;&gt;@/lib/utils</title>
<path fill="none" stroke="#000000" stroke-width="2" stroke-opacity="0.200000" d="M238.24,-75.95C255.69,-78.29 278.99,-82.16 299,-88 306.53,-90.2 314.47,-93.2 321.73,-96.23"/>
<polygon fill="#000000" fill-opacity="0.200000" stroke="#000000" stroke-width="2" stroke-opacity="0.200000" points="320.78,-98.11 327.12,-98.57 322.45,-94.26 320.78,-98.11"/>
</g>
<!-- ../../SML/apps/web/components/ui/table.tsx&#45;&gt;node_modules/.pnpm -->
<g id="edge7" class="edge">
<title>../../SML/apps/web/components/ui/table.tsx&#45;&gt;node_modules/.pnpm</title>
<path fill="none" stroke="#000000" stroke-opacity="0.200000" d="M238.41,-66.83C260.4,-61.69 291.83,-54.35 315.57,-48.81"/>
<polygon fill="#000000" fill-opacity="0.200000" stroke="#000000" stroke-opacity="0.200000" points="315.83,-50.91 321.19,-47.5 314.87,-46.82 315.83,-50.91"/>
</g>
</g>
</svg>
