<?xml version="1.0" encoding="UTF-8" standalone="no"?>
<!DOCTYPE svg PUBLIC "-//W3C//DTD SVG 1.1//EN"
 "http://www.w3.org/Graphics/SVG/1.1/DTD/svg11.dtd">
<!-- Generated by graphviz version 12.1.0 (20240811.2233)
 -->
<!-- Title: dependency&#45;cruiser output Pages: 1 -->
<svg width="309pt" height="280pt"
 viewBox="0.00 0.00 309.00 280.00" xmlns="http://www.w3.org/2000/svg" xmlns:xlink="http://www.w3.org/1999/xlink">
<g id="graph0" class="graph" transform="scale(1 1) rotate(0) translate(4 276)">
<title>dependency&#45;cruiser output</title>
<polygon fill="white" stroke="none" points="-4,4 -4,-276 305,-276 305,4 -4,4"/>
<g id="clust1" class="cluster">
<title>cluster_..</title>
<path fill="#ffffff" stroke="black" stroke-width="2" d="M20,-8C20,-8 187,-8 187,-8 193,-8 199,-14 199,-20 199,-20 199,-252 199,-252 199,-258 193,-264 187,-264 187,-264 20,-264 20,-264 14,-264 8,-258 8,-252 8,-252 8,-20 8,-20 8,-14 14,-8 20,-8"/>
<text text-anchor="middle" x="103.5" y="-251.45" font-family="Helvetica,sans-Serif" font-weight="bold" font-size="9.00">..</text>
</g>
<g id="clust2" class="cluster">
<title>cluster_../..</title>
<path fill="#ffffff" stroke="black" stroke-width="2" d="M28,-16C28,-16 179,-16 179,-16 185,-16 191,-22 191,-28 191,-28 191,-226 191,-226 191,-232 185,-238 179,-238 179,-238 28,-238 28,-238 22,-238 16,-232 16,-226 16,-226 16,-28 16,-28 16,-22 22,-16 28,-16"/>
<text text-anchor="middle" x="103.5" y="-225.45" font-family="Helvetica,sans-Serif" font-weight="bold" font-size="9.00">..</text>
</g>
<g id="clust3" class="cluster">
<title>cluster_../../SML</title>
<path fill="#ffffff" stroke="black" stroke-width="2" d="M36,-24C36,-24 171,-24 171,-24 177,-24 183,-30 183,-36 183,-36 183,-200 183,-200 183,-206 177,-212 171,-212 171,-212 36,-212 36,-212 30,-212 24,-206 24,-200 24,-200 24,-36 24,-36 24,-30 30,-24 36,-24"/>
<text text-anchor="middle" x="103.5" y="-199.45" font-family="Helvetica,sans-Serif" font-weight="bold" font-size="9.00">SML</text>
</g>
<g id="clust4" class="cluster">
<title>cluster_../../SML/apps</title>
<path fill="#ffffff" stroke="black" stroke-width="2" d="M44,-32C44,-32 163,-32 163,-32 169,-32 175,-38 175,-44 175,-44 175,-174 175,-174 175,-180 169,-186 163,-186 163,-186 44,-186 44,-186 38,-186 32,-180 32,-174 32,-174 32,-44 32,-44 32,-38 38,-32 44,-32"/>
<text text-anchor="middle" x="103.5" y="-173.45" font-family="Helvetica,sans-Serif" font-weight="bold" font-size="9.00">apps</text>
</g>
<g id="clust5" class="cluster">
<title>cluster_../../SML/apps/web</title>
<path fill="#ffffff" stroke="black" stroke-width="2" d="M52,-40C52,-40 155,-40 155,-40 161,-40 167,-46 167,-52 167,-52 167,-148 167,-148 167,-154 161,-160 155,-160 155,-160 52,-160 52,-160 46,-160 40,-154 40,-148 40,-148 40,-52 40,-52 40,-46 46,-40 52,-40"/>
<text text-anchor="middle" x="103.5" y="-147.45" font-family="Helvetica,sans-Serif" font-weight="bold" font-size="9.00">web</text>
</g>
<g id="clust6" class="cluster">
<title>cluster_../../SML/apps/web/components</title>
<path fill="#ffffff" stroke="black" stroke-width="2" d="M60,-48C60,-48 147,-48 147,-48 153,-48 159,-54 159,-60 159,-60 159,-122 159,-122 159,-128 153,-134 147,-134 147,-134 60,-134 60,-134 54,-134 48,-128 48,-122 48,-122 48,-60 48,-60 48,-54 54,-48 60,-48"/>
<text text-anchor="middle" x="103.5" y="-121.45" font-family="Helvetica,sans-Serif" font-weight="bold" font-size="9.00">components</text>
</g>
<g id="clust7" class="cluster">
<title>cluster_../../SML/apps/web/components/breadcrumb</title>
<path fill="#ffffff" stroke="black" stroke-width="2" d="M68,-56C68,-56 139,-56 139,-56 145,-56 151,-62 151,-68 151,-68 151,-96 151,-96 151,-102 145,-108 139,-108 139,-108 68,-108 68,-108 62,-108 56,-102 56,-96 56,-96 56,-68 56,-68 56,-62 62,-56 68,-56"/>
<text text-anchor="middle" x="103.5" y="-95.45" font-family="Helvetica,sans-Serif" font-weight="bold" font-size="9.00">breadcrumb</text>
</g>
<g id="clust8" class="cluster">
<title>cluster_@</title>
<path fill="#ffffff" stroke="black" stroke-width="2" d="M219,-87C219,-87 281,-87 281,-87 287,-87 293,-93 293,-99 293,-99 293,-161 293,-161 293,-167 287,-173 281,-173 281,-173 219,-173 219,-173 213,-173 207,-167 207,-161 207,-161 207,-99 207,-99 207,-93 213,-87 219,-87"/>
<text text-anchor="middle" x="250" y="-160.45" font-family="Helvetica,sans-Serif" font-weight="bold" font-size="9.00">@</text>
</g>
<g id="clust9" class="cluster">
<title>cluster_@/lib</title>
<path fill="#ffffff" stroke="black" stroke-width="2" d="M227,-95C227,-95 273,-95 273,-95 279,-95 285,-101 285,-107 285,-107 285,-135 285,-135 285,-141 279,-147 273,-147 273,-147 227,-147 227,-147 221,-147 215,-141 215,-135 215,-135 215,-107 215,-107 215,-101 221,-95 227,-95"/>
<text text-anchor="middle" x="250" y="-134.45" font-family="Helvetica,sans-Serif" font-weight="bold" font-size="9.00">lib</text>
</g>
<g id="clust10" class="cluster">
<title>cluster_node_modules</title>
<path fill="#ffffff" stroke="black" stroke-width="2" d="M223,-27C223,-27 278,-27 278,-27 284,-27 290,-33 290,-39 290,-39 290,-67 290,-67 290,-73 284,-79 278,-79 278,-79 223,-79 223,-79 217,-79 211,-73 211,-67 211,-67 211,-39 211,-39 211,-33 217,-27 223,-27"/>
<text text-anchor="middle" x="250.5" y="-66.45" font-family="Helvetica,sans-Serif" font-weight="bold" font-size="9.00">node_modules</text>
</g>
<!-- ../../SML/apps/web/components/breadcrumb/breadcrumb.tsx -->
<g id="node1" class="node">
<title>../../SML/apps/web/components/breadcrumb/breadcrumb.tsx</title>
<g id="a_node1"><a xlink:href="../../SML/apps/web/components/breadcrumb/breadcrumb.tsx" xlink:title="breadcrumb.tsx">
<path fill="#bbfeff" stroke="black" d="M137.08,-81.88C137.08,-81.88 69.92,-81.88 69.92,-81.88 66.96,-81.88 64,-78.92 64,-75.96 64,-75.96 64,-70.04 64,-70.04 64,-67.08 66.96,-64.12 69.92,-64.12 69.92,-64.12 137.08,-64.12 137.08,-64.12 140.04,-64.12 143,-67.08 143,-70.04 143,-70.04 143,-75.96 143,-75.96 143,-78.92 140.04,-81.88 137.08,-81.88"/>
<text text-anchor="start" x="72" y="-69.33" font-family="Helvetica,sans-Serif" font-size="9.00">breadcrumb.tsx</text>
</a>
</g>
</g>
<!-- @/lib/utils -->
<g id="node2" class="node">
<title>@/lib/utils</title>
<g id="a_node2"><a xlink:title="utils">
<path fill="#ffffcc" stroke="black" d="M271.08,-120.88C271.08,-120.88 228.92,-120.88 228.92,-120.88 225.96,-120.88 223,-117.92 223,-114.96 223,-114.96 223,-109.04 223,-109.04 223,-106.08 225.96,-103.12 228.92,-103.12 228.92,-103.12 271.08,-103.12 271.08,-103.12 274.04,-103.12 277,-106.08 277,-109.04 277,-109.04 277,-114.96 277,-114.96 277,-117.92 274.04,-120.88 271.08,-120.88"/>
<text text-anchor="start" x="241.75" y="-108.33" font-family="Helvetica,sans-Serif" font-size="9.00">utils</text>
</a>
</g>
</g>
<!-- ../../SML/apps/web/components/breadcrumb/breadcrumb.tsx&#45;&gt;@/lib/utils -->
<g id="edge1" class="edge">
<title>../../SML/apps/web/components/breadcrumb/breadcrumb.tsx&#45;&gt;@/lib/utils</title>
<path fill="none" stroke="#000000" stroke-width="2" stroke-opacity="0.200000" d="M139.11,-82.34C161.81,-88.47 191.4,-96.45 214.15,-102.59"/>
<polygon fill="#000000" fill-opacity="0.200000" stroke="#000000" stroke-width="2" stroke-opacity="0.200000" points="213.55,-104.61 219.89,-104.14 214.65,-100.55 213.55,-104.61"/>
</g>
<!-- node_modules/.pnpm -->
<g id="node3" class="node">
<title>node_modules/.pnpm</title>
<g id="a_node3"><a xlink:href="https://www.npmjs.com/package/.pnpm" xlink:title=".pnpm">
<polygon fill="#c40b0a" fill-opacity="0.101961" stroke="black" points="277,-52.88 224.97,-52.88 223,-50.9 223,-35.12 275.03,-35.12 277,-37.1 277,-52.88"/>
<polyline fill="none" stroke="black" points="275.03,-50.9 223,-50.9"/>
<polyline fill="none" stroke="black" points="275.03,-50.9 275.03,-35.12"/>
<polyline fill="none" stroke="black" points="275.03,-50.9 277,-52.88"/>
<text text-anchor="start" x="237.25" y="-40.33" font-family="Helvetica,sans-Serif" font-size="9.00" fill="#c40b0a">.pnpm</text>
</a>
</g>
</g>
<!-- ../../SML/apps/web/components/breadcrumb/breadcrumb.tsx&#45;&gt;node_modules/.pnpm -->
<g id="edge2" class="edge">
<title>../../SML/apps/web/components/breadcrumb/breadcrumb.tsx&#45;&gt;node_modules/.pnpm</title>
<path fill="none" stroke="#000000" stroke-opacity="0.200000" d="M143.22,-65.23C165.66,-60.73 193.63,-55.11 215.18,-50.79"/>
<polygon fill="#000000" fill-opacity="0.200000" stroke="#000000" stroke-opacity="0.200000" points="215.56,-52.85 221.03,-49.61 214.73,-48.74 215.56,-52.85"/>
</g>
</g>
</svg>
