<?xml version="1.0" encoding="UTF-8" standalone="no"?>
<!DOCTYPE svg PUBLIC "-//W3C//DTD SVG 1.1//EN"
 "http://www.w3.org/Graphics/SVG/1.1/DTD/svg11.dtd">
<!-- Generated by graphviz version 12.1.0 (20240811.2233)
 -->
<!-- Title: dependency&#45;cruiser output Pages: 1 -->
<svg width="205pt" height="280pt"
 viewBox="0.00 0.00 204.50 280.00" xmlns="http://www.w3.org/2000/svg" xmlns:xlink="http://www.w3.org/1999/xlink">
<g id="graph0" class="graph" transform="scale(1 1) rotate(0) translate(4 276)">
<title>dependency&#45;cruiser output</title>
<polygon fill="white" stroke="none" points="-4,4 -4,-276 200.5,-276 200.5,4 -4,4"/>
<g id="clust1" class="cluster">
<title>cluster_..</title>
<path fill="#ffffff" stroke="black" stroke-width="2" d="M20,-8C20,-8 176.5,-8 176.5,-8 182.5,-8 188.5,-14 188.5,-20 188.5,-20 188.5,-252 188.5,-252 188.5,-258 182.5,-264 176.5,-264 176.5,-264 20,-264 20,-264 14,-264 8,-258 8,-252 8,-252 8,-20 8,-20 8,-14 14,-8 20,-8"/>
<text text-anchor="middle" x="98.25" y="-251.45" font-family="Helvetica,sans-Serif" font-weight="bold" font-size="9.00">..</text>
</g>
<g id="clust2" class="cluster">
<title>cluster_../..</title>
<path fill="#ffffff" stroke="black" stroke-width="2" d="M28,-16C28,-16 168.5,-16 168.5,-16 174.5,-16 180.5,-22 180.5,-28 180.5,-28 180.5,-226 180.5,-226 180.5,-232 174.5,-238 168.5,-238 168.5,-238 28,-238 28,-238 22,-238 16,-232 16,-226 16,-226 16,-28 16,-28 16,-22 22,-16 28,-16"/>
<text text-anchor="middle" x="98.25" y="-225.45" font-family="Helvetica,sans-Serif" font-weight="bold" font-size="9.00">..</text>
</g>
<g id="clust3" class="cluster">
<title>cluster_../../SML</title>
<path fill="#ffffff" stroke="black" stroke-width="2" d="M36,-24C36,-24 160.5,-24 160.5,-24 166.5,-24 172.5,-30 172.5,-36 172.5,-36 172.5,-200 172.5,-200 172.5,-206 166.5,-212 160.5,-212 160.5,-212 36,-212 36,-212 30,-212 24,-206 24,-200 24,-200 24,-36 24,-36 24,-30 30,-24 36,-24"/>
<text text-anchor="middle" x="98.25" y="-199.45" font-family="Helvetica,sans-Serif" font-weight="bold" font-size="9.00">SML</text>
</g>
<g id="clust4" class="cluster">
<title>cluster_../../SML/apps</title>
<path fill="#ffffff" stroke="black" stroke-width="2" d="M44,-32C44,-32 152.5,-32 152.5,-32 158.5,-32 164.5,-38 164.5,-44 164.5,-44 164.5,-174 164.5,-174 164.5,-180 158.5,-186 152.5,-186 152.5,-186 44,-186 44,-186 38,-186 32,-180 32,-174 32,-174 32,-44 32,-44 32,-38 38,-32 44,-32"/>
<text text-anchor="middle" x="98.25" y="-173.45" font-family="Helvetica,sans-Serif" font-weight="bold" font-size="9.00">apps</text>
</g>
<g id="clust5" class="cluster">
<title>cluster_../../SML/apps/web</title>
<path fill="#ffffff" stroke="black" stroke-width="2" d="M52,-40C52,-40 144.5,-40 144.5,-40 150.5,-40 156.5,-46 156.5,-52 156.5,-52 156.5,-148 156.5,-148 156.5,-154 150.5,-160 144.5,-160 144.5,-160 52,-160 52,-160 46,-160 40,-154 40,-148 40,-148 40,-52 40,-52 40,-46 46,-40 52,-40"/>
<text text-anchor="middle" x="98.25" y="-147.45" font-family="Helvetica,sans-Serif" font-weight="bold" font-size="9.00">web</text>
</g>
<g id="clust6" class="cluster">
<title>cluster_../../SML/apps/web/components</title>
<path fill="#ffffff" stroke="black" stroke-width="2" d="M60,-48C60,-48 136.5,-48 136.5,-48 142.5,-48 148.5,-54 148.5,-60 148.5,-60 148.5,-122 148.5,-122 148.5,-128 142.5,-134 136.5,-134 136.5,-134 60,-134 60,-134 54,-134 48,-128 48,-122 48,-122 48,-60 48,-60 48,-54 54,-48 60,-48"/>
<text text-anchor="middle" x="98.25" y="-121.45" font-family="Helvetica,sans-Serif" font-weight="bold" font-size="9.00">components</text>
</g>
<g id="clust7" class="cluster">
<title>cluster_../../SML/apps/web/components/data&#45;preview</title>
<path fill="#ffffff" stroke="black" stroke-width="2" d="M68,-56C68,-56 128.5,-56 128.5,-56 134.5,-56 140.5,-62 140.5,-68 140.5,-68 140.5,-96 140.5,-96 140.5,-102 134.5,-108 128.5,-108 128.5,-108 68,-108 68,-108 62,-108 56,-102 56,-96 56,-96 56,-68 56,-68 56,-62 62,-56 68,-56"/>
<text text-anchor="middle" x="98.25" y="-95.45" font-family="Helvetica,sans-Serif" font-weight="bold" font-size="9.00">data&#45;preview</text>
</g>
<!-- ../../SML/apps/web/components/data&#45;preview/constants.tsx -->
<g id="node1" class="node">
<title>../../SML/apps/web/components/data&#45;preview/constants.tsx</title>
<g id="a_node1"><a xlink:href="../../SML/apps/web/components/data-preview/constants.tsx" xlink:title="constants.tsx">
<path fill="#ccffcc" stroke="black" d="M126.58,-81.88C126.58,-81.88 69.92,-81.88 69.92,-81.88 66.96,-81.88 64,-78.92 64,-75.96 64,-75.96 64,-70.04 64,-70.04 64,-67.08 66.96,-64.12 69.92,-64.12 69.92,-64.12 126.58,-64.12 126.58,-64.12 129.54,-64.12 132.5,-67.08 132.5,-70.04 132.5,-70.04 132.5,-75.96 132.5,-75.96 132.5,-78.92 129.54,-81.88 126.58,-81.88"/>
<text text-anchor="start" x="72" y="-69.33" font-family="Helvetica,sans-Serif" font-size="9.00">constants.tsx</text>
</a>
</g>
</g>
</g>
</svg>
