<?xml version="1.0" encoding="UTF-8" standalone="no"?>
<!DOCTYPE svg PUBLIC "-//W3C//DTD SVG 1.1//EN"
 "http://www.w3.org/Graphics/SVG/1.1/DTD/svg11.dtd">
<!-- Generated by graphviz version 12.1.0 (20240811.2233)
 -->
<!-- Title: dependency&#45;cruiser output Pages: 1 -->
<svg width="202pt" height="246pt"
 viewBox="0.00 0.00 202.00 246.00" xmlns="http://www.w3.org/2000/svg" xmlns:xlink="http://www.w3.org/1999/xlink">
<g id="graph0" class="graph" transform="scale(1 1) rotate(0) translate(4 242)">
<title>dependency&#45;cruiser output</title>
<polygon fill="white" stroke="none" points="-4,4 -4,-242 198,-242 198,4 -4,4"/>
<g id="clust1" class="cluster">
<title>cluster_..</title>
<path fill="#ffffff" stroke="black" stroke-width="2" d="M20,-8C20,-8 174,-8 174,-8 180,-8 186,-14 186,-20 186,-20 186,-218 186,-218 186,-224 180,-230 174,-230 174,-230 20,-230 20,-230 14,-230 8,-224 8,-218 8,-218 8,-20 8,-20 8,-14 14,-8 20,-8"/>
<text text-anchor="middle" x="97" y="-217.45" font-family="Helvetica,sans-Serif" font-weight="bold" font-size="9.00">..</text>
</g>
<g id="clust2" class="cluster">
<title>cluster_../..</title>
<path fill="#ffffff" stroke="black" stroke-width="2" d="M28,-16C28,-16 166,-16 166,-16 172,-16 178,-22 178,-28 178,-28 178,-192 178,-192 178,-198 172,-204 166,-204 166,-204 28,-204 28,-204 22,-204 16,-198 16,-192 16,-192 16,-28 16,-28 16,-22 22,-16 28,-16"/>
<text text-anchor="middle" x="97" y="-191.45" font-family="Helvetica,sans-Serif" font-weight="bold" font-size="9.00">..</text>
</g>
<g id="clust3" class="cluster">
<title>cluster_../../SML</title>
<path fill="#ffffff" stroke="black" stroke-width="2" d="M36,-24C36,-24 158,-24 158,-24 164,-24 170,-30 170,-36 170,-36 170,-166 170,-166 170,-172 164,-178 158,-178 158,-178 36,-178 36,-178 30,-178 24,-172 24,-166 24,-166 24,-36 24,-36 24,-30 30,-24 36,-24"/>
<text text-anchor="middle" x="97" y="-165.45" font-family="Helvetica,sans-Serif" font-weight="bold" font-size="9.00">SML</text>
</g>
<g id="clust4" class="cluster">
<title>cluster_../../SML/apps</title>
<path fill="#ffffff" stroke="black" stroke-width="2" d="M44,-32C44,-32 150,-32 150,-32 156,-32 162,-38 162,-44 162,-44 162,-140 162,-140 162,-146 156,-152 150,-152 150,-152 44,-152 44,-152 38,-152 32,-146 32,-140 32,-140 32,-44 32,-44 32,-38 38,-32 44,-32"/>
<text text-anchor="middle" x="97" y="-139.45" font-family="Helvetica,sans-Serif" font-weight="bold" font-size="9.00">apps</text>
</g>
<g id="clust5" class="cluster">
<title>cluster_../../SML/apps/web</title>
<path fill="#ffffff" stroke="black" stroke-width="2" d="M52,-40C52,-40 142,-40 142,-40 148,-40 154,-46 154,-52 154,-52 154,-114 154,-114 154,-120 148,-126 142,-126 142,-126 52,-126 52,-126 46,-126 40,-120 40,-114 40,-114 40,-52 40,-52 40,-46 46,-40 52,-40"/>
<text text-anchor="middle" x="97" y="-113.45" font-family="Helvetica,sans-Serif" font-weight="bold" font-size="9.00">web</text>
</g>
<g id="clust6" class="cluster">
<title>cluster_../../SML/apps/web/components</title>
<path fill="#ffffff" stroke="black" stroke-width="2" d="M60,-48C60,-48 134,-48 134,-48 140,-48 146,-54 146,-60 146,-60 146,-88 146,-88 146,-94 140,-100 134,-100 134,-100 60,-100 60,-100 54,-100 48,-94 48,-88 48,-88 48,-60 48,-60 48,-54 54,-48 60,-48"/>
<text text-anchor="middle" x="97" y="-87.45" font-family="Helvetica,sans-Serif" font-weight="bold" font-size="9.00">components</text>
</g>
<!-- ../../SML/apps/web/components/deploy&#45;icons.tsx -->
<g id="node1" class="node">
<title>../../SML/apps/web/components/deploy&#45;icons.tsx</title>
<g id="a_node1"><a xlink:href="../../SML/apps/web/components/deploy-icons.tsx" xlink:title="deploy&#45;icons.tsx">
<path fill="#ccffcc" stroke="black" d="M132.08,-73.88C132.08,-73.88 61.92,-73.88 61.92,-73.88 58.96,-73.88 56,-70.92 56,-67.96 56,-67.96 56,-62.04 56,-62.04 56,-59.08 58.96,-56.12 61.92,-56.12 61.92,-56.12 132.08,-56.12 132.08,-56.12 135.04,-56.12 138,-59.08 138,-62.04 138,-62.04 138,-67.96 138,-67.96 138,-70.92 135.04,-73.88 132.08,-73.88"/>
<text text-anchor="start" x="64" y="-61.33" font-family="Helvetica,sans-Serif" font-size="9.00">deploy&#45;icons.tsx</text>
</a>
</g>
</g>
</g>
</svg>
