<?xml version="1.0" encoding="UTF-8" standalone="no"?>
<!DOCTYPE svg PUBLIC "-//W3C//DTD SVG 1.1//EN"
 "http://www.w3.org/Graphics/SVG/1.1/DTD/svg11.dtd">
<!-- Generated by graphviz version 12.1.0 (20240811.2233)
 -->
<!-- Title: dependency&#45;cruiser output Pages: 1 -->
<svg width="443pt" height="280pt"
 viewBox="0.00 0.00 442.75 280.00" xmlns="http://www.w3.org/2000/svg" xmlns:xlink="http://www.w3.org/1999/xlink">
<g id="graph0" class="graph" transform="scale(1 1) rotate(0) translate(4 276)">
<title>dependency&#45;cruiser output</title>
<polygon fill="white" stroke="none" points="-4,4 -4,-276 438.75,-276 438.75,4 -4,4"/>
<g id="clust1" class="cluster">
<title>cluster_..</title>
<path fill="#ffffff" stroke="black" stroke-width="2" d="M20,-8C20,-8 320.75,-8 320.75,-8 326.75,-8 332.75,-14 332.75,-20 332.75,-20 332.75,-252 332.75,-252 332.75,-258 326.75,-264 320.75,-264 320.75,-264 20,-264 20,-264 14,-264 8,-258 8,-252 8,-252 8,-20 8,-20 8,-14 14,-8 20,-8"/>
<text text-anchor="middle" x="170.38" y="-251.45" font-family="Helvetica,sans-Serif" font-weight="bold" font-size="9.00">..</text>
</g>
<g id="clust2" class="cluster">
<title>cluster_../..</title>
<path fill="#ffffff" stroke="black" stroke-width="2" d="M28,-16C28,-16 312.75,-16 312.75,-16 318.75,-16 324.75,-22 324.75,-28 324.75,-28 324.75,-226 324.75,-226 324.75,-232 318.75,-238 312.75,-238 312.75,-238 28,-238 28,-238 22,-238 16,-232 16,-226 16,-226 16,-28 16,-28 16,-22 22,-16 28,-16"/>
<text text-anchor="middle" x="170.38" y="-225.45" font-family="Helvetica,sans-Serif" font-weight="bold" font-size="9.00">..</text>
</g>
<g id="clust3" class="cluster">
<title>cluster_../../SML</title>
<path fill="#ffffff" stroke="black" stroke-width="2" d="M36,-24C36,-24 304.75,-24 304.75,-24 310.75,-24 316.75,-30 316.75,-36 316.75,-36 316.75,-200 316.75,-200 316.75,-206 310.75,-212 304.75,-212 304.75,-212 36,-212 36,-212 30,-212 24,-206 24,-200 24,-200 24,-36 24,-36 24,-30 30,-24 36,-24"/>
<text text-anchor="middle" x="170.38" y="-199.45" font-family="Helvetica,sans-Serif" font-weight="bold" font-size="9.00">SML</text>
</g>
<g id="clust4" class="cluster">
<title>cluster_../../SML/apps</title>
<path fill="#ffffff" stroke="black" stroke-width="2" d="M44,-32C44,-32 296.75,-32 296.75,-32 302.75,-32 308.75,-38 308.75,-44 308.75,-44 308.75,-174 308.75,-174 308.75,-180 302.75,-186 296.75,-186 296.75,-186 44,-186 44,-186 38,-186 32,-180 32,-174 32,-174 32,-44 32,-44 32,-38 38,-32 44,-32"/>
<text text-anchor="middle" x="170.38" y="-173.45" font-family="Helvetica,sans-Serif" font-weight="bold" font-size="9.00">apps</text>
</g>
<g id="clust5" class="cluster">
<title>cluster_../../SML/apps/web</title>
<path fill="#ffffff" stroke="black" stroke-width="2" d="M52,-40C52,-40 288.75,-40 288.75,-40 294.75,-40 300.75,-46 300.75,-52 300.75,-52 300.75,-148 300.75,-148 300.75,-154 294.75,-160 288.75,-160 288.75,-160 52,-160 52,-160 46,-160 40,-154 40,-148 40,-148 40,-52 40,-52 40,-46 46,-40 52,-40"/>
<text text-anchor="middle" x="170.38" y="-147.45" font-family="Helvetica,sans-Serif" font-weight="bold" font-size="9.00">web</text>
</g>
<g id="clust6" class="cluster">
<title>cluster_../../SML/apps/web/components</title>
<path fill="#ffffff" stroke="black" stroke-width="2" d="M60,-48C60,-48 280.75,-48 280.75,-48 286.75,-48 292.75,-54 292.75,-60 292.75,-60 292.75,-122 292.75,-122 292.75,-128 286.75,-134 280.75,-134 280.75,-134 60,-134 60,-134 54,-134 48,-128 48,-122 48,-122 48,-60 48,-60 48,-54 54,-48 60,-48"/>
<text text-anchor="middle" x="170.38" y="-121.45" font-family="Helvetica,sans-Serif" font-weight="bold" font-size="9.00">components</text>
</g>
<g id="clust7" class="cluster">
<title>cluster_../../SML/apps/web/components/form&#45;field</title>
<path fill="#ffffff" stroke="black" stroke-width="2" d="M68,-56C68,-56 194.75,-56 194.75,-56 200.75,-56 206.75,-62 206.75,-68 206.75,-68 206.75,-96 206.75,-96 206.75,-102 200.75,-108 194.75,-108 194.75,-108 68,-108 68,-108 62,-108 56,-102 56,-96 56,-96 56,-68 56,-68 56,-62 62,-56 68,-56"/>
<text text-anchor="middle" x="131.38" y="-95.45" font-family="Helvetica,sans-Serif" font-weight="bold" font-size="9.00">form&#45;field</text>
</g>
<g id="clust8" class="cluster">
<title>cluster_../../SML/apps/web/components/ui</title>
<path fill="#ffffff" stroke="black" stroke-width="2" d="M226.75,-56C226.75,-56 272.75,-56 272.75,-56 278.75,-56 284.75,-62 284.75,-68 284.75,-68 284.75,-96 284.75,-96 284.75,-102 278.75,-108 272.75,-108 272.75,-108 226.75,-108 226.75,-108 220.75,-108 214.75,-102 214.75,-96 214.75,-96 214.75,-68 214.75,-68 214.75,-62 220.75,-56 226.75,-56"/>
<text text-anchor="middle" x="249.75" y="-95.45" font-family="Helvetica,sans-Serif" font-weight="bold" font-size="9.00">ui</text>
</g>
<g id="clust9" class="cluster">
<title>cluster_@</title>
<path fill="#ffffff" stroke="black" stroke-width="2" d="M352.75,-94C352.75,-94 414.75,-94 414.75,-94 420.75,-94 426.75,-100 426.75,-106 426.75,-106 426.75,-168 426.75,-168 426.75,-174 420.75,-180 414.75,-180 414.75,-180 352.75,-180 352.75,-180 346.75,-180 340.75,-174 340.75,-168 340.75,-168 340.75,-106 340.75,-106 340.75,-100 346.75,-94 352.75,-94"/>
<text text-anchor="middle" x="383.75" y="-167.45" font-family="Helvetica,sans-Serif" font-weight="bold" font-size="9.00">@</text>
</g>
<g id="clust10" class="cluster">
<title>cluster_@/lib</title>
<path fill="#ffffff" stroke="black" stroke-width="2" d="M360.75,-102C360.75,-102 406.75,-102 406.75,-102 412.75,-102 418.75,-108 418.75,-114 418.75,-114 418.75,-142 418.75,-142 418.75,-148 412.75,-154 406.75,-154 406.75,-154 360.75,-154 360.75,-154 354.75,-154 348.75,-148 348.75,-142 348.75,-142 348.75,-114 348.75,-114 348.75,-108 354.75,-102 360.75,-102"/>
<text text-anchor="middle" x="383.75" y="-141.45" font-family="Helvetica,sans-Serif" font-weight="bold" font-size="9.00">lib</text>
</g>
<g id="clust11" class="cluster">
<title>cluster_node_modules</title>
<path fill="#ffffff" stroke="black" stroke-width="2" d="M356.75,-27C356.75,-27 411.75,-27 411.75,-27 417.75,-27 423.75,-33 423.75,-39 423.75,-39 423.75,-67 423.75,-67 423.75,-73 417.75,-79 411.75,-79 411.75,-79 356.75,-79 356.75,-79 350.75,-79 344.75,-73 344.75,-67 344.75,-67 344.75,-39 344.75,-39 344.75,-33 350.75,-27 356.75,-27"/>
<text text-anchor="middle" x="384.25" y="-66.45" font-family="Helvetica,sans-Serif" font-weight="bold" font-size="9.00">node_modules</text>
</g>
<!-- ../../SML/apps/web/components/form&#45;field/form&#45;field.tsx -->
<g id="node1" class="node">
<title>../../SML/apps/web/components/form&#45;field/form&#45;field.tsx</title>
<g id="a_node1"><a xlink:href="../../SML/apps/web/components/form-field/form-field.tsx" xlink:title="form&#45;field.tsx">
<path fill="#bbfeff" stroke="black" d="M192.83,-81.88C192.83,-81.88 136.92,-81.88 136.92,-81.88 133.96,-81.88 131,-78.92 131,-75.96 131,-75.96 131,-70.04 131,-70.04 131,-67.08 133.96,-64.12 136.92,-64.12 136.92,-64.12 192.83,-64.12 192.83,-64.12 195.79,-64.12 198.75,-67.08 198.75,-70.04 198.75,-70.04 198.75,-75.96 198.75,-75.96 198.75,-78.92 195.79,-81.88 192.83,-81.88"/>
<text text-anchor="start" x="139" y="-69.33" font-family="Helvetica,sans-Serif" font-size="9.00">form&#45;field.tsx</text>
</a>
</g>
</g>
<!-- ../../SML/apps/web/components/ui/label.tsx -->
<g id="node2" class="node">
<title>../../SML/apps/web/components/ui/label.tsx</title>
<g id="a_node2"><a xlink:href="../../SML/apps/web/components/ui/label.tsx" xlink:title="label.tsx">
<path fill="#bbfeff" stroke="black" d="M270.83,-81.88C270.83,-81.88 228.67,-81.88 228.67,-81.88 225.71,-81.88 222.75,-78.92 222.75,-75.96 222.75,-75.96 222.75,-70.04 222.75,-70.04 222.75,-67.08 225.71,-64.12 228.67,-64.12 228.67,-64.12 270.83,-64.12 270.83,-64.12 273.79,-64.12 276.75,-67.08 276.75,-70.04 276.75,-70.04 276.75,-75.96 276.75,-75.96 276.75,-78.92 273.79,-81.88 270.83,-81.88"/>
<text text-anchor="start" x="232.88" y="-69.33" font-family="Helvetica,sans-Serif" font-size="9.00">label.tsx</text>
</a>
</g>
</g>
<!-- ../../SML/apps/web/components/form&#45;field/form&#45;field.tsx&#45;&gt;../../SML/apps/web/components/ui/label.tsx -->
<g id="edge1" class="edge">
<title>../../SML/apps/web/components/form&#45;field/form&#45;field.tsx&#45;&gt;../../SML/apps/web/components/ui/label.tsx</title>
<path fill="none" stroke="#000000" stroke-width="2" stroke-opacity="0.200000" d="M199.11,-73C203.83,-73 208.69,-73 213.45,-73"/>
<polygon fill="#000000" fill-opacity="0.200000" stroke="#000000" stroke-width="2" stroke-opacity="0.200000" points="213.37,-75.1 219.37,-73 213.37,-70.9 213.37,-75.1"/>
</g>
<!-- @/lib/utils -->
<g id="node3" class="node">
<title>@/lib/utils</title>
<g id="a_node3"><a xlink:title="utils">
<path fill="#ffffcc" stroke="black" d="M404.83,-127.88C404.83,-127.88 362.67,-127.88 362.67,-127.88 359.71,-127.88 356.75,-124.92 356.75,-121.96 356.75,-121.96 356.75,-116.04 356.75,-116.04 356.75,-113.08 359.71,-110.12 362.67,-110.12 362.67,-110.12 404.83,-110.12 404.83,-110.12 407.79,-110.12 410.75,-113.08 410.75,-116.04 410.75,-116.04 410.75,-121.96 410.75,-121.96 410.75,-124.92 407.79,-127.88 404.83,-127.88"/>
<text text-anchor="start" x="375.5" y="-115.33" font-family="Helvetica,sans-Serif" font-size="9.00">utils</text>
</a>
</g>
</g>
<!-- ../../SML/apps/web/components/form&#45;field/form&#45;field.tsx&#45;&gt;@/lib/utils -->
<g id="edge2" class="edge">
<title>../../SML/apps/web/components/form&#45;field/form&#45;field.tsx&#45;&gt;@/lib/utils</title>
<path fill="none" stroke="#000000" stroke-width="2" stroke-opacity="0.200000" d="M174.2,-82.16C183.18,-91.35 198.42,-104.96 214.75,-111 258.37,-127.13 312.74,-126.29 347.6,-123.35"/>
<polygon fill="#000000" fill-opacity="0.200000" stroke="#000000" stroke-width="2" stroke-opacity="0.200000" points="347.66,-125.45 353.44,-122.8 347.27,-121.27 347.66,-125.45"/>
</g>
<!-- node_modules/.pnpm -->
<g id="node4" class="node">
<title>node_modules/.pnpm</title>
<g id="a_node4"><a xlink:href="https://www.npmjs.com/package/.pnpm" xlink:title=".pnpm">
<polygon fill="#c40b0a" fill-opacity="0.101961" stroke="black" points="410.75,-52.88 358.72,-52.88 356.75,-50.9 356.75,-35.12 408.78,-35.12 410.75,-37.1 410.75,-52.88"/>
<polyline fill="none" stroke="black" points="408.78,-50.9 356.75,-50.9"/>
<polyline fill="none" stroke="black" points="408.78,-50.9 408.78,-35.12"/>
<polyline fill="none" stroke="black" points="408.78,-50.9 410.75,-52.88"/>
<text text-anchor="start" x="371" y="-40.33" font-family="Helvetica,sans-Serif" font-size="9.00" fill="#c40b0a">.pnpm</text>
</a>
</g>
</g>
<!-- ../../SML/apps/web/components/form&#45;field/form&#45;field.tsx&#45;&gt;node_modules/.pnpm -->
<g id="edge3" class="edge">
<title>../../SML/apps/web/components/form&#45;field/form&#45;field.tsx&#45;&gt;node_modules/.pnpm</title>
<path fill="none" stroke="#000000" stroke-opacity="0.200000" d="M184.43,-63.69C193.37,-59.66 204.37,-55.33 214.75,-53 260.45,-42.73 314.82,-41.8 349.07,-42.53"/>
<polygon fill="#000000" fill-opacity="0.200000" stroke="#000000" stroke-opacity="0.200000" points="348.91,-44.63 354.97,-42.68 349.02,-40.43 348.91,-44.63"/>
</g>
<!-- ../../SML/apps/web/components/ui/label.tsx&#45;&gt;@/lib/utils -->
<g id="edge5" class="edge">
<title>../../SML/apps/web/components/ui/label.tsx&#45;&gt;@/lib/utils</title>
<path fill="none" stroke="#000000" stroke-width="2" stroke-opacity="0.200000" d="M277.14,-82.2C297.47,-89.28 325.75,-99.13 347.92,-106.86"/>
<polygon fill="#000000" fill-opacity="0.200000" stroke="#000000" stroke-width="2" stroke-opacity="0.200000" points="347.19,-108.83 353.54,-108.82 348.57,-104.86 347.19,-108.83"/>
</g>
<!-- ../../SML/apps/web/components/ui/label.tsx&#45;&gt;node_modules/.pnpm -->
<g id="edge6" class="edge">
<title>../../SML/apps/web/components/ui/label.tsx&#45;&gt;node_modules/.pnpm</title>
<path fill="none" stroke="#000000" stroke-opacity="0.200000" d="M277.14,-67.2C297.83,-62.66 326.75,-56.3 349.1,-51.39"/>
<polygon fill="#000000" fill-opacity="0.200000" stroke="#000000" stroke-opacity="0.200000" points="349.51,-53.45 354.92,-50.11 348.61,-49.35 349.51,-53.45"/>
</g>
<!-- ../../SML/apps/web/components/form&#45;field/index.ts -->
<g id="node5" class="node">
<title>../../SML/apps/web/components/form&#45;field/index.ts</title>
<g id="a_node5"><a xlink:href="../../SML/apps/web/components/form-field/index.ts" xlink:title="index.ts">
<path fill="#ddfeff" stroke="black" d="M112.08,-81.88C112.08,-81.88 69.92,-81.88 69.92,-81.88 66.96,-81.88 64,-78.92 64,-75.96 64,-75.96 64,-70.04 64,-70.04 64,-67.08 66.96,-64.12 69.92,-64.12 69.92,-64.12 112.08,-64.12 112.08,-64.12 115.04,-64.12 118,-67.08 118,-70.04 118,-70.04 118,-75.96 118,-75.96 118,-78.92 115.04,-81.88 112.08,-81.88"/>
<text text-anchor="start" x="75.25" y="-69.33" font-family="Helvetica,sans-Serif" font-size="9.00">index.ts</text>
</a>
</g>
</g>
<!-- ../../SML/apps/web/components/form&#45;field/index.ts&#45;&gt;../../SML/apps/web/components/form&#45;field/form&#45;field.tsx -->
<g id="edge4" class="edge">
<title>../../SML/apps/web/components/form&#45;field/index.ts&#45;&gt;../../SML/apps/web/components/form&#45;field/form&#45;field.tsx</title>
<path fill="none" stroke="#000000" stroke-width="2" stroke-opacity="0.200000" d="M118.36,-73C120.11,-73 121.89,-73 123.69,-73"/>
<polygon fill="#000000" fill-opacity="0.200000" stroke="#000000" stroke-width="2" stroke-opacity="0.200000" points="129.67,-75.1 123.67,-73 129.67,-70.9 129.67,-75.1"/>
</g>
</g>
</svg>
