<?xml version="1.0" encoding="UTF-8" standalone="no"?>
<!DOCTYPE svg PUBLIC "-//W3C//DTD SVG 1.1//EN"
 "http://www.w3.org/Graphics/SVG/1.1/DTD/svg11.dtd">
<!-- Generated by graphviz version 12.1.0 (20240811.2233)
 -->
<!-- Title: dependency&#45;cruiser output Pages: 1 -->
<svg width="245pt" height="314pt"
 viewBox="0.00 0.00 244.50 314.00" xmlns="http://www.w3.org/2000/svg" xmlns:xlink="http://www.w3.org/1999/xlink">
<g id="graph0" class="graph" transform="scale(1 1) rotate(0) translate(4 310)">
<title>dependency&#45;cruiser output</title>
<polygon fill="white" stroke="none" points="-4,4 -4,-310 240.5,-310 240.5,4 -4,4"/>
<g id="clust1" class="cluster">
<title>cluster_..</title>
<path fill="#ffffff" stroke="black" stroke-width="2" d="M20,-8C20,-8 216.5,-8 216.5,-8 222.5,-8 228.5,-14 228.5,-20 228.5,-20 228.5,-286 228.5,-286 228.5,-292 222.5,-298 216.5,-298 216.5,-298 20,-298 20,-298 14,-298 8,-292 8,-286 8,-286 8,-20 8,-20 8,-14 14,-8 20,-8"/>
<text text-anchor="middle" x="118.25" y="-285.45" font-family="Helvetica,sans-Serif" font-weight="bold" font-size="9.00">..</text>
</g>
<g id="clust2" class="cluster">
<title>cluster_../..</title>
<path fill="#ffffff" stroke="black" stroke-width="2" d="M28,-16C28,-16 208.5,-16 208.5,-16 214.5,-16 220.5,-22 220.5,-28 220.5,-28 220.5,-260 220.5,-260 220.5,-266 214.5,-272 208.5,-272 208.5,-272 28,-272 28,-272 22,-272 16,-266 16,-260 16,-260 16,-28 16,-28 16,-22 22,-16 28,-16"/>
<text text-anchor="middle" x="118.25" y="-259.45" font-family="Helvetica,sans-Serif" font-weight="bold" font-size="9.00">..</text>
</g>
<g id="clust3" class="cluster">
<title>cluster_../../SML</title>
<path fill="#ffffff" stroke="black" stroke-width="2" d="M36,-24C36,-24 200.5,-24 200.5,-24 206.5,-24 212.5,-30 212.5,-36 212.5,-36 212.5,-234 212.5,-234 212.5,-240 206.5,-246 200.5,-246 200.5,-246 36,-246 36,-246 30,-246 24,-240 24,-234 24,-234 24,-36 24,-36 24,-30 30,-24 36,-24"/>
<text text-anchor="middle" x="118.25" y="-233.45" font-family="Helvetica,sans-Serif" font-weight="bold" font-size="9.00">SML</text>
</g>
<g id="clust4" class="cluster">
<title>cluster_../../SML/apps</title>
<path fill="#ffffff" stroke="black" stroke-width="2" d="M44,-32C44,-32 192.5,-32 192.5,-32 198.5,-32 204.5,-38 204.5,-44 204.5,-44 204.5,-208 204.5,-208 204.5,-214 198.5,-220 192.5,-220 192.5,-220 44,-220 44,-220 38,-220 32,-214 32,-208 32,-208 32,-44 32,-44 32,-38 38,-32 44,-32"/>
<text text-anchor="middle" x="118.25" y="-207.45" font-family="Helvetica,sans-Serif" font-weight="bold" font-size="9.00">apps</text>
</g>
<g id="clust5" class="cluster">
<title>cluster_../../SML/apps/web</title>
<path fill="#ffffff" stroke="black" stroke-width="2" d="M52,-40C52,-40 184.5,-40 184.5,-40 190.5,-40 196.5,-46 196.5,-52 196.5,-52 196.5,-182 196.5,-182 196.5,-188 190.5,-194 184.5,-194 184.5,-194 52,-194 52,-194 46,-194 40,-188 40,-182 40,-182 40,-52 40,-52 40,-46 46,-40 52,-40"/>
<text text-anchor="middle" x="118.25" y="-181.45" font-family="Helvetica,sans-Serif" font-weight="bold" font-size="9.00">web</text>
</g>
<g id="clust6" class="cluster">
<title>cluster_../../SML/apps/web/components</title>
<path fill="#ffffff" stroke="black" stroke-width="2" d="M60,-48C60,-48 176.5,-48 176.5,-48 182.5,-48 188.5,-54 188.5,-60 188.5,-60 188.5,-156 188.5,-156 188.5,-162 182.5,-168 176.5,-168 176.5,-168 60,-168 60,-168 54,-168 48,-162 48,-156 48,-156 48,-60 48,-60 48,-54 54,-48 60,-48"/>
<text text-anchor="middle" x="118.25" y="-155.45" font-family="Helvetica,sans-Serif" font-weight="bold" font-size="9.00">components</text>
</g>
<g id="clust7" class="cluster">
<title>cluster_../../SML/apps/web/components/data&#45;preview</title>
<path fill="#ffffff" stroke="black" stroke-width="2" d="M68,-56C68,-56 168.5,-56 168.5,-56 174.5,-56 180.5,-62 180.5,-68 180.5,-68 180.5,-130 180.5,-130 180.5,-136 174.5,-142 168.5,-142 168.5,-142 68,-142 68,-142 62,-142 56,-136 56,-130 56,-130 56,-68 56,-68 56,-62 62,-56 68,-56"/>
<text text-anchor="middle" x="118.25" y="-129.45" font-family="Helvetica,sans-Serif" font-weight="bold" font-size="9.00">data&#45;preview</text>
</g>
<g id="clust8" class="cluster">
<title>cluster_../../SML/apps/web/components/data&#45;preview/table&#45;utilities</title>
<path fill="#ffffff" stroke="black" stroke-width="2" d="M76,-64C76,-64 160.5,-64 160.5,-64 166.5,-64 172.5,-70 172.5,-76 172.5,-76 172.5,-104 172.5,-104 172.5,-110 166.5,-116 160.5,-116 160.5,-116 76,-116 76,-116 70,-116 64,-110 64,-104 64,-104 64,-76 64,-76 64,-70 70,-64 76,-64"/>
<text text-anchor="middle" x="118.25" y="-103.45" font-family="Helvetica,sans-Serif" font-weight="bold" font-size="9.00">table&#45;utilities</text>
</g>
<!-- ../../SML/apps/web/components/data&#45;preview/table&#45;utilities/generate&#45;footer.tsx -->
<g id="node1" class="node">
<title>../../SML/apps/web/components/data&#45;preview/table&#45;utilities/generate&#45;footer.tsx</title>
<g id="a_node1"><a xlink:href="../../SML/apps/web/components/data-preview/table-utilities/generate-footer.tsx" xlink:title="generate&#45;footer.tsx">
<path fill="#ccffcc" stroke="black" d="M158.58,-89.88C158.58,-89.88 77.92,-89.88 77.92,-89.88 74.96,-89.88 72,-86.92 72,-83.96 72,-83.96 72,-78.04 72,-78.04 72,-75.08 74.96,-72.12 77.92,-72.12 77.92,-72.12 158.58,-72.12 158.58,-72.12 161.54,-72.12 164.5,-75.08 164.5,-78.04 164.5,-78.04 164.5,-83.96 164.5,-83.96 164.5,-86.92 161.54,-89.88 158.58,-89.88"/>
<text text-anchor="start" x="80" y="-77.33" font-family="Helvetica,sans-Serif" font-size="9.00">generate&#45;footer.tsx</text>
</a>
</g>
</g>
</g>
</svg>
