<?xml version="1.0" encoding="UTF-8" standalone="no"?>
<!DOCTYPE svg PUBLIC "-//W3C//DTD SVG 1.1//EN"
 "http://www.w3.org/Graphics/SVG/1.1/DTD/svg11.dtd">
<!-- Generated by graphviz version 12.1.0 (20240811.2233)
 -->
<!-- Title: dependency&#45;cruiser output Pages: 1 -->
<svg width="556pt" height="340pt"
 viewBox="0.00 0.00 556.00 340.00" xmlns="http://www.w3.org/2000/svg" xmlns:xlink="http://www.w3.org/1999/xlink">
<g id="graph0" class="graph" transform="scale(1 1) rotate(0) translate(4 336)">
<title>dependency&#45;cruiser output</title>
<polygon fill="white" stroke="none" points="-4,4 -4,-336 552,-336 552,4 -4,4"/>
<g id="clust1" class="cluster">
<title>cluster_..</title>
<path fill="#ffffff" stroke="black" stroke-width="2" d="M20,-8C20,-8 434,-8 434,-8 440,-8 446,-14 446,-20 446,-20 446,-312 446,-312 446,-318 440,-324 434,-324 434,-324 20,-324 20,-324 14,-324 8,-318 8,-312 8,-312 8,-20 8,-20 8,-14 14,-8 20,-8"/>
<text text-anchor="middle" x="227" y="-311.45" font-family="Helvetica,sans-Serif" font-weight="bold" font-size="9.00">..</text>
</g>
<g id="clust2" class="cluster">
<title>cluster_../..</title>
<path fill="#ffffff" stroke="black" stroke-width="2" d="M28,-16C28,-16 426,-16 426,-16 432,-16 438,-22 438,-28 438,-28 438,-286 438,-286 438,-292 432,-298 426,-298 426,-298 28,-298 28,-298 22,-298 16,-292 16,-286 16,-286 16,-28 16,-28 16,-22 22,-16 28,-16"/>
<text text-anchor="middle" x="227" y="-285.45" font-family="Helvetica,sans-Serif" font-weight="bold" font-size="9.00">..</text>
</g>
<g id="clust3" class="cluster">
<title>cluster_../../SML</title>
<path fill="#ffffff" stroke="black" stroke-width="2" d="M36,-24C36,-24 418,-24 418,-24 424,-24 430,-30 430,-36 430,-36 430,-260 430,-260 430,-266 424,-272 418,-272 418,-272 36,-272 36,-272 30,-272 24,-266 24,-260 24,-260 24,-36 24,-36 24,-30 30,-24 36,-24"/>
<text text-anchor="middle" x="227" y="-259.45" font-family="Helvetica,sans-Serif" font-weight="bold" font-size="9.00">SML</text>
</g>
<g id="clust4" class="cluster">
<title>cluster_../../SML/apps</title>
<path fill="#ffffff" stroke="black" stroke-width="2" d="M44,-32C44,-32 410,-32 410,-32 416,-32 422,-38 422,-44 422,-44 422,-234 422,-234 422,-240 416,-246 410,-246 410,-246 44,-246 44,-246 38,-246 32,-240 32,-234 32,-234 32,-44 32,-44 32,-38 38,-32 44,-32"/>
<text text-anchor="middle" x="227" y="-233.45" font-family="Helvetica,sans-Serif" font-weight="bold" font-size="9.00">apps</text>
</g>
<g id="clust5" class="cluster">
<title>cluster_../../SML/apps/web</title>
<path fill="#ffffff" stroke="black" stroke-width="2" d="M52,-40C52,-40 402,-40 402,-40 408,-40 414,-46 414,-52 414,-52 414,-208 414,-208 414,-214 408,-220 402,-220 402,-220 52,-220 52,-220 46,-220 40,-214 40,-208 40,-208 40,-52 40,-52 40,-46 46,-40 52,-40"/>
<text text-anchor="middle" x="227" y="-207.45" font-family="Helvetica,sans-Serif" font-weight="bold" font-size="9.00">web</text>
</g>
<g id="clust6" class="cluster">
<title>cluster_../../SML/apps/web/components</title>
<path fill="#ffffff" stroke="black" stroke-width="2" d="M60,-48C60,-48 394,-48 394,-48 400,-48 406,-54 406,-60 406,-60 406,-182 406,-182 406,-188 400,-194 394,-194 394,-194 60,-194 60,-194 54,-194 48,-188 48,-182 48,-182 48,-60 48,-60 48,-54 54,-48 60,-48"/>
<text text-anchor="middle" x="227" y="-181.45" font-family="Helvetica,sans-Serif" font-weight="bold" font-size="9.00">components</text>
</g>
<g id="clust7" class="cluster">
<title>cluster_../../SML/apps/web/components/form&#45;field</title>
<path fill="#ffffff" stroke="black" stroke-width="2" d="M68,-56C68,-56 225,-56 225,-56 231,-56 237,-62 237,-68 237,-68 237,-96 237,-96 237,-102 231,-108 225,-108 225,-108 68,-108 68,-108 62,-108 56,-102 56,-96 56,-96 56,-68 56,-68 56,-62 62,-56 68,-56"/>
<text text-anchor="middle" x="146.5" y="-95.45" font-family="Helvetica,sans-Serif" font-weight="bold" font-size="9.00">form&#45;field</text>
</g>
<g id="clust8" class="cluster">
<title>cluster_../../SML/apps/web/components/ui</title>
<path fill="#ffffff" stroke="black" stroke-width="2" d="M257,-56C257,-56 386,-56 386,-56 392,-56 398,-62 398,-68 398,-68 398,-156 398,-156 398,-162 392,-168 386,-168 386,-168 257,-168 257,-168 251,-168 245,-162 245,-156 245,-156 245,-68 245,-68 245,-62 251,-56 257,-56"/>
<text text-anchor="middle" x="321.5" y="-155.45" font-family="Helvetica,sans-Serif" font-weight="bold" font-size="9.00">ui</text>
</g>
<g id="clust9" class="cluster">
<title>cluster_../../SML/apps/web/components/ui/input</title>
<path fill="#ffffff" stroke="black" stroke-width="2" d="M265,-90C265,-90 378,-90 378,-90 384,-90 390,-96 390,-102 390,-102 390,-130 390,-130 390,-136 384,-142 378,-142 378,-142 265,-142 265,-142 259,-142 253,-136 253,-130 253,-130 253,-102 253,-102 253,-96 259,-90 265,-90"/>
<text text-anchor="middle" x="321.5" y="-129.45" font-family="Helvetica,sans-Serif" font-weight="bold" font-size="9.00">input</text>
</g>
<g id="clust10" class="cluster">
<title>cluster_@</title>
<path fill="#ffffff" stroke="black" stroke-width="2" d="M466,-132C466,-132 528,-132 528,-132 534,-132 540,-138 540,-144 540,-144 540,-206 540,-206 540,-212 534,-218 528,-218 528,-218 466,-218 466,-218 460,-218 454,-212 454,-206 454,-206 454,-144 454,-144 454,-138 460,-132 466,-132"/>
<text text-anchor="middle" x="497" y="-205.45" font-family="Helvetica,sans-Serif" font-weight="bold" font-size="9.00">@</text>
</g>
<g id="clust11" class="cluster">
<title>cluster_@/lib</title>
<path fill="#ffffff" stroke="black" stroke-width="2" d="M474,-140C474,-140 520,-140 520,-140 526,-140 532,-146 532,-152 532,-152 532,-180 532,-180 532,-186 526,-192 520,-192 520,-192 474,-192 474,-192 468,-192 462,-186 462,-180 462,-180 462,-152 462,-152 462,-146 468,-140 474,-140"/>
<text text-anchor="middle" x="497" y="-179.45" font-family="Helvetica,sans-Serif" font-weight="bold" font-size="9.00">lib</text>
</g>
<g id="clust12" class="cluster">
<title>cluster_node_modules</title>
<path fill="#ffffff" stroke="black" stroke-width="2" d="M470,-38C470,-38 525,-38 525,-38 531,-38 537,-44 537,-50 537,-50 537,-78 537,-78 537,-84 531,-90 525,-90 525,-90 470,-90 470,-90 464,-90 458,-84 458,-78 458,-78 458,-50 458,-50 458,-44 464,-38 470,-38"/>
<text text-anchor="middle" x="497.5" y="-77.45" font-family="Helvetica,sans-Serif" font-weight="bold" font-size="9.00">node_modules</text>
</g>
<!-- ../../SML/apps/web/components/form&#45;field/form&#45;field.test.tsx -->
<g id="node1" class="node">
<title>../../SML/apps/web/components/form&#45;field/form&#45;field.test.tsx</title>
<g id="a_node1"><a xlink:href="../../SML/apps/web/components/form-field/form-field.test.tsx" xlink:title="form&#45;field.test.tsx">
<path fill="#bbfeff" stroke="black" d="M142.33,-81.88C142.33,-81.88 69.92,-81.88 69.92,-81.88 66.96,-81.88 64,-78.92 64,-75.96 64,-75.96 64,-70.04 64,-70.04 64,-67.08 66.96,-64.12 69.92,-64.12 69.92,-64.12 142.33,-64.12 142.33,-64.12 145.29,-64.12 148.25,-67.08 148.25,-70.04 148.25,-70.04 148.25,-75.96 148.25,-75.96 148.25,-78.92 145.29,-81.88 142.33,-81.88"/>
<text text-anchor="start" x="72" y="-69.33" font-family="Helvetica,sans-Serif" font-size="9.00">form&#45;field.test.tsx</text>
</a>
</g>
</g>
<!-- ../../SML/apps/web/components/ui/input/index.ts -->
<g id="node2" class="node">
<title>../../SML/apps/web/components/ui/input/index.ts</title>
<g id="a_node2"><a xlink:href="../../SML/apps/web/components/ui/input/index.ts" xlink:title="index.ts">
<path fill="#ddfeff" stroke="black" d="M309.08,-115.88C309.08,-115.88 266.92,-115.88 266.92,-115.88 263.96,-115.88 261,-112.92 261,-109.96 261,-109.96 261,-104.04 261,-104.04 261,-101.08 263.96,-98.12 266.92,-98.12 266.92,-98.12 309.08,-98.12 309.08,-98.12 312.04,-98.12 315,-101.08 315,-104.04 315,-104.04 315,-109.96 315,-109.96 315,-112.92 312.04,-115.88 309.08,-115.88"/>
<text text-anchor="start" x="272.25" y="-103.33" font-family="Helvetica,sans-Serif" font-size="9.00">index.ts</text>
</a>
</g>
</g>
<!-- ../../SML/apps/web/components/form&#45;field/form&#45;field.test.tsx&#45;&gt;../../SML/apps/web/components/ui/input/index.ts -->
<g id="edge1" class="edge">
<title>../../SML/apps/web/components/form&#45;field/form&#45;field.test.tsx&#45;&gt;../../SML/apps/web/components/ui/input/index.ts</title>
<path fill="none" stroke="#000000" stroke-width="2" stroke-opacity="0.200000" d="M138.45,-82.37C145.88,-84.4 153.81,-86.41 161.25,-88 191.64,-94.48 226.61,-99.58 251.95,-102.85"/>
<polygon fill="#000000" fill-opacity="0.200000" stroke="#000000" stroke-width="2" stroke-opacity="0.200000" points="251.6,-104.93 257.82,-103.6 252.13,-100.76 251.6,-104.93"/>
</g>
<!-- ../../SML/apps/web/components/form&#45;field/form&#45;field.tsx -->
<g id="node3" class="node">
<title>../../SML/apps/web/components/form&#45;field/form&#45;field.tsx</title>
<g id="a_node3"><a xlink:href="../../SML/apps/web/components/form-field/form-field.tsx" xlink:title="form&#45;field.tsx">
<path fill="#bbfeff" stroke="black" d="M223.08,-81.88C223.08,-81.88 167.17,-81.88 167.17,-81.88 164.21,-81.88 161.25,-78.92 161.25,-75.96 161.25,-75.96 161.25,-70.04 161.25,-70.04 161.25,-67.08 164.21,-64.12 167.17,-64.12 167.17,-64.12 223.08,-64.12 223.08,-64.12 226.04,-64.12 229,-67.08 229,-70.04 229,-70.04 229,-75.96 229,-75.96 229,-78.92 226.04,-81.88 223.08,-81.88"/>
<text text-anchor="start" x="169.25" y="-69.33" font-family="Helvetica,sans-Serif" font-size="9.00">form&#45;field.tsx</text>
</a>
</g>
</g>
<!-- ../../SML/apps/web/components/form&#45;field/form&#45;field.test.tsx&#45;&gt;../../SML/apps/web/components/form&#45;field/form&#45;field.tsx -->
<g id="edge2" class="edge">
<title>../../SML/apps/web/components/form&#45;field/form&#45;field.test.tsx&#45;&gt;../../SML/apps/web/components/form&#45;field/form&#45;field.tsx</title>
<path fill="none" stroke="#000000" stroke-width="2" stroke-opacity="0.200000" d="M148.59,-73C149.74,-73 150.9,-73 152.06,-73"/>
<polygon fill="#000000" fill-opacity="0.200000" stroke="#000000" stroke-width="2" stroke-opacity="0.200000" points="151.83,-75.1 157.83,-73 151.83,-70.9 151.83,-75.1"/>
</g>
<!-- node_modules/.pnpm -->
<g id="node4" class="node">
<title>node_modules/.pnpm</title>
<g id="a_node4"><a xlink:href="https://www.npmjs.com/package/.pnpm" xlink:title=".pnpm">
<polygon fill="#c40b0a" fill-opacity="0.101961" stroke="black" points="524,-63.88 471.97,-63.88 470,-61.9 470,-46.12 522.03,-46.12 524,-48.1 524,-63.88"/>
<polyline fill="none" stroke="black" points="522.03,-61.9 470,-61.9"/>
<polyline fill="none" stroke="black" points="522.03,-61.9 522.03,-46.12"/>
<polyline fill="none" stroke="black" points="522.03,-61.9 524,-63.88"/>
<text text-anchor="start" x="484.25" y="-51.33" font-family="Helvetica,sans-Serif" font-size="9.00" fill="#c40b0a">.pnpm</text>
</a>
</g>
</g>
<!-- ../../SML/apps/web/components/form&#45;field/form&#45;field.test.tsx&#45;&gt;node_modules/.pnpm -->
<g id="edge3" class="edge">
<title>../../SML/apps/web/components/form&#45;field/form&#45;field.test.tsx&#45;&gt;node_modules/.pnpm</title>
<path fill="none" stroke="#000000" stroke-opacity="0.200000" d="M139.07,-63.68C146.33,-61.69 154.03,-59.69 161.25,-58 284.7,-29.15 320.4,-23.75 446,-41 451.34,-41.73 456.92,-42.89 462.32,-44.23"/>
<polygon fill="#000000" fill-opacity="0.200000" stroke="#000000" stroke-opacity="0.200000" points="461.76,-46.25 468.09,-45.76 462.83,-42.19 461.76,-46.25"/>
</g>
<!-- ../../SML/apps/web/components/ui/input/input.tsx -->
<g id="node7" class="node">
<title>../../SML/apps/web/components/ui/input/input.tsx</title>
<g id="a_node7"><a xlink:href="../../SML/apps/web/components/ui/input/input.tsx" xlink:title="input.tsx">
<path fill="#bbfeff" stroke="black" d="M376.08,-115.88C376.08,-115.88 333.92,-115.88 333.92,-115.88 330.96,-115.88 328,-112.92 328,-109.96 328,-109.96 328,-104.04 328,-104.04 328,-101.08 330.96,-98.12 333.92,-98.12 333.92,-98.12 376.08,-98.12 376.08,-98.12 379.04,-98.12 382,-101.08 382,-104.04 382,-104.04 382,-109.96 382,-109.96 382,-112.92 379.04,-115.88 376.08,-115.88"/>
<text text-anchor="start" x="338.12" y="-103.33" font-family="Helvetica,sans-Serif" font-size="9.00">input.tsx</text>
</a>
</g>
</g>
<!-- ../../SML/apps/web/components/ui/input/index.ts&#45;&gt;../../SML/apps/web/components/ui/input/input.tsx -->
<g id="edge7" class="edge">
<title>../../SML/apps/web/components/ui/input/index.ts&#45;&gt;../../SML/apps/web/components/ui/input/input.tsx</title>
<path fill="none" stroke="#000000" stroke-width="2" stroke-opacity="0.200000" d="M315.44,-107C317.22,-107 319.03,-107 320.84,-107"/>
<polygon fill="#000000" fill-opacity="0.200000" stroke="#000000" stroke-width="2" stroke-opacity="0.200000" points="326.8,-109.1 320.8,-107 326.8,-104.9 326.8,-109.1"/>
</g>
<!-- ../../SML/apps/web/components/form&#45;field/form&#45;field.tsx&#45;&gt;node_modules/.pnpm -->
<g id="edge6" class="edge">
<title>../../SML/apps/web/components/form&#45;field/form&#45;field.tsx&#45;&gt;node_modules/.pnpm</title>
<path fill="none" stroke="#000000" stroke-opacity="0.200000" d="M214.17,-63.65C223.17,-59.5 234.38,-55.09 245,-53 321.51,-37.95 413.68,-44.92 462.25,-50.47"/>
<polygon fill="#000000" fill-opacity="0.200000" stroke="#000000" stroke-opacity="0.200000" points="461.95,-52.55 468.16,-51.17 462.45,-48.38 461.95,-52.55"/>
</g>
<!-- ../../SML/apps/web/components/ui/label.tsx -->
<g id="node5" class="node">
<title>../../SML/apps/web/components/ui/label.tsx</title>
<g id="a_node5"><a xlink:href="../../SML/apps/web/components/ui/label.tsx" xlink:title="label.tsx">
<path fill="#bbfeff" stroke="black" d="M309.08,-81.88C309.08,-81.88 266.92,-81.88 266.92,-81.88 263.96,-81.88 261,-78.92 261,-75.96 261,-75.96 261,-70.04 261,-70.04 261,-67.08 263.96,-64.12 266.92,-64.12 266.92,-64.12 309.08,-64.12 309.08,-64.12 312.04,-64.12 315,-67.08 315,-70.04 315,-70.04 315,-75.96 315,-75.96 315,-78.92 312.04,-81.88 309.08,-81.88"/>
<text text-anchor="start" x="271.12" y="-69.33" font-family="Helvetica,sans-Serif" font-size="9.00">label.tsx</text>
</a>
</g>
</g>
<!-- ../../SML/apps/web/components/form&#45;field/form&#45;field.tsx&#45;&gt;../../SML/apps/web/components/ui/label.tsx -->
<g id="edge4" class="edge">
<title>../../SML/apps/web/components/form&#45;field/form&#45;field.tsx&#45;&gt;../../SML/apps/web/components/ui/label.tsx</title>
<path fill="none" stroke="#000000" stroke-width="2" stroke-opacity="0.200000" d="M229.45,-73C236.64,-73 244.27,-73 251.55,-73"/>
<polygon fill="#000000" fill-opacity="0.200000" stroke="#000000" stroke-width="2" stroke-opacity="0.200000" points="251.48,-75.1 257.48,-73 251.48,-70.9 251.48,-75.1"/>
</g>
<!-- @/lib/utils -->
<g id="node6" class="node">
<title>@/lib/utils</title>
<g id="a_node6"><a xlink:title="utils">
<path fill="#ffffcc" stroke="black" d="M518.08,-165.88C518.08,-165.88 475.92,-165.88 475.92,-165.88 472.96,-165.88 470,-162.92 470,-159.96 470,-159.96 470,-154.04 470,-154.04 470,-151.08 472.96,-148.12 475.92,-148.12 475.92,-148.12 518.08,-148.12 518.08,-148.12 521.04,-148.12 524,-151.08 524,-154.04 524,-154.04 524,-159.96 524,-159.96 524,-162.92 521.04,-165.88 518.08,-165.88"/>
<text text-anchor="start" x="488.75" y="-153.32" font-family="Helvetica,sans-Serif" font-size="9.00">utils</text>
</a>
</g>
</g>
<!-- ../../SML/apps/web/components/form&#45;field/form&#45;field.tsx&#45;&gt;@/lib/utils -->
<g id="edge5" class="edge">
<title>../../SML/apps/web/components/form&#45;field/form&#45;field.tsx&#45;&gt;@/lib/utils</title>
<path fill="none" stroke="#000000" stroke-width="2" stroke-opacity="0.200000" d="M199.81,-81.96C206.53,-97.17 222.2,-128.06 245,-145 276.03,-168.05 289.79,-165.16 328,-171 379.84,-178.93 394.04,-178.14 446,-171 450.86,-170.33 455.9,-169.32 460.85,-168.13"/>
<polygon fill="#000000" fill-opacity="0.200000" stroke="#000000" stroke-width="2" stroke-opacity="0.200000" points="461.36,-170.17 466.63,-166.62 460.29,-166.11 461.36,-170.17"/>
</g>
<!-- ../../SML/apps/web/components/ui/label.tsx&#45;&gt;node_modules/.pnpm -->
<g id="edge11" class="edge">
<title>../../SML/apps/web/components/ui/label.tsx&#45;&gt;node_modules/.pnpm</title>
<path fill="none" stroke="#000000" stroke-opacity="0.200000" d="M315.22,-70.72C352.6,-67.47 421.23,-61.5 462.33,-57.93"/>
<polygon fill="#000000" fill-opacity="0.200000" stroke="#000000" stroke-opacity="0.200000" points="462.37,-60.03 468.16,-57.42 462,-55.85 462.37,-60.03"/>
</g>
<!-- ../../SML/apps/web/components/ui/label.tsx&#45;&gt;@/lib/utils -->
<g id="edge10" class="edge">
<title>../../SML/apps/web/components/ui/label.tsx&#45;&gt;@/lib/utils</title>
<path fill="none" stroke="#000000" stroke-width="2" stroke-opacity="0.200000" d="M310.16,-82.2C311.97,-83.61 313.64,-85.2 315,-87 330.96,-108.05 307.98,-127.76 328,-145 364.52,-176.44 423.63,-172.38 461.12,-165.49"/>
<polygon fill="#000000" fill-opacity="0.200000" stroke="#000000" stroke-width="2" stroke-opacity="0.200000" points="461.25,-167.6 466.73,-164.38 460.44,-163.48 461.25,-167.6"/>
</g>
<!-- ../../SML/apps/web/components/ui/input/input.tsx&#45;&gt;node_modules/.pnpm -->
<g id="edge9" class="edge">
<title>../../SML/apps/web/components/ui/input/input.tsx&#45;&gt;node_modules/.pnpm</title>
<path fill="none" stroke="#000000" stroke-opacity="0.200000" d="M382.17,-106.75C400.66,-105.74 425.67,-102.67 446,-94 459.59,-88.21 472.66,-77.78 482.04,-69.16"/>
<polygon fill="#000000" fill-opacity="0.200000" stroke="#000000" stroke-opacity="0.200000" points="483.37,-70.79 486.27,-65.13 480.47,-67.75 483.37,-70.79"/>
</g>
<!-- ../../SML/apps/web/components/ui/input/input.tsx&#45;&gt;@/lib/utils -->
<g id="edge8" class="edge">
<title>../../SML/apps/web/components/ui/input/input.tsx&#45;&gt;@/lib/utils</title>
<path fill="none" stroke="#000000" stroke-width="2" stroke-opacity="0.200000" d="M382.5,-107.43C400.92,-108.54 425.71,-111.65 446,-120 458.45,-125.12 470.63,-134.03 479.86,-141.82"/>
<polygon fill="#000000" fill-opacity="0.200000" stroke="#000000" stroke-width="2" stroke-opacity="0.200000" points="478.41,-143.34 484.29,-145.74 481.18,-140.19 478.41,-143.34"/>
</g>
</g>
</svg>
