<?xml version="1.0" encoding="UTF-8" standalone="no"?>
<!DOCTYPE svg PUBLIC "-//W3C//DTD SVG 1.1//EN"
 "http://www.w3.org/Graphics/SVG/1.1/DTD/svg11.dtd">
<!-- Generated by graphviz version 12.1.0 (20240811.2233)
 -->
<!-- Title: dependency&#45;cruiser output Pages: 1 -->
<svg width="345pt" height="326pt"
 viewBox="0.00 0.00 344.50 326.00" xmlns="http://www.w3.org/2000/svg" xmlns:xlink="http://www.w3.org/1999/xlink">
<g id="graph0" class="graph" transform="scale(1 1) rotate(0) translate(4 322)">
<title>dependency&#45;cruiser output</title>
<polygon fill="white" stroke="none" points="-4,4 -4,-322 340.5,-322 340.5,4 -4,4"/>
<g id="clust1" class="cluster">
<title>cluster_..</title>
<path fill="#ffffff" stroke="black" stroke-width="2" d="M20,-20C20,-20 222.5,-20 222.5,-20 228.5,-20 234.5,-26 234.5,-32 234.5,-32 234.5,-298 234.5,-298 234.5,-304 228.5,-310 222.5,-310 222.5,-310 20,-310 20,-310 14,-310 8,-304 8,-298 8,-298 8,-32 8,-32 8,-26 14,-20 20,-20"/>
<text text-anchor="middle" x="121.25" y="-297.45" font-family="Helvetica,sans-Serif" font-weight="bold" font-size="9.00">..</text>
</g>
<g id="clust2" class="cluster">
<title>cluster_../..</title>
<path fill="#ffffff" stroke="black" stroke-width="2" d="M28,-28C28,-28 214.5,-28 214.5,-28 220.5,-28 226.5,-34 226.5,-40 226.5,-40 226.5,-272 226.5,-272 226.5,-278 220.5,-284 214.5,-284 214.5,-284 28,-284 28,-284 22,-284 16,-278 16,-272 16,-272 16,-40 16,-40 16,-34 22,-28 28,-28"/>
<text text-anchor="middle" x="121.25" y="-271.45" font-family="Helvetica,sans-Serif" font-weight="bold" font-size="9.00">..</text>
</g>
<g id="clust3" class="cluster">
<title>cluster_../../SML</title>
<path fill="#ffffff" stroke="black" stroke-width="2" d="M36,-36C36,-36 206.5,-36 206.5,-36 212.5,-36 218.5,-42 218.5,-48 218.5,-48 218.5,-246 218.5,-246 218.5,-252 212.5,-258 206.5,-258 206.5,-258 36,-258 36,-258 30,-258 24,-252 24,-246 24,-246 24,-48 24,-48 24,-42 30,-36 36,-36"/>
<text text-anchor="middle" x="121.25" y="-245.45" font-family="Helvetica,sans-Serif" font-weight="bold" font-size="9.00">SML</text>
</g>
<g id="clust4" class="cluster">
<title>cluster_../../SML/apps</title>
<path fill="#ffffff" stroke="black" stroke-width="2" d="M44,-44C44,-44 198.5,-44 198.5,-44 204.5,-44 210.5,-50 210.5,-56 210.5,-56 210.5,-220 210.5,-220 210.5,-226 204.5,-232 198.5,-232 198.5,-232 44,-232 44,-232 38,-232 32,-226 32,-220 32,-220 32,-56 32,-56 32,-50 38,-44 44,-44"/>
<text text-anchor="middle" x="121.25" y="-219.45" font-family="Helvetica,sans-Serif" font-weight="bold" font-size="9.00">apps</text>
</g>
<g id="clust5" class="cluster">
<title>cluster_../../SML/apps/web</title>
<path fill="#ffffff" stroke="black" stroke-width="2" d="M52,-52C52,-52 190.5,-52 190.5,-52 196.5,-52 202.5,-58 202.5,-64 202.5,-64 202.5,-194 202.5,-194 202.5,-200 196.5,-206 190.5,-206 190.5,-206 52,-206 52,-206 46,-206 40,-200 40,-194 40,-194 40,-64 40,-64 40,-58 46,-52 52,-52"/>
<text text-anchor="middle" x="121.25" y="-193.45" font-family="Helvetica,sans-Serif" font-weight="bold" font-size="9.00">web</text>
</g>
<g id="clust6" class="cluster">
<title>cluster_../../SML/apps/web/components</title>
<path fill="#ffffff" stroke="black" stroke-width="2" d="M60,-60C60,-60 182.5,-60 182.5,-60 188.5,-60 194.5,-66 194.5,-72 194.5,-72 194.5,-168 194.5,-168 194.5,-174 188.5,-180 182.5,-180 182.5,-180 60,-180 60,-180 54,-180 48,-174 48,-168 48,-168 48,-72 48,-72 48,-66 54,-60 60,-60"/>
<text text-anchor="middle" x="121.25" y="-167.45" font-family="Helvetica,sans-Serif" font-weight="bold" font-size="9.00">components</text>
</g>
<g id="clust7" class="cluster">
<title>cluster_../../SML/apps/web/components/data&#45;preview</title>
<path fill="#ffffff" stroke="black" stroke-width="2" d="M68,-68C68,-68 174.5,-68 174.5,-68 180.5,-68 186.5,-74 186.5,-80 186.5,-80 186.5,-142 186.5,-142 186.5,-148 180.5,-154 174.5,-154 174.5,-154 68,-154 68,-154 62,-154 56,-148 56,-142 56,-142 56,-80 56,-80 56,-74 62,-68 68,-68"/>
<text text-anchor="middle" x="121.25" y="-141.45" font-family="Helvetica,sans-Serif" font-weight="bold" font-size="9.00">data&#45;preview</text>
</g>
<g id="clust8" class="cluster">
<title>cluster_../../SML/apps/web/components/data&#45;preview/table&#45;utilities</title>
<path fill="#ffffff" stroke="black" stroke-width="2" d="M76,-76C76,-76 166.5,-76 166.5,-76 172.5,-76 178.5,-82 178.5,-88 178.5,-88 178.5,-116 178.5,-116 178.5,-122 172.5,-128 166.5,-128 166.5,-128 76,-128 76,-128 70,-128 64,-122 64,-116 64,-116 64,-88 64,-88 64,-82 70,-76 76,-76"/>
<text text-anchor="middle" x="121.25" y="-115.45" font-family="Helvetica,sans-Serif" font-weight="bold" font-size="9.00">table&#45;utilities</text>
</g>
<g id="clust9" class="cluster">
<title>cluster_@</title>
<path fill="#ffffff" stroke="black" stroke-width="2" d="M254.5,-68C254.5,-68 316.5,-68 316.5,-68 322.5,-68 328.5,-74 328.5,-80 328.5,-80 328.5,-202 328.5,-202 328.5,-208 322.5,-214 316.5,-214 316.5,-214 254.5,-214 254.5,-214 248.5,-214 242.5,-208 242.5,-202 242.5,-202 242.5,-80 242.5,-80 242.5,-74 248.5,-68 254.5,-68"/>
<text text-anchor="middle" x="285.5" y="-201.45" font-family="Helvetica,sans-Serif" font-weight="bold" font-size="9.00">@</text>
</g>
<g id="clust10" class="cluster">
<title>cluster_@/components</title>
<path fill="#ffffff" stroke="black" stroke-width="2" d="M262.5,-76C262.5,-76 308.5,-76 308.5,-76 314.5,-76 320.5,-82 320.5,-88 320.5,-88 320.5,-116 320.5,-116 320.5,-122 314.5,-128 308.5,-128 308.5,-128 262.5,-128 262.5,-128 256.5,-128 250.5,-122 250.5,-116 250.5,-116 250.5,-88 250.5,-88 250.5,-82 256.5,-76 262.5,-76"/>
<text text-anchor="middle" x="285.5" y="-115.45" font-family="Helvetica,sans-Serif" font-weight="bold" font-size="9.00">components</text>
</g>
<g id="clust11" class="cluster">
<title>cluster_@/lib</title>
<path fill="#ffffff" stroke="black" stroke-width="2" d="M262.5,-136C262.5,-136 308.5,-136 308.5,-136 314.5,-136 320.5,-142 320.5,-148 320.5,-148 320.5,-176 320.5,-176 320.5,-182 314.5,-188 308.5,-188 308.5,-188 262.5,-188 262.5,-188 256.5,-188 250.5,-182 250.5,-176 250.5,-176 250.5,-148 250.5,-148 250.5,-142 256.5,-136 262.5,-136"/>
<text text-anchor="middle" x="285.5" y="-175.45" font-family="Helvetica,sans-Serif" font-weight="bold" font-size="9.00">lib</text>
</g>
<g id="clust12" class="cluster">
<title>cluster_node_modules</title>
<path fill="#ffffff" stroke="black" stroke-width="2" d="M258.5,-8C258.5,-8 313.5,-8 313.5,-8 319.5,-8 325.5,-14 325.5,-20 325.5,-20 325.5,-48 325.5,-48 325.5,-54 319.5,-60 313.5,-60 313.5,-60 258.5,-60 258.5,-60 252.5,-60 246.5,-54 246.5,-48 246.5,-48 246.5,-20 246.5,-20 246.5,-14 252.5,-8 258.5,-8"/>
<text text-anchor="middle" x="286" y="-47.45" font-family="Helvetica,sans-Serif" font-weight="bold" font-size="9.00">node_modules</text>
</g>
<!-- ../../SML/apps/web/components/data&#45;preview/table&#45;utilities/generate&#45;header.tsx -->
<g id="node1" class="node">
<title>../../SML/apps/web/components/data&#45;preview/table&#45;utilities/generate&#45;header.tsx</title>
<g id="a_node1"><a xlink:href="../../SML/apps/web/components/data-preview/table-utilities/generate-header.tsx" xlink:title="generate&#45;header.tsx">
<path fill="#bbfeff" stroke="black" d="M164.58,-101.88C164.58,-101.88 77.92,-101.88 77.92,-101.88 74.96,-101.88 72,-98.92 72,-95.96 72,-95.96 72,-90.04 72,-90.04 72,-87.08 74.96,-84.12 77.92,-84.12 77.92,-84.12 164.58,-84.12 164.58,-84.12 167.54,-84.12 170.5,-87.08 170.5,-90.04 170.5,-90.04 170.5,-95.96 170.5,-95.96 170.5,-98.92 167.54,-101.88 164.58,-101.88"/>
<text text-anchor="start" x="80" y="-89.33" font-family="Helvetica,sans-Serif" font-size="9.00">generate&#45;header.tsx</text>
</a>
</g>
</g>
<!-- @/components/icons -->
<g id="node2" class="node">
<title>@/components/icons</title>
<g id="a_node2"><a xlink:title="icons">
<path fill="#ffffcc" stroke="black" d="M306.58,-101.88C306.58,-101.88 264.42,-101.88 264.42,-101.88 261.46,-101.88 258.5,-98.92 258.5,-95.96 258.5,-95.96 258.5,-90.04 258.5,-90.04 258.5,-87.08 261.46,-84.12 264.42,-84.12 264.42,-84.12 306.58,-84.12 306.58,-84.12 309.54,-84.12 312.5,-87.08 312.5,-90.04 312.5,-90.04 312.5,-95.96 312.5,-95.96 312.5,-98.92 309.54,-101.88 306.58,-101.88"/>
<text text-anchor="start" x="274.62" y="-89.33" font-family="Helvetica,sans-Serif" font-size="9.00">icons</text>
</a>
</g>
</g>
<!-- ../../SML/apps/web/components/data&#45;preview/table&#45;utilities/generate&#45;header.tsx&#45;&gt;@/components/icons -->
<g id="edge1" class="edge">
<title>../../SML/apps/web/components/data&#45;preview/table&#45;utilities/generate&#45;header.tsx&#45;&gt;@/components/icons</title>
<path fill="none" stroke="#000000" stroke-width="2" stroke-opacity="0.200000" d="M170.93,-93C196.03,-93 226.1,-93 248.99,-93"/>
<polygon fill="#000000" fill-opacity="0.200000" stroke="#000000" stroke-width="2" stroke-opacity="0.200000" points="248.98,-95.1 254.98,-93 248.98,-90.9 248.98,-95.1"/>
</g>
<!-- @/lib/utils -->
<g id="node3" class="node">
<title>@/lib/utils</title>
<g id="a_node3"><a xlink:title="utils">
<path fill="#ffffcc" stroke="black" d="M306.58,-161.88C306.58,-161.88 264.42,-161.88 264.42,-161.88 261.46,-161.88 258.5,-158.92 258.5,-155.96 258.5,-155.96 258.5,-150.04 258.5,-150.04 258.5,-147.08 261.46,-144.12 264.42,-144.12 264.42,-144.12 306.58,-144.12 306.58,-144.12 309.54,-144.12 312.5,-147.08 312.5,-150.04 312.5,-150.04 312.5,-155.96 312.5,-155.96 312.5,-158.92 309.54,-161.88 306.58,-161.88"/>
<text text-anchor="start" x="277.25" y="-149.32" font-family="Helvetica,sans-Serif" font-size="9.00">utils</text>
</a>
</g>
</g>
<!-- ../../SML/apps/web/components/data&#45;preview/table&#45;utilities/generate&#45;header.tsx&#45;&gt;@/lib/utils -->
<g id="edge2" class="edge">
<title>../../SML/apps/web/components/data&#45;preview/table&#45;utilities/generate&#45;header.tsx&#45;&gt;@/lib/utils</title>
<path fill="none" stroke="#000000" stroke-width="2" stroke-opacity="0.200000" d="M147.6,-102.38C175.46,-112.68 220.34,-129.27 251.06,-140.63"/>
<polygon fill="#000000" fill-opacity="0.200000" stroke="#000000" stroke-width="2" stroke-opacity="0.200000" points="250.13,-142.53 256.49,-142.64 251.59,-138.59 250.13,-142.53"/>
</g>
<!-- node_modules/.pnpm -->
<g id="node4" class="node">
<title>node_modules/.pnpm</title>
<g id="a_node4"><a xlink:href="https://www.npmjs.com/package/.pnpm" xlink:title=".pnpm">
<polygon fill="#c40b0a" fill-opacity="0.101961" stroke="black" points="312.5,-33.88 260.47,-33.88 258.5,-31.9 258.5,-16.12 310.53,-16.12 312.5,-18.1 312.5,-33.88"/>
<polyline fill="none" stroke="black" points="310.53,-31.9 258.5,-31.9"/>
<polyline fill="none" stroke="black" points="310.53,-31.9 310.53,-16.12"/>
<polyline fill="none" stroke="black" points="310.53,-31.9 312.5,-33.88"/>
<text text-anchor="start" x="272.75" y="-21.32" font-family="Helvetica,sans-Serif" font-size="9.00" fill="#c40b0a">.pnpm</text>
</a>
</g>
</g>
<!-- ../../SML/apps/web/components/data&#45;preview/table&#45;utilities/generate&#45;header.tsx&#45;&gt;node_modules/.pnpm -->
<g id="edge3" class="edge">
<title>../../SML/apps/web/components/data&#45;preview/table&#45;utilities/generate&#45;header.tsx&#45;&gt;node_modules/.pnpm</title>
<path fill="none" stroke="#000000" stroke-opacity="0.200000" d="M144.47,-83.69C173.28,-71.61 223.58,-50.53 255.4,-37.2"/>
<polygon fill="#000000" fill-opacity="0.200000" stroke="#000000" stroke-opacity="0.200000" points="256.17,-39.15 260.89,-34.89 254.55,-35.28 256.17,-39.15"/>
</g>
</g>
</svg>
