<?xml version="1.0" encoding="UTF-8" standalone="no"?>
<!DOCTYPE svg PUBLIC "-//W3C//DTD SVG 1.1//EN"
 "http://www.w3.org/Graphics/SVG/1.1/DTD/svg11.dtd">
<!-- Generated by graphviz version 12.1.0 (20240811.2233)
 -->
<!-- Title: dependency&#45;cruiser output Pages: 1 -->
<svg width="361pt" height="334pt"
 viewBox="0.00 0.00 361.25 334.00" xmlns="http://www.w3.org/2000/svg" xmlns:xlink="http://www.w3.org/1999/xlink">
<g id="graph0" class="graph" transform="scale(1 1) rotate(0) translate(4 330)">
<title>dependency&#45;cruiser output</title>
<polygon fill="white" stroke="none" points="-4,4 -4,-330 357.25,-330 357.25,4 -4,4"/>
<g id="clust1" class="cluster">
<title>cluster_..</title>
<path fill="#ffffff" stroke="black" stroke-width="2" d="M20,-28C20,-28 223.25,-28 223.25,-28 229.25,-28 235.25,-34 235.25,-40 235.25,-40 235.25,-306 235.25,-306 235.25,-312 229.25,-318 223.25,-318 223.25,-318 20,-318 20,-318 14,-318 8,-312 8,-306 8,-306 8,-40 8,-40 8,-34 14,-28 20,-28"/>
<text text-anchor="middle" x="121.62" y="-305.45" font-family="Helvetica,sans-Serif" font-weight="bold" font-size="9.00">..</text>
</g>
<g id="clust2" class="cluster">
<title>cluster_../..</title>
<path fill="#ffffff" stroke="black" stroke-width="2" d="M28,-36C28,-36 215.25,-36 215.25,-36 221.25,-36 227.25,-42 227.25,-48 227.25,-48 227.25,-280 227.25,-280 227.25,-286 221.25,-292 215.25,-292 215.25,-292 28,-292 28,-292 22,-292 16,-286 16,-280 16,-280 16,-48 16,-48 16,-42 22,-36 28,-36"/>
<text text-anchor="middle" x="121.62" y="-279.45" font-family="Helvetica,sans-Serif" font-weight="bold" font-size="9.00">..</text>
</g>
<g id="clust3" class="cluster">
<title>cluster_../../SML</title>
<path fill="#ffffff" stroke="black" stroke-width="2" d="M36,-44C36,-44 207.25,-44 207.25,-44 213.25,-44 219.25,-50 219.25,-56 219.25,-56 219.25,-254 219.25,-254 219.25,-260 213.25,-266 207.25,-266 207.25,-266 36,-266 36,-266 30,-266 24,-260 24,-254 24,-254 24,-56 24,-56 24,-50 30,-44 36,-44"/>
<text text-anchor="middle" x="121.62" y="-253.45" font-family="Helvetica,sans-Serif" font-weight="bold" font-size="9.00">SML</text>
</g>
<g id="clust4" class="cluster">
<title>cluster_../../SML/apps</title>
<path fill="#ffffff" stroke="black" stroke-width="2" d="M44,-52C44,-52 199.25,-52 199.25,-52 205.25,-52 211.25,-58 211.25,-64 211.25,-64 211.25,-228 211.25,-228 211.25,-234 205.25,-240 199.25,-240 199.25,-240 44,-240 44,-240 38,-240 32,-234 32,-228 32,-228 32,-64 32,-64 32,-58 38,-52 44,-52"/>
<text text-anchor="middle" x="121.62" y="-227.45" font-family="Helvetica,sans-Serif" font-weight="bold" font-size="9.00">apps</text>
</g>
<g id="clust5" class="cluster">
<title>cluster_../../SML/apps/web</title>
<path fill="#ffffff" stroke="black" stroke-width="2" d="M52,-60C52,-60 191.25,-60 191.25,-60 197.25,-60 203.25,-66 203.25,-72 203.25,-72 203.25,-202 203.25,-202 203.25,-208 197.25,-214 191.25,-214 191.25,-214 52,-214 52,-214 46,-214 40,-208 40,-202 40,-202 40,-72 40,-72 40,-66 46,-60 52,-60"/>
<text text-anchor="middle" x="121.62" y="-201.45" font-family="Helvetica,sans-Serif" font-weight="bold" font-size="9.00">web</text>
</g>
<g id="clust6" class="cluster">
<title>cluster_../../SML/apps/web/components</title>
<path fill="#ffffff" stroke="black" stroke-width="2" d="M60,-68C60,-68 183.25,-68 183.25,-68 189.25,-68 195.25,-74 195.25,-80 195.25,-80 195.25,-176 195.25,-176 195.25,-182 189.25,-188 183.25,-188 183.25,-188 60,-188 60,-188 54,-188 48,-182 48,-176 48,-176 48,-80 48,-80 48,-74 54,-68 60,-68"/>
<text text-anchor="middle" x="121.62" y="-175.45" font-family="Helvetica,sans-Serif" font-weight="bold" font-size="9.00">components</text>
</g>
<g id="clust7" class="cluster">
<title>cluster_../../SML/apps/web/components/data&#45;preview</title>
<path fill="#ffffff" stroke="black" stroke-width="2" d="M68,-76C68,-76 175.25,-76 175.25,-76 181.25,-76 187.25,-82 187.25,-88 187.25,-88 187.25,-150 187.25,-150 187.25,-156 181.25,-162 175.25,-162 175.25,-162 68,-162 68,-162 62,-162 56,-156 56,-150 56,-150 56,-88 56,-88 56,-82 62,-76 68,-76"/>
<text text-anchor="middle" x="121.62" y="-149.45" font-family="Helvetica,sans-Serif" font-weight="bold" font-size="9.00">data&#45;preview</text>
</g>
<g id="clust8" class="cluster">
<title>cluster_../../SML/apps/web/components/data&#45;preview/table&#45;utilities</title>
<path fill="#ffffff" stroke="black" stroke-width="2" d="M76,-84C76,-84 167.25,-84 167.25,-84 173.25,-84 179.25,-90 179.25,-96 179.25,-96 179.25,-124 179.25,-124 179.25,-130 173.25,-136 167.25,-136 167.25,-136 76,-136 76,-136 70,-136 64,-130 64,-124 64,-124 64,-96 64,-96 64,-90 70,-84 76,-84"/>
<text text-anchor="middle" x="121.62" y="-123.45" font-family="Helvetica,sans-Serif" font-weight="bold" font-size="9.00">table&#45;utilities</text>
</g>
<g id="clust9" class="cluster">
<title>cluster_@</title>
<path fill="#ffffff" stroke="black" stroke-width="2" d="M255.25,-68C255.25,-68 333.25,-68 333.25,-68 339.25,-68 345.25,-74 345.25,-80 345.25,-80 345.25,-202 345.25,-202 345.25,-208 339.25,-214 333.25,-214 333.25,-214 255.25,-214 255.25,-214 249.25,-214 243.25,-208 243.25,-202 243.25,-202 243.25,-80 243.25,-80 243.25,-74 249.25,-68 255.25,-68"/>
<text text-anchor="middle" x="294.25" y="-201.45" font-family="Helvetica,sans-Serif" font-weight="bold" font-size="9.00">@</text>
</g>
<g id="clust10" class="cluster">
<title>cluster_@/components</title>
<path fill="#ffffff" stroke="black" stroke-width="2" d="M263.25,-76C263.25,-76 325.25,-76 325.25,-76 331.25,-76 337.25,-82 337.25,-88 337.25,-88 337.25,-176 337.25,-176 337.25,-182 331.25,-188 325.25,-188 325.25,-188 263.25,-188 263.25,-188 257.25,-188 251.25,-182 251.25,-176 251.25,-176 251.25,-88 251.25,-88 251.25,-82 257.25,-76 263.25,-76"/>
<text text-anchor="middle" x="294.25" y="-175.45" font-family="Helvetica,sans-Serif" font-weight="bold" font-size="9.00">components</text>
</g>
<g id="clust11" class="cluster">
<title>cluster_@/components/ui</title>
<path fill="#ffffff" stroke="black" stroke-width="2" d="M271.25,-84C271.25,-84 317.25,-84 317.25,-84 323.25,-84 329.25,-90 329.25,-96 329.25,-96 329.25,-124 329.25,-124 329.25,-130 323.25,-136 317.25,-136 317.25,-136 271.25,-136 271.25,-136 265.25,-136 259.25,-130 259.25,-124 259.25,-124 259.25,-96 259.25,-96 259.25,-90 265.25,-84 271.25,-84"/>
<text text-anchor="middle" x="294.25" y="-123.45" font-family="Helvetica,sans-Serif" font-weight="bold" font-size="9.00">ui</text>
</g>
<g id="clust12" class="cluster">
<title>cluster_node_modules</title>
<path fill="#ffffff" stroke="black" stroke-width="2" d="M267.25,-8C267.25,-8 322.25,-8 322.25,-8 328.25,-8 334.25,-14 334.25,-20 334.25,-20 334.25,-48 334.25,-48 334.25,-54 328.25,-60 322.25,-60 322.25,-60 267.25,-60 267.25,-60 261.25,-60 255.25,-54 255.25,-48 255.25,-48 255.25,-20 255.25,-20 255.25,-14 261.25,-8 267.25,-8"/>
<text text-anchor="middle" x="294.75" y="-47.45" font-family="Helvetica,sans-Serif" font-weight="bold" font-size="9.00">node_modules</text>
</g>
<!-- ../../SML/apps/web/components/data&#45;preview/table&#45;utilities/debounced&#45;input.tsx -->
<g id="node1" class="node">
<title>../../SML/apps/web/components/data&#45;preview/table&#45;utilities/debounced&#45;input.tsx</title>
<g id="a_node1"><a xlink:href="../../SML/apps/web/components/data-preview/table-utilities/debounced-input.tsx" xlink:title="debounced&#45;input.tsx">
<path fill="#bbfeff" stroke="black" d="M165.33,-109.88C165.33,-109.88 77.92,-109.88 77.92,-109.88 74.96,-109.88 72,-106.92 72,-103.96 72,-103.96 72,-98.04 72,-98.04 72,-95.08 74.96,-92.12 77.92,-92.12 77.92,-92.12 165.33,-92.12 165.33,-92.12 168.29,-92.12 171.25,-95.08 171.25,-98.04 171.25,-98.04 171.25,-103.96 171.25,-103.96 171.25,-106.92 168.29,-109.88 165.33,-109.88"/>
<text text-anchor="start" x="80" y="-97.33" font-family="Helvetica,sans-Serif" font-size="9.00">debounced&#45;input.tsx</text>
</a>
</g>
</g>
<!-- @/components/icons -->
<g id="node2" class="node">
<title>@/components/icons</title>
<g id="a_node2"><a xlink:title="icons">
<path fill="#ffffcc" stroke="black" d="M315.33,-161.88C315.33,-161.88 273.17,-161.88 273.17,-161.88 270.21,-161.88 267.25,-158.92 267.25,-155.96 267.25,-155.96 267.25,-150.04 267.25,-150.04 267.25,-147.08 270.21,-144.12 273.17,-144.12 273.17,-144.12 315.33,-144.12 315.33,-144.12 318.29,-144.12 321.25,-147.08 321.25,-150.04 321.25,-150.04 321.25,-155.96 321.25,-155.96 321.25,-158.92 318.29,-161.88 315.33,-161.88"/>
<text text-anchor="start" x="283.38" y="-149.32" font-family="Helvetica,sans-Serif" font-size="9.00">icons</text>
</a>
</g>
</g>
<!-- ../../SML/apps/web/components/data&#45;preview/table&#45;utilities/debounced&#45;input.tsx&#45;&gt;@/components/icons -->
<g id="edge1" class="edge">
<title>../../SML/apps/web/components/data&#45;preview/table&#45;utilities/debounced&#45;input.tsx&#45;&gt;@/components/icons</title>
<path fill="none" stroke="#000000" stroke-width="2" stroke-opacity="0.200000" d="M151.3,-110.32C175.69,-118.18 211.68,-129.61 243.25,-139 248.18,-140.47 253.39,-141.97 258.51,-143.43"/>
<polygon fill="#000000" fill-opacity="0.200000" stroke="#000000" stroke-width="2" stroke-opacity="0.200000" points="257.74,-145.39 264.08,-145 258.88,-141.35 257.74,-145.39"/>
</g>
<!-- @/components/ui/button -->
<g id="node3" class="node">
<title>@/components/ui/button</title>
<g id="a_node3"><a xlink:title="button">
<path fill="#ffffcc" stroke="black" d="M315.33,-109.88C315.33,-109.88 273.17,-109.88 273.17,-109.88 270.21,-109.88 267.25,-106.92 267.25,-103.96 267.25,-103.96 267.25,-98.04 267.25,-98.04 267.25,-95.08 270.21,-92.12 273.17,-92.12 273.17,-92.12 315.33,-92.12 315.33,-92.12 318.29,-92.12 321.25,-95.08 321.25,-98.04 321.25,-98.04 321.25,-103.96 321.25,-103.96 321.25,-106.92 318.29,-109.88 315.33,-109.88"/>
<text text-anchor="start" x="281.5" y="-97.33" font-family="Helvetica,sans-Serif" font-size="9.00">button</text>
</a>
</g>
</g>
<!-- ../../SML/apps/web/components/data&#45;preview/table&#45;utilities/debounced&#45;input.tsx&#45;&gt;@/components/ui/button -->
<g id="edge2" class="edge">
<title>../../SML/apps/web/components/data&#45;preview/table&#45;utilities/debounced&#45;input.tsx&#45;&gt;@/components/ui/button</title>
<path fill="none" stroke="#000000" stroke-width="2" stroke-opacity="0.200000" d="M171.52,-101C199.23,-101 233.26,-101 258.29,-101"/>
<polygon fill="#000000" fill-opacity="0.200000" stroke="#000000" stroke-width="2" stroke-opacity="0.200000" points="258.04,-103.1 264.04,-101 258.04,-98.9 258.04,-103.1"/>
</g>
<!-- node_modules/.pnpm -->
<g id="node4" class="node">
<title>node_modules/.pnpm</title>
<g id="a_node4"><a xlink:href="https://www.npmjs.com/package/.pnpm" xlink:title=".pnpm">
<polygon fill="#c40b0a" fill-opacity="0.101961" stroke="black" points="321.25,-33.88 269.22,-33.88 267.25,-31.9 267.25,-16.12 319.28,-16.12 321.25,-18.1 321.25,-33.88"/>
<polyline fill="none" stroke="black" points="319.28,-31.9 267.25,-31.9"/>
<polyline fill="none" stroke="black" points="319.28,-31.9 319.28,-16.12"/>
<polyline fill="none" stroke="black" points="319.28,-31.9 321.25,-33.88"/>
<text text-anchor="start" x="281.5" y="-21.32" font-family="Helvetica,sans-Serif" font-size="9.00" fill="#c40b0a">.pnpm</text>
</a>
</g>
</g>
<!-- ../../SML/apps/web/components/data&#45;preview/table&#45;utilities/debounced&#45;input.tsx&#45;&gt;node_modules/.pnpm -->
<g id="edge3" class="edge">
<title>../../SML/apps/web/components/data&#45;preview/table&#45;utilities/debounced&#45;input.tsx&#45;&gt;node_modules/.pnpm</title>
<path fill="none" stroke="#000000" stroke-opacity="0.200000" d="M143.55,-91.68C174.33,-77.97 231.86,-52.35 265.94,-37.17"/>
<polygon fill="#000000" fill-opacity="0.200000" stroke="#000000" stroke-opacity="0.200000" points="266.42,-39.25 271.04,-34.89 264.71,-35.42 266.42,-39.25"/>
</g>
</g>
</svg>
