<?xml version="1.0" encoding="UTF-8" standalone="no"?>
<!DOCTYPE svg PUBLIC "-//W3C//DTD SVG 1.1//EN"
 "http://www.w3.org/Graphics/SVG/1.1/DTD/svg11.dtd">
<!-- Generated by graphviz version 12.1.0 (20240811.2233)
 -->
<!-- Title: dependency&#45;cruiser output Pages: 1 -->
<svg width="481pt" height="678pt"
 viewBox="0.00 0.00 481.25 678.00" xmlns="http://www.w3.org/2000/svg" xmlns:xlink="http://www.w3.org/1999/xlink">
<g id="graph0" class="graph" transform="scale(1 1) rotate(0) translate(4 674)">
<title>dependency&#45;cruiser output</title>
<polygon fill="white" stroke="none" points="-4,4 -4,-674 477.25,-674 477.25,4 -4,4"/>
<g id="clust1" class="cluster">
<title>cluster_..</title>
<path fill="#ffffff" stroke="black" stroke-width="2" d="M20,-372C20,-372 453.25,-372 453.25,-372 459.25,-372 465.25,-378 465.25,-384 465.25,-384 465.25,-650 465.25,-650 465.25,-656 459.25,-662 453.25,-662 453.25,-662 20,-662 20,-662 14,-662 8,-656 8,-650 8,-650 8,-384 8,-384 8,-378 14,-372 20,-372"/>
<text text-anchor="middle" x="236.62" y="-649.45" font-family="Helvetica,sans-Serif" font-weight="bold" font-size="9.00">..</text>
</g>
<g id="clust2" class="cluster">
<title>cluster_../..</title>
<path fill="#ffffff" stroke="black" stroke-width="2" d="M28,-380C28,-380 445.25,-380 445.25,-380 451.25,-380 457.25,-386 457.25,-392 457.25,-392 457.25,-624 457.25,-624 457.25,-630 451.25,-636 445.25,-636 445.25,-636 28,-636 28,-636 22,-636 16,-630 16,-624 16,-624 16,-392 16,-392 16,-386 22,-380 28,-380"/>
<text text-anchor="middle" x="236.62" y="-623.45" font-family="Helvetica,sans-Serif" font-weight="bold" font-size="9.00">..</text>
</g>
<g id="clust3" class="cluster">
<title>cluster_../../SML</title>
<path fill="#ffffff" stroke="black" stroke-width="2" d="M36,-388C36,-388 437.25,-388 437.25,-388 443.25,-388 449.25,-394 449.25,-400 449.25,-400 449.25,-598 449.25,-598 449.25,-604 443.25,-610 437.25,-610 437.25,-610 36,-610 36,-610 30,-610 24,-604 24,-598 24,-598 24,-400 24,-400 24,-394 30,-388 36,-388"/>
<text text-anchor="middle" x="236.62" y="-597.45" font-family="Helvetica,sans-Serif" font-weight="bold" font-size="9.00">SML</text>
</g>
<g id="clust4" class="cluster">
<title>cluster_../../SML/apps</title>
<path fill="#ffffff" stroke="black" stroke-width="2" d="M44,-396C44,-396 228.5,-396 228.5,-396 234.5,-396 240.5,-402 240.5,-408 240.5,-408 240.5,-538 240.5,-538 240.5,-544 234.5,-550 228.5,-550 228.5,-550 44,-550 44,-550 38,-550 32,-544 32,-538 32,-538 32,-408 32,-408 32,-402 38,-396 44,-396"/>
<text text-anchor="middle" x="136.25" y="-537.45" font-family="Helvetica,sans-Serif" font-weight="bold" font-size="9.00">apps</text>
</g>
<g id="clust5" class="cluster">
<title>cluster_../../SML/apps/web</title>
<path fill="#ffffff" stroke="black" stroke-width="2" d="M52,-404C52,-404 220.5,-404 220.5,-404 226.5,-404 232.5,-410 232.5,-416 232.5,-416 232.5,-512 232.5,-512 232.5,-518 226.5,-524 220.5,-524 220.5,-524 52,-524 52,-524 46,-524 40,-518 40,-512 40,-512 40,-416 40,-416 40,-410 46,-404 52,-404"/>
<text text-anchor="middle" x="136.25" y="-511.45" font-family="Helvetica,sans-Serif" font-weight="bold" font-size="9.00">web</text>
</g>
<g id="clust6" class="cluster">
<title>cluster_../../SML/apps/web/components</title>
<path fill="#ffffff" stroke="black" stroke-width="2" d="M60,-412C60,-412 212.5,-412 212.5,-412 218.5,-412 224.5,-418 224.5,-424 224.5,-424 224.5,-486 224.5,-486 224.5,-492 218.5,-498 212.5,-498 212.5,-498 60,-498 60,-498 54,-498 48,-492 48,-486 48,-486 48,-424 48,-424 48,-418 54,-412 60,-412"/>
<text text-anchor="middle" x="136.25" y="-485.45" font-family="Helvetica,sans-Serif" font-weight="bold" font-size="9.00">components</text>
</g>
<g id="clust7" class="cluster">
<title>cluster_../../SML/apps/web/components/focus&#45;panel</title>
<path fill="#ffffff" stroke="black" stroke-width="2" d="M68,-420C68,-420 204.5,-420 204.5,-420 210.5,-420 216.5,-426 216.5,-432 216.5,-432 216.5,-460 216.5,-460 216.5,-466 210.5,-472 204.5,-472 204.5,-472 68,-472 68,-472 62,-472 56,-466 56,-460 56,-460 56,-432 56,-432 56,-426 62,-420 68,-420"/>
<text text-anchor="middle" x="136.25" y="-459.45" font-family="Helvetica,sans-Serif" font-weight="bold" font-size="9.00">focus&#45;panel</text>
</g>
<g id="clust8" class="cluster">
<title>cluster_../../SML/packages</title>
<path fill="#ffffff" stroke="black" stroke-width="2" d="M260.5,-396C260.5,-396 429.25,-396 429.25,-396 435.25,-396 441.25,-402 441.25,-408 441.25,-408 441.25,-572 441.25,-572 441.25,-578 435.25,-584 429.25,-584 429.25,-584 260.5,-584 260.5,-584 254.5,-584 248.5,-578 248.5,-572 248.5,-572 248.5,-408 248.5,-408 248.5,-402 254.5,-396 260.5,-396"/>
<text text-anchor="middle" x="344.88" y="-571.45" font-family="Helvetica,sans-Serif" font-weight="bold" font-size="9.00">packages</text>
</g>
<g id="clust9" class="cluster">
<title>cluster_../../SML/packages/selectors</title>
<path fill="#ffffff" stroke="black" stroke-width="2" d="M268.5,-404C268.5,-404 421.25,-404 421.25,-404 427.25,-404 433.25,-410 433.25,-416 433.25,-416 433.25,-546 433.25,-546 433.25,-552 427.25,-558 421.25,-558 421.25,-558 268.5,-558 268.5,-558 262.5,-558 256.5,-552 256.5,-546 256.5,-546 256.5,-416 256.5,-416 256.5,-410 262.5,-404 268.5,-404"/>
<text text-anchor="middle" x="344.88" y="-545.45" font-family="Helvetica,sans-Serif" font-weight="bold" font-size="9.00">selectors</text>
</g>
<g id="clust10" class="cluster">
<title>cluster_../../SML/packages/selectors/src</title>
<path fill="#ffffff" stroke="black" stroke-width="2" d="M276.5,-412C276.5,-412 413.25,-412 413.25,-412 419.25,-412 425.25,-418 425.25,-424 425.25,-424 425.25,-520 425.25,-520 425.25,-526 419.25,-532 413.25,-532 413.25,-532 276.5,-532 276.5,-532 270.5,-532 264.5,-526 264.5,-520 264.5,-520 264.5,-424 264.5,-424 264.5,-418 270.5,-412 276.5,-412"/>
<text text-anchor="middle" x="344.88" y="-519.45" font-family="Helvetica,sans-Serif" font-weight="bold" font-size="9.00">src</text>
</g>
<g id="clust11" class="cluster">
<title>cluster_../../SML/packages/selectors/src/components</title>
<path fill="#ffffff" stroke="black" stroke-width="2" d="M284.5,-420C284.5,-420 405.25,-420 405.25,-420 411.25,-420 417.25,-426 417.25,-432 417.25,-432 417.25,-494 417.25,-494 417.25,-500 411.25,-506 405.25,-506 405.25,-506 284.5,-506 284.5,-506 278.5,-506 272.5,-500 272.5,-494 272.5,-494 272.5,-432 272.5,-432 272.5,-426 278.5,-420 284.5,-420"/>
<text text-anchor="middle" x="344.88" y="-493.45" font-family="Helvetica,sans-Serif" font-weight="bold" font-size="9.00">components</text>
</g>
<g id="clust12" class="cluster">
<title>cluster_../../SML/packages/selectors/src/components/focus&#45;panel</title>
<path fill="#ffffff" stroke="black" stroke-width="2" d="M292.5,-428C292.5,-428 397.25,-428 397.25,-428 403.25,-428 409.25,-434 409.25,-440 409.25,-440 409.25,-468 409.25,-468 409.25,-474 403.25,-480 397.25,-480 397.25,-480 292.5,-480 292.5,-480 286.5,-480 280.5,-474 280.5,-468 280.5,-468 280.5,-440 280.5,-440 280.5,-434 286.5,-428 292.5,-428"/>
<text text-anchor="middle" x="344.88" y="-467.45" font-family="Helvetica,sans-Serif" font-weight="bold" font-size="9.00">focus&#45;panel</text>
</g>
<g id="clust13" class="cluster">
<title>cluster_@</title>
<path fill="#ffffff" stroke="black" stroke-width="2" d="M298,-68C298,-68 391.75,-68 391.75,-68 397.75,-68 403.75,-74 403.75,-80 403.75,-80 403.75,-352 403.75,-352 403.75,-358 397.75,-364 391.75,-364 391.75,-364 298,-364 298,-364 292,-364 286,-358 286,-352 286,-352 286,-80 286,-80 286,-74 292,-68 298,-68"/>
<text text-anchor="middle" x="344.88" y="-351.45" font-family="Helvetica,sans-Serif" font-weight="bold" font-size="9.00">@</text>
</g>
<g id="clust14" class="cluster">
<title>cluster_@/components</title>
<path fill="#ffffff" stroke="black" stroke-width="2" d="M313.88,-76C313.88,-76 375.88,-76 375.88,-76 381.88,-76 387.88,-82 387.88,-88 387.88,-88 387.88,-176 387.88,-176 387.88,-182 381.88,-188 375.88,-188 375.88,-188 313.88,-188 313.88,-188 307.88,-188 301.88,-182 301.88,-176 301.88,-176 301.88,-88 301.88,-88 301.88,-82 307.88,-76 313.88,-76"/>
<text text-anchor="middle" x="344.88" y="-175.45" font-family="Helvetica,sans-Serif" font-weight="bold" font-size="9.00">components</text>
</g>
<g id="clust15" class="cluster">
<title>cluster_@/components/ui</title>
<path fill="#ffffff" stroke="black" stroke-width="2" d="M321.88,-84C321.88,-84 367.88,-84 367.88,-84 373.88,-84 379.88,-90 379.88,-96 379.88,-96 379.88,-124 379.88,-124 379.88,-130 373.88,-136 367.88,-136 367.88,-136 321.88,-136 321.88,-136 315.88,-136 309.88,-130 309.88,-124 309.88,-124 309.88,-96 309.88,-96 309.88,-90 315.88,-84 321.88,-84"/>
<text text-anchor="middle" x="344.88" y="-123.45" font-family="Helvetica,sans-Serif" font-weight="bold" font-size="9.00">ui</text>
</g>
<g id="clust16" class="cluster">
<title>cluster_@/hooks</title>
<path fill="#ffffff" stroke="black" stroke-width="2" d="M307.88,-196C307.88,-196 381.88,-196 381.88,-196 387.88,-196 393.88,-202 393.88,-208 393.88,-208 393.88,-236 393.88,-236 393.88,-242 387.88,-248 381.88,-248 381.88,-248 307.88,-248 307.88,-248 301.88,-248 295.88,-242 295.88,-236 295.88,-236 295.88,-208 295.88,-208 295.88,-202 301.88,-196 307.88,-196"/>
<text text-anchor="middle" x="344.88" y="-235.45" font-family="Helvetica,sans-Serif" font-weight="bold" font-size="9.00">hooks</text>
</g>
<g id="clust17" class="cluster">
<title>cluster_@/store</title>
<path fill="#ffffff" stroke="black" stroke-width="2" d="M306,-256C306,-256 383.75,-256 383.75,-256 389.75,-256 395.75,-262 395.75,-268 395.75,-268 395.75,-326 395.75,-326 395.75,-332 389.75,-338 383.75,-338 383.75,-338 306,-338 306,-338 300,-338 294,-332 294,-326 294,-326 294,-268 294,-268 294,-262 300,-256 306,-256"/>
<text text-anchor="middle" x="344.88" y="-325.45" font-family="Helvetica,sans-Serif" font-weight="bold" font-size="9.00">store</text>
</g>
<g id="clust18" class="cluster">
<title>cluster_node_modules</title>
<path fill="#ffffff" stroke="black" stroke-width="2" d="M317.88,-8C317.88,-8 372.88,-8 372.88,-8 378.88,-8 384.88,-14 384.88,-20 384.88,-20 384.88,-48 384.88,-48 384.88,-54 378.88,-60 372.88,-60 372.88,-60 317.88,-60 317.88,-60 311.88,-60 305.88,-54 305.88,-48 305.88,-48 305.88,-20 305.88,-20 305.88,-14 311.88,-8 317.88,-8"/>
<text text-anchor="middle" x="345.38" y="-47.45" font-family="Helvetica,sans-Serif" font-weight="bold" font-size="9.00">node_modules</text>
</g>
<!-- ../../SML/apps/web/components/focus&#45;panel/focus&#45;panel.tsx -->
<g id="node1" class="node">
<title>../../SML/apps/web/components/focus&#45;panel/focus&#45;panel.tsx</title>
<g id="a_node1"><a xlink:href="../../SML/apps/web/components/focus-panel/focus-panel.tsx" xlink:title="focus&#45;panel.tsx">
<path fill="#bbfeff" stroke="black" d="M202.58,-445.88C202.58,-445.88 136.92,-445.88 136.92,-445.88 133.96,-445.88 131,-442.92 131,-439.96 131,-439.96 131,-434.04 131,-434.04 131,-431.08 133.96,-428.12 136.92,-428.12 136.92,-428.12 202.58,-428.12 202.58,-428.12 205.54,-428.12 208.5,-431.08 208.5,-434.04 208.5,-434.04 208.5,-439.96 208.5,-439.96 208.5,-442.92 205.54,-445.88 202.58,-445.88"/>
<text text-anchor="start" x="139" y="-433.32" font-family="Helvetica,sans-Serif" font-size="9.00">focus&#45;panel.tsx</text>
</a>
</g>
</g>
<!-- @/components/icons -->
<g id="node2" class="node">
<title>@/components/icons</title>
<g id="a_node2"><a xlink:title="icons">
<path fill="#ffffcc" stroke="black" d="M365.96,-161.88C365.96,-161.88 323.79,-161.88 323.79,-161.88 320.83,-161.88 317.88,-158.92 317.88,-155.96 317.88,-155.96 317.88,-150.04 317.88,-150.04 317.88,-147.08 320.83,-144.12 323.79,-144.12 323.79,-144.12 365.96,-144.12 365.96,-144.12 368.92,-144.12 371.88,-147.08 371.88,-150.04 371.88,-150.04 371.88,-155.96 371.88,-155.96 371.88,-158.92 368.92,-161.88 365.96,-161.88"/>
<text text-anchor="start" x="334" y="-149.32" font-family="Helvetica,sans-Serif" font-size="9.00">icons</text>
</a>
</g>
</g>
<!-- ../../SML/apps/web/components/focus&#45;panel/focus&#45;panel.tsx&#45;&gt;@/components/icons -->
<g id="edge1" class="edge">
<title>../../SML/apps/web/components/focus&#45;panel/focus&#45;panel.tsx&#45;&gt;@/components/icons</title>
<path fill="none" stroke="#000000" stroke-width="2" stroke-opacity="0.200000" d="M171.03,-427.68C172.6,-392.33 182.77,-264.83 248.5,-193 264.34,-175.69 288.86,-165.63 309.07,-159.93"/>
<polygon fill="#000000" fill-opacity="0.200000" stroke="#000000" stroke-width="2" stroke-opacity="0.200000" points="309.51,-161.98 314.78,-158.44 308.45,-157.92 309.51,-161.98"/>
</g>
<!-- @/components/ui/button -->
<g id="node3" class="node">
<title>@/components/ui/button</title>
<g id="a_node3"><a xlink:title="button">
<path fill="#ffffcc" stroke="black" d="M365.96,-109.88C365.96,-109.88 323.79,-109.88 323.79,-109.88 320.83,-109.88 317.88,-106.92 317.88,-103.96 317.88,-103.96 317.88,-98.04 317.88,-98.04 317.88,-95.08 320.83,-92.12 323.79,-92.12 323.79,-92.12 365.96,-92.12 365.96,-92.12 368.92,-92.12 371.88,-95.08 371.88,-98.04 371.88,-98.04 371.88,-103.96 371.88,-103.96 371.88,-106.92 368.92,-109.88 365.96,-109.88"/>
<text text-anchor="start" x="332.12" y="-97.33" font-family="Helvetica,sans-Serif" font-size="9.00">button</text>
</a>
</g>
</g>
<!-- ../../SML/apps/web/components/focus&#45;panel/focus&#45;panel.tsx&#45;&gt;@/components/ui/button -->
<g id="edge2" class="edge">
<title>../../SML/apps/web/components/focus&#45;panel/focus&#45;panel.tsx&#45;&gt;@/components/ui/button</title>
<path fill="none" stroke="#000000" stroke-width="2" stroke-opacity="0.200000" d="M171.59,-427.84C176.16,-379.85 199.72,-158.09 248.5,-114 264.52,-99.52 288.66,-96.34 308.65,-96.75"/>
<polygon fill="#000000" fill-opacity="0.200000" stroke="#000000" stroke-width="2" stroke-opacity="0.200000" points="308.38,-98.84 314.47,-97.02 308.58,-94.65 308.38,-98.84"/>
</g>
<!-- @/hooks/use&#45;focus&#45;panel -->
<g id="node4" class="node">
<title>@/hooks/use&#45;focus&#45;panel</title>
<g id="a_node4"><a xlink:title="use&#45;focus&#45;panel">
<path fill="#ffffcc" stroke="black" d="M379.96,-221.88C379.96,-221.88 309.79,-221.88 309.79,-221.88 306.83,-221.88 303.88,-218.92 303.88,-215.96 303.88,-215.96 303.88,-210.04 303.88,-210.04 303.88,-207.08 306.83,-204.12 309.79,-204.12 309.79,-204.12 379.96,-204.12 379.96,-204.12 382.92,-204.12 385.88,-207.08 385.88,-210.04 385.88,-210.04 385.88,-215.96 385.88,-215.96 385.88,-218.92 382.92,-221.88 379.96,-221.88"/>
<text text-anchor="start" x="311.88" y="-209.32" font-family="Helvetica,sans-Serif" font-size="9.00">use&#45;focus&#45;panel</text>
</a>
</g>
</g>
<!-- ../../SML/apps/web/components/focus&#45;panel/focus&#45;panel.tsx&#45;&gt;@/hooks/use&#45;focus&#45;panel -->
<g id="edge3" class="edge">
<title>../../SML/apps/web/components/focus&#45;panel/focus&#45;panel.tsx&#45;&gt;@/hooks/use&#45;focus&#45;panel</title>
<path fill="none" stroke="#000000" stroke-width="2" stroke-opacity="0.200000" d="M172.1,-428C176.93,-398.77 195.95,-305.41 248.5,-253 261.28,-240.26 278.72,-231.36 295.19,-225.24"/>
<polygon fill="#000000" fill-opacity="0.200000" stroke="#000000" stroke-width="2" stroke-opacity="0.200000" points="295.85,-227.24 300.83,-223.29 294.47,-223.27 295.85,-227.24"/>
</g>
<!-- @/store/store -->
<g id="node5" class="node">
<title>@/store/store</title>
<g id="a_node5"><a xlink:title="store">
<path fill="#ffffcc" stroke="black" d="M365.96,-281.88C365.96,-281.88 323.79,-281.88 323.79,-281.88 320.83,-281.88 317.88,-278.92 317.88,-275.96 317.88,-275.96 317.88,-270.04 317.88,-270.04 317.88,-267.08 320.83,-264.12 323.79,-264.12 323.79,-264.12 365.96,-264.12 365.96,-264.12 368.92,-264.12 371.88,-267.08 371.88,-270.04 371.88,-270.04 371.88,-275.96 371.88,-275.96 371.88,-278.92 368.92,-281.88 365.96,-281.88"/>
<text text-anchor="middle" x="344.88" y="-269.32" font-family="Helvetica,sans-Serif" font-size="9.00">store</text>
</a>
</g>
</g>
<!-- ../../SML/apps/web/components/focus&#45;panel/focus&#45;panel.tsx&#45;&gt;@/store/store -->
<g id="edge4" class="edge">
<title>../../SML/apps/web/components/focus&#45;panel/focus&#45;panel.tsx&#45;&gt;@/store/store</title>
<path fill="none" stroke="#000000" stroke-width="2" stroke-opacity="0.200000" d="M172.56,-427.76C178.3,-401.11 198.73,-323.75 248.5,-288 265.78,-275.59 289.36,-271.8 308.75,-271.13"/>
<polygon fill="#000000" fill-opacity="0.200000" stroke="#000000" stroke-width="2" stroke-opacity="0.200000" points="308.61,-273.23 314.58,-271.06 308.56,-269.03 308.61,-273.23"/>
</g>
<!-- @/store/use&#45;state&#45;context -->
<g id="node6" class="node">
<title>@/store/use&#45;state&#45;context</title>
<g id="a_node6"><a xlink:title="use&#45;state&#45;context">
<path fill="#ffffcc" stroke="black" d="M381.83,-311.88C381.83,-311.88 307.92,-311.88 307.92,-311.88 304.96,-311.88 302,-308.92 302,-305.96 302,-305.96 302,-300.04 302,-300.04 302,-297.08 304.96,-294.12 307.92,-294.12 307.92,-294.12 381.83,-294.12 381.83,-294.12 384.79,-294.12 387.75,-297.08 387.75,-300.04 387.75,-300.04 387.75,-305.96 387.75,-305.96 387.75,-308.92 384.79,-311.88 381.83,-311.88"/>
<text text-anchor="start" x="310" y="-299.32" font-family="Helvetica,sans-Serif" font-size="9.00">use&#45;state&#45;context</text>
</a>
</g>
</g>
<!-- ../../SML/apps/web/components/focus&#45;panel/focus&#45;panel.tsx&#45;&gt;@/store/use&#45;state&#45;context -->
<g id="edge5" class="edge">
<title>../../SML/apps/web/components/focus&#45;panel/focus&#45;panel.tsx&#45;&gt;@/store/use&#45;state&#45;context</title>
<path fill="none" stroke="#000000" stroke-width="2" stroke-opacity="0.200000" d="M182.65,-427.79C212.18,-404.94 289,-345.47 324.89,-317.7"/>
<polygon fill="#000000" fill-opacity="0.200000" stroke="#000000" stroke-width="2" stroke-opacity="0.200000" points="326.04,-319.46 329.5,-314.13 323.47,-316.14 326.04,-319.46"/>
</g>
<!-- node_modules/.pnpm -->
<g id="node7" class="node">
<title>node_modules/.pnpm</title>
<g id="a_node7"><a xlink:href="https://www.npmjs.com/package/.pnpm" xlink:title=".pnpm">
<polygon fill="#c40b0a" fill-opacity="0.101961" stroke="black" points="371.88,-33.88 319.85,-33.88 317.88,-31.9 317.88,-16.12 369.9,-16.12 371.88,-18.1 371.88,-33.88"/>
<polyline fill="none" stroke="black" points="369.9,-31.9 317.88,-31.9"/>
<polyline fill="none" stroke="black" points="369.9,-31.9 369.9,-16.12"/>
<polyline fill="none" stroke="black" points="369.9,-31.9 371.88,-33.88"/>
<text text-anchor="start" x="332.12" y="-21.32" font-family="Helvetica,sans-Serif" font-size="9.00" fill="#c40b0a">.pnpm</text>
</a>
</g>
</g>
<!-- ../../SML/apps/web/components/focus&#45;panel/focus&#45;panel.tsx&#45;&gt;node_modules/.pnpm -->
<g id="edge6" class="edge">
<title>../../SML/apps/web/components/focus&#45;panel/focus&#45;panel.tsx&#45;&gt;node_modules/.pnpm</title>
<path fill="none" stroke="#000000" stroke-opacity="0.200000" d="M171.74,-427.91C177.32,-378.24 205.97,-139.64 248.5,-81 263.79,-59.91 289.66,-45.45 310.6,-36.51"/>
<polygon fill="#000000" fill-opacity="0.200000" stroke="#000000" stroke-opacity="0.200000" points="311.34,-38.48 316.09,-34.26 309.74,-34.59 311.34,-38.48"/>
</g>
<!-- ../../SML/packages/selectors/src/components/focus&#45;panel/focus&#45;panel&#45;selectors.ts -->
<g id="node8" class="node">
<title>../../SML/packages/selectors/src/components/focus&#45;panel/focus&#45;panel&#45;selectors.ts</title>
<g id="a_node8"><a xlink:href="../../SML/packages/selectors/src/components/focus-panel/focus-panel-selectors.ts" xlink:title="focus&#45;panel&#45;selectors.ts">
<path fill="#ddfeff" stroke="black" d="M395.33,-453.88C395.33,-453.88 294.42,-453.88 294.42,-453.88 291.46,-453.88 288.5,-450.92 288.5,-447.96 288.5,-447.96 288.5,-442.04 288.5,-442.04 288.5,-439.08 291.46,-436.12 294.42,-436.12 294.42,-436.12 395.33,-436.12 395.33,-436.12 398.29,-436.12 401.25,-439.08 401.25,-442.04 401.25,-442.04 401.25,-447.96 401.25,-447.96 401.25,-450.92 398.29,-453.88 395.33,-453.88"/>
<text text-anchor="start" x="296.5" y="-441.32" font-family="Helvetica,sans-Serif" font-size="9.00">focus&#45;panel&#45;selectors.ts</text>
</a>
</g>
</g>
<!-- ../../SML/apps/web/components/focus&#45;panel/focus&#45;panel.tsx&#45;&gt;../../SML/packages/selectors/src/components/focus&#45;panel/focus&#45;panel&#45;selectors.ts -->
<g id="edge7" class="edge">
<title>../../SML/apps/web/components/focus&#45;panel/focus&#45;panel.tsx&#45;&gt;../../SML/packages/selectors/src/components/focus&#45;panel/focus&#45;panel&#45;selectors.ts</title>
<path fill="none" stroke="#000000" stroke-width="2" stroke-opacity="0.200000" d="M208.74,-438.76C229.4,-439.71 255.5,-440.92 279.25,-442.01"/>
<polygon fill="#000000" fill-opacity="0.200000" stroke="#000000" stroke-width="2" stroke-opacity="0.200000" points="279.11,-444.11 285.2,-442.29 279.3,-439.91 279.11,-444.11"/>
</g>
<!-- ../../SML/apps/web/components/focus&#45;panel/index.tsx -->
<g id="node9" class="node">
<title>../../SML/apps/web/components/focus&#45;panel/index.tsx</title>
<g id="a_node9"><a xlink:href="../../SML/apps/web/components/focus-panel/index.tsx" xlink:title="index.tsx">
<path fill="#bbfeff" stroke="black" d="M112.08,-445.88C112.08,-445.88 69.92,-445.88 69.92,-445.88 66.96,-445.88 64,-442.92 64,-439.96 64,-439.96 64,-434.04 64,-434.04 64,-431.08 66.96,-428.12 69.92,-428.12 69.92,-428.12 112.08,-428.12 112.08,-428.12 115.04,-428.12 118,-431.08 118,-434.04 118,-434.04 118,-439.96 118,-439.96 118,-442.92 115.04,-445.88 112.08,-445.88"/>
<text text-anchor="start" x="73" y="-433.32" font-family="Helvetica,sans-Serif" font-size="9.00">index.tsx</text>
</a>
</g>
</g>
<!-- ../../SML/apps/web/components/focus&#45;panel/index.tsx&#45;&gt;../../SML/apps/web/components/focus&#45;panel/focus&#45;panel.tsx -->
<g id="edge8" class="edge">
<title>../../SML/apps/web/components/focus&#45;panel/index.tsx&#45;&gt;../../SML/apps/web/components/focus&#45;panel/focus&#45;panel.tsx</title>
<path fill="none" stroke="#000000" stroke-width="2" stroke-opacity="0.200000" d="M118.41,-437C120.16,-437 121.94,-437 123.74,-437"/>
<polygon fill="#000000" fill-opacity="0.200000" stroke="#000000" stroke-width="2" stroke-opacity="0.200000" points="129.76,-439.1 123.76,-437 129.76,-434.9 129.76,-439.1"/>
</g>
</g>
</svg>
