<?xml version="1.0" encoding="UTF-8" standalone="no"?>
<!DOCTYPE svg PUBLIC "-//W3C//DTD SVG 1.1//EN"
 "http://www.w3.org/Graphics/SVG/1.1/DTD/svg11.dtd">
<!-- Generated by graphviz version 12.1.0 (20240811.2233)
 -->
<!-- Title: dependency&#45;cruiser output Pages: 1 -->
<svg width="268pt" height="246pt"
 viewBox="0.00 0.00 268.00 246.00" xmlns="http://www.w3.org/2000/svg" xmlns:xlink="http://www.w3.org/1999/xlink">
<g id="graph0" class="graph" transform="scale(1 1) rotate(0) translate(4 242)">
<title>dependency&#45;cruiser output</title>
<polygon fill="white" stroke="none" points="-4,4 -4,-242 264,-242 264,4 -4,4"/>
<g id="clust1" class="cluster">
<title>cluster_..</title>
<path fill="#ffffff" stroke="black" stroke-width="2" d="M20,-8C20,-8 146,-8 146,-8 152,-8 158,-14 158,-20 158,-20 158,-218 158,-218 158,-224 152,-230 146,-230 146,-230 20,-230 20,-230 14,-230 8,-224 8,-218 8,-218 8,-20 8,-20 8,-14 14,-8 20,-8"/>
<text text-anchor="middle" x="83" y="-217.45" font-family="Helvetica,sans-Serif" font-weight="bold" font-size="9.00">..</text>
</g>
<g id="clust2" class="cluster">
<title>cluster_../..</title>
<path fill="#ffffff" stroke="black" stroke-width="2" d="M28,-16C28,-16 138,-16 138,-16 144,-16 150,-22 150,-28 150,-28 150,-192 150,-192 150,-198 144,-204 138,-204 138,-204 28,-204 28,-204 22,-204 16,-198 16,-192 16,-192 16,-28 16,-28 16,-22 22,-16 28,-16"/>
<text text-anchor="middle" x="83" y="-191.45" font-family="Helvetica,sans-Serif" font-weight="bold" font-size="9.00">..</text>
</g>
<g id="clust3" class="cluster">
<title>cluster_../../SML</title>
<path fill="#ffffff" stroke="black" stroke-width="2" d="M36,-24C36,-24 130,-24 130,-24 136,-24 142,-30 142,-36 142,-36 142,-166 142,-166 142,-172 136,-178 130,-178 130,-178 36,-178 36,-178 30,-178 24,-172 24,-166 24,-166 24,-36 24,-36 24,-30 30,-24 36,-24"/>
<text text-anchor="middle" x="83" y="-165.45" font-family="Helvetica,sans-Serif" font-weight="bold" font-size="9.00">SML</text>
</g>
<g id="clust4" class="cluster">
<title>cluster_../../SML/apps</title>
<path fill="#ffffff" stroke="black" stroke-width="2" d="M44,-32C44,-32 122,-32 122,-32 128,-32 134,-38 134,-44 134,-44 134,-140 134,-140 134,-146 128,-152 122,-152 122,-152 44,-152 44,-152 38,-152 32,-146 32,-140 32,-140 32,-44 32,-44 32,-38 38,-32 44,-32"/>
<text text-anchor="middle" x="83" y="-139.45" font-family="Helvetica,sans-Serif" font-weight="bold" font-size="9.00">apps</text>
</g>
<g id="clust5" class="cluster">
<title>cluster_../../SML/apps/web</title>
<path fill="#ffffff" stroke="black" stroke-width="2" d="M52,-40C52,-40 114,-40 114,-40 120,-40 126,-46 126,-52 126,-52 126,-114 126,-114 126,-120 120,-126 114,-126 114,-126 52,-126 52,-126 46,-126 40,-120 40,-114 40,-114 40,-52 40,-52 40,-46 46,-40 52,-40"/>
<text text-anchor="middle" x="83" y="-113.45" font-family="Helvetica,sans-Serif" font-weight="bold" font-size="9.00">web</text>
</g>
<g id="clust6" class="cluster">
<title>cluster_../../SML/apps/web/components</title>
<path fill="#ffffff" stroke="black" stroke-width="2" d="M60,-48C60,-48 106,-48 106,-48 112,-48 118,-54 118,-60 118,-60 118,-88 118,-88 118,-94 112,-100 106,-100 106,-100 60,-100 60,-100 54,-100 48,-94 48,-88 48,-88 48,-60 48,-60 48,-54 54,-48 60,-48"/>
<text text-anchor="middle" x="83" y="-87.45" font-family="Helvetica,sans-Serif" font-weight="bold" font-size="9.00">components</text>
</g>
<g id="clust7" class="cluster">
<title>cluster_@</title>
<path fill="#ffffff" stroke="black" stroke-width="2" d="M178,-40C178,-40 240,-40 240,-40 246,-40 252,-46 252,-52 252,-52 252,-114 252,-114 252,-120 246,-126 240,-126 240,-126 178,-126 178,-126 172,-126 166,-120 166,-114 166,-114 166,-52 166,-52 166,-46 172,-40 178,-40"/>
<text text-anchor="middle" x="209" y="-113.45" font-family="Helvetica,sans-Serif" font-weight="bold" font-size="9.00">@</text>
</g>
<g id="clust8" class="cluster">
<title>cluster_@/lib</title>
<path fill="#ffffff" stroke="black" stroke-width="2" d="M186,-48C186,-48 232,-48 232,-48 238,-48 244,-54 244,-60 244,-60 244,-88 244,-88 244,-94 238,-100 232,-100 232,-100 186,-100 186,-100 180,-100 174,-94 174,-88 174,-88 174,-60 174,-60 174,-54 180,-48 186,-48"/>
<text text-anchor="middle" x="209" y="-87.45" font-family="Helvetica,sans-Serif" font-weight="bold" font-size="9.00">lib</text>
</g>
<!-- ../../SML/apps/web/components/icons.tsx -->
<g id="node1" class="node">
<title>../../SML/apps/web/components/icons.tsx</title>
<g id="a_node1"><a xlink:href="../../SML/apps/web/components/icons.tsx" xlink:title="icons.tsx">
<path fill="#bbfeff" stroke="black" d="M104.08,-73.88C104.08,-73.88 61.92,-73.88 61.92,-73.88 58.96,-73.88 56,-70.92 56,-67.96 56,-67.96 56,-62.04 56,-62.04 56,-59.08 58.96,-56.12 61.92,-56.12 61.92,-56.12 104.08,-56.12 104.08,-56.12 107.04,-56.12 110,-59.08 110,-62.04 110,-62.04 110,-67.96 110,-67.96 110,-70.92 107.04,-73.88 104.08,-73.88"/>
<text text-anchor="start" x="65.38" y="-61.33" font-family="Helvetica,sans-Serif" font-size="9.00">icons.tsx</text>
</a>
</g>
</g>
<!-- @/lib/utils -->
<g id="node2" class="node">
<title>@/lib/utils</title>
<g id="a_node2"><a xlink:title="utils">
<path fill="#ffffcc" stroke="black" d="M230.08,-73.88C230.08,-73.88 187.92,-73.88 187.92,-73.88 184.96,-73.88 182,-70.92 182,-67.96 182,-67.96 182,-62.04 182,-62.04 182,-59.08 184.96,-56.12 187.92,-56.12 187.92,-56.12 230.08,-56.12 230.08,-56.12 233.04,-56.12 236,-59.08 236,-62.04 236,-62.04 236,-67.96 236,-67.96 236,-70.92 233.04,-73.88 230.08,-73.88"/>
<text text-anchor="start" x="200.75" y="-61.33" font-family="Helvetica,sans-Serif" font-size="9.00">utils</text>
</a>
</g>
</g>
<!-- ../../SML/apps/web/components/icons.tsx&#45;&gt;@/lib/utils -->
<g id="edge1" class="edge">
<title>../../SML/apps/web/components/icons.tsx&#45;&gt;@/lib/utils</title>
<path fill="none" stroke="#000000" stroke-width="2" stroke-opacity="0.200000" d="M110.3,-65C128.55,-65 153.05,-65 172.96,-65"/>
<polygon fill="#000000" fill-opacity="0.200000" stroke="#000000" stroke-width="2" stroke-opacity="0.200000" points="172.71,-67.1 178.71,-65 172.71,-62.9 172.71,-67.1"/>
</g>
</g>
</svg>
