<?xml version="1.0" encoding="UTF-8" standalone="no"?>
<!DOCTYPE svg PUBLIC "-//W3C//DTD SVG 1.1//EN"
 "http://www.w3.org/Graphics/SVG/1.1/DTD/svg11.dtd">
<!-- Generated by graphviz version 12.1.0 (20240811.2233)
 -->
<!-- Title: dependency&#45;cruiser output Pages: 1 -->
<svg width="892pt" height="944pt"
 viewBox="0.00 0.00 891.75 944.00" xmlns="http://www.w3.org/2000/svg" xmlns:xlink="http://www.w3.org/1999/xlink">
<g id="graph0" class="graph" transform="scale(1 1) rotate(0) translate(4 940)">
<title>dependency&#45;cruiser output</title>
<polygon fill="white" stroke="none" points="-4,4 -4,-940 887.75,-940 887.75,4 -4,4"/>
<g id="clust1" class="cluster">
<title>cluster_..</title>
<path fill="#ffffff" stroke="black" stroke-width="2" d="M20,-560C20,-560 863.75,-560 863.75,-560 869.75,-560 875.75,-566 875.75,-572 875.75,-572 875.75,-916 875.75,-916 875.75,-922 869.75,-928 863.75,-928 863.75,-928 20,-928 20,-928 14,-928 8,-922 8,-916 8,-916 8,-572 8,-572 8,-566 14,-560 20,-560"/>
<text text-anchor="middle" x="441.88" y="-915.45" font-family="Helvetica,sans-Serif" font-weight="bold" font-size="9.00">..</text>
</g>
<g id="clust2" class="cluster">
<title>cluster_../..</title>
<path fill="#ffffff" stroke="black" stroke-width="2" d="M28,-568C28,-568 855.75,-568 855.75,-568 861.75,-568 867.75,-574 867.75,-580 867.75,-580 867.75,-890 867.75,-890 867.75,-896 861.75,-902 855.75,-902 855.75,-902 28,-902 28,-902 22,-902 16,-896 16,-890 16,-890 16,-580 16,-580 16,-574 22,-568 28,-568"/>
<text text-anchor="middle" x="441.88" y="-889.45" font-family="Helvetica,sans-Serif" font-weight="bold" font-size="9.00">..</text>
</g>
<g id="clust3" class="cluster">
<title>cluster_../../SML</title>
<path fill="#ffffff" stroke="black" stroke-width="2" d="M36,-576C36,-576 847.75,-576 847.75,-576 853.75,-576 859.75,-582 859.75,-588 859.75,-588 859.75,-864 859.75,-864 859.75,-870 853.75,-876 847.75,-876 847.75,-876 36,-876 36,-876 30,-876 24,-870 24,-864 24,-864 24,-588 24,-588 24,-582 30,-576 36,-576"/>
<text text-anchor="middle" x="441.88" y="-863.45" font-family="Helvetica,sans-Serif" font-weight="bold" font-size="9.00">SML</text>
</g>
<g id="clust4" class="cluster">
<title>cluster_../../SML/apps</title>
<path fill="#ffffff" stroke="black" stroke-width="2" d="M44,-584C44,-584 348,-584 348,-584 354,-584 360,-590 360,-596 360,-596 360,-726 360,-726 360,-732 354,-738 348,-738 348,-738 44,-738 44,-738 38,-738 32,-732 32,-726 32,-726 32,-596 32,-596 32,-590 38,-584 44,-584"/>
<text text-anchor="middle" x="196" y="-725.45" font-family="Helvetica,sans-Serif" font-weight="bold" font-size="9.00">apps</text>
</g>
<g id="clust5" class="cluster">
<title>cluster_../../SML/apps/web</title>
<path fill="#ffffff" stroke="black" stroke-width="2" d="M52,-592C52,-592 340,-592 340,-592 346,-592 352,-598 352,-604 352,-604 352,-700 352,-700 352,-706 346,-712 340,-712 340,-712 52,-712 52,-712 46,-712 40,-706 40,-700 40,-700 40,-604 40,-604 40,-598 46,-592 52,-592"/>
<text text-anchor="middle" x="196" y="-699.45" font-family="Helvetica,sans-Serif" font-weight="bold" font-size="9.00">web</text>
</g>
<g id="clust6" class="cluster">
<title>cluster_../../SML/apps/web/components</title>
<path fill="#ffffff" stroke="black" stroke-width="2" d="M60,-600C60,-600 332,-600 332,-600 338,-600 344,-606 344,-612 344,-612 344,-674 344,-674 344,-680 338,-686 332,-686 332,-686 60,-686 60,-686 54,-686 48,-680 48,-674 48,-674 48,-612 48,-612 48,-606 54,-600 60,-600"/>
<text text-anchor="middle" x="196" y="-673.45" font-family="Helvetica,sans-Serif" font-weight="bold" font-size="9.00">components</text>
</g>
<g id="clust7" class="cluster">
<title>cluster_../../SML/apps/web/components/breadcrumbs</title>
<path fill="#ffffff" stroke="black" stroke-width="2" d="M68,-608C68,-608 324,-608 324,-608 330,-608 336,-614 336,-620 336,-620 336,-648 336,-648 336,-654 330,-660 324,-660 324,-660 68,-660 68,-660 62,-660 56,-654 56,-648 56,-648 56,-620 56,-620 56,-614 62,-608 68,-608"/>
<text text-anchor="middle" x="196" y="-647.45" font-family="Helvetica,sans-Serif" font-weight="bold" font-size="9.00">breadcrumbs</text>
</g>
<g id="clust8" class="cluster">
<title>cluster_../../SML/packages</title>
<path fill="#ffffff" stroke="black" stroke-width="2" d="M380,-584C380,-584 839.75,-584 839.75,-584 845.75,-584 851.75,-590 851.75,-596 851.75,-596 851.75,-838 851.75,-838 851.75,-844 845.75,-850 839.75,-850 839.75,-850 380,-850 380,-850 374,-850 368,-844 368,-838 368,-838 368,-596 368,-596 368,-590 374,-584 380,-584"/>
<text text-anchor="middle" x="609.88" y="-837.45" font-family="Helvetica,sans-Serif" font-weight="bold" font-size="9.00">packages</text>
</g>
<g id="clust9" class="cluster">
<title>cluster_../../SML/packages/models</title>
<path fill="#ffffff" stroke="black" stroke-width="2" d="M542,-738C542,-738 624.5,-738 624.5,-738 630.5,-738 636.5,-744 636.5,-750 636.5,-750 636.5,-812 636.5,-812 636.5,-818 630.5,-824 624.5,-824 624.5,-824 542,-824 542,-824 536,-824 530,-818 530,-812 530,-812 530,-750 530,-750 530,-744 536,-738 542,-738"/>
<text text-anchor="middle" x="583.25" y="-811.45" font-family="Helvetica,sans-Serif" font-weight="bold" font-size="9.00">models</text>
</g>
<g id="clust10" class="cluster">
<title>cluster_../../SML/packages/models/src</title>
<path fill="#ffffff" stroke="black" stroke-width="2" d="M550,-746C550,-746 616.5,-746 616.5,-746 622.5,-746 628.5,-752 628.5,-758 628.5,-758 628.5,-786 628.5,-786 628.5,-792 622.5,-798 616.5,-798 616.5,-798 550,-798 550,-798 544,-798 538,-792 538,-786 538,-786 538,-758 538,-758 538,-752 544,-746 550,-746"/>
<text text-anchor="middle" x="583.25" y="-785.45" font-family="Helvetica,sans-Serif" font-weight="bold" font-size="9.00">src</text>
</g>
<g id="clust11" class="cluster">
<title>cluster_../../SML/packages/utils</title>
<path fill="#ffffff" stroke="black" stroke-width="2" d="M388,-592C388,-592 831.75,-592 831.75,-592 837.75,-592 843.75,-598 843.75,-604 843.75,-604 843.75,-718 843.75,-718 843.75,-724 837.75,-730 831.75,-730 831.75,-730 388,-730 388,-730 382,-730 376,-724 376,-718 376,-718 376,-604 376,-604 376,-598 382,-592 388,-592"/>
<text text-anchor="middle" x="609.88" y="-717.45" font-family="Helvetica,sans-Serif" font-weight="bold" font-size="9.00">utils</text>
</g>
<g id="clust12" class="cluster">
<title>cluster_../../SML/packages/utils/builders</title>
<path fill="#ffffff" stroke="black" stroke-width="2" d="M396,-626C396,-626 754,-626 754,-626 760,-626 766,-632 766,-638 766,-638 766,-666 766,-666 766,-672 760,-678 754,-678 754,-678 396,-678 396,-678 390,-678 384,-672 384,-666 384,-666 384,-638 384,-638 384,-632 390,-626 396,-626"/>
<text text-anchor="middle" x="575" y="-665.45" font-family="Helvetica,sans-Serif" font-weight="bold" font-size="9.00">builders</text>
</g>
<g id="clust13" class="cluster">
<title>cluster_@</title>
<path fill="#ffffff" stroke="black" stroke-width="2" d="M391.25,-8C391.25,-8 510,-8 510,-8 516,-8 522,-14 522,-20 522,-20 522,-480 522,-480 522,-486 516,-492 510,-492 510,-492 391.25,-492 391.25,-492 385.25,-492 379.25,-486 379.25,-480 379.25,-480 379.25,-20 379.25,-20 379.25,-14 385.25,-8 391.25,-8"/>
<text text-anchor="middle" x="450.62" y="-479.45" font-family="Helvetica,sans-Serif" font-weight="bold" font-size="9.00">@</text>
</g>
<g id="clust14" class="cluster">
<title>cluster_@/__mocks__</title>
<path fill="#ffffff" stroke="black" stroke-width="2" d="M399.25,-200C399.25,-200 502,-200 502,-200 508,-200 514,-206 514,-212 514,-212 514,-394 514,-394 514,-400 508,-406 502,-406 502,-406 399.25,-406 399.25,-406 393.25,-406 387.25,-400 387.25,-394 387.25,-394 387.25,-212 387.25,-212 387.25,-206 393.25,-200 399.25,-200"/>
<text text-anchor="middle" x="450.62" y="-393.45" font-family="Helvetica,sans-Serif" font-weight="bold" font-size="9.00">__mocks__</text>
</g>
<g id="clust15" class="cluster">
<title>cluster_@/__mocks__/dicontainer</title>
<path fill="#ffffff" stroke="black" stroke-width="2" d="M407.25,-328C407.25,-328 494,-328 494,-328 500,-328 506,-334 506,-340 506,-340 506,-368 506,-368 506,-374 500,-380 494,-380 494,-380 407.25,-380 407.25,-380 401.25,-380 395.25,-374 395.25,-368 395.25,-368 395.25,-340 395.25,-340 395.25,-334 401.25,-328 407.25,-328"/>
<text text-anchor="middle" x="450.62" y="-367.45" font-family="Helvetica,sans-Serif" font-weight="bold" font-size="9.00">dicontainer</text>
</g>
<g id="clust16" class="cluster">
<title>cluster_@/__mocks__/hook&#45;builder</title>
<path fill="#ffffff" stroke="black" stroke-width="2" d="M420.75,-268C420.75,-268 480.5,-268 480.5,-268 486.5,-268 492.5,-274 492.5,-280 492.5,-280 492.5,-308 492.5,-308 492.5,-314 486.5,-320 480.5,-320 480.5,-320 420.75,-320 420.75,-320 414.75,-320 408.75,-314 408.75,-308 408.75,-308 408.75,-280 408.75,-280 408.75,-274 414.75,-268 420.75,-268"/>
<text text-anchor="middle" x="450.62" y="-307.45" font-family="Helvetica,sans-Serif" font-weight="bold" font-size="9.00">hook&#45;builder</text>
</g>
<g id="clust17" class="cluster">
<title>cluster_@/__mocks__/hook&#45;setup</title>
<path fill="#ffffff" stroke="black" stroke-width="2" d="M423.75,-208C423.75,-208 477.5,-208 477.5,-208 483.5,-208 489.5,-214 489.5,-220 489.5,-220 489.5,-248 489.5,-248 489.5,-254 483.5,-260 477.5,-260 477.5,-260 423.75,-260 423.75,-260 417.75,-260 411.75,-254 411.75,-248 411.75,-248 411.75,-220 411.75,-220 411.75,-214 417.75,-208 423.75,-208"/>
<text text-anchor="middle" x="450.62" y="-247.45" font-family="Helvetica,sans-Serif" font-weight="bold" font-size="9.00">hook&#45;setup</text>
</g>
<g id="clust18" class="cluster">
<title>cluster_@/dicontainer</title>
<path fill="#ffffff" stroke="black" stroke-width="2" d="M427.62,-414C427.62,-414 473.62,-414 473.62,-414 479.62,-414 485.62,-420 485.62,-426 485.62,-426 485.62,-454 485.62,-454 485.62,-460 479.62,-466 473.62,-466 473.62,-466 427.62,-466 427.62,-466 421.62,-466 415.62,-460 415.62,-454 415.62,-454 415.62,-426 415.62,-426 415.62,-420 421.62,-414 427.62,-414"/>
<text text-anchor="middle" x="450.62" y="-453.45" font-family="Helvetica,sans-Serif" font-weight="bold" font-size="9.00">dicontainer</text>
</g>
<g id="clust19" class="cluster">
<title>cluster_@/hooks</title>
<path fill="#ffffff" stroke="black" stroke-width="2" d="M427.62,-110C427.62,-110 473.62,-110 473.62,-110 479.62,-110 485.62,-116 485.62,-122 485.62,-122 485.62,-180 485.62,-180 485.62,-186 479.62,-192 473.62,-192 473.62,-192 427.62,-192 427.62,-192 421.62,-192 415.62,-186 415.62,-180 415.62,-180 415.62,-122 415.62,-122 415.62,-116 421.62,-110 427.62,-110"/>
<text text-anchor="middle" x="450.62" y="-179.45" font-family="Helvetica,sans-Serif" font-weight="bold" font-size="9.00">hooks</text>
</g>
<g id="clust20" class="cluster">
<title>cluster_@/store</title>
<path fill="#ffffff" stroke="black" stroke-width="2" d="M418.38,-16C418.38,-16 482.88,-16 482.88,-16 488.88,-16 494.88,-22 494.88,-28 494.88,-28 494.88,-90 494.88,-90 494.88,-96 488.88,-102 482.88,-102 482.88,-102 418.38,-102 418.38,-102 412.38,-102 406.38,-96 406.38,-90 406.38,-90 406.38,-28 406.38,-28 406.38,-22 412.38,-16 418.38,-16"/>
<text text-anchor="middle" x="450.62" y="-89.45" font-family="Helvetica,sans-Serif" font-weight="bold" font-size="9.00">store</text>
</g>
<g id="clust21" class="cluster">
<title>cluster_@/store/tabs</title>
<path fill="#ffffff" stroke="black" stroke-width="2" d="M426.38,-24C426.38,-24 474.88,-24 474.88,-24 480.88,-24 486.88,-30 486.88,-36 486.88,-36 486.88,-64 486.88,-64 486.88,-70 480.88,-76 474.88,-76 474.88,-76 426.38,-76 426.38,-76 420.38,-76 414.38,-70 414.38,-64 414.38,-64 414.38,-36 414.38,-36 414.38,-30 420.38,-24 426.38,-24"/>
<text text-anchor="middle" x="450.62" y="-63.45" font-family="Helvetica,sans-Serif" font-weight="bold" font-size="9.00">tabs</text>
</g>
<g id="clust22" class="cluster">
<title>cluster_node_modules</title>
<path fill="#ffffff" stroke="black" stroke-width="2" d="M423.62,-500C423.62,-500 478.62,-500 478.62,-500 484.62,-500 490.62,-506 490.62,-512 490.62,-512 490.62,-540 490.62,-540 490.62,-546 484.62,-552 478.62,-552 478.62,-552 423.62,-552 423.62,-552 417.62,-552 411.62,-546 411.62,-540 411.62,-540 411.62,-512 411.62,-512 411.62,-506 417.62,-500 423.62,-500"/>
<text text-anchor="middle" x="451.12" y="-539.45" font-family="Helvetica,sans-Serif" font-weight="bold" font-size="9.00">node_modules</text>
</g>
<!-- ../../SML/apps/web/components/breadcrumbs/use&#45;breadcrumb&#45;items.test.ts -->
<g id="node1" class="node">
<title>../../SML/apps/web/components/breadcrumbs/use&#45;breadcrumb&#45;items.test.ts</title>
<g id="a_node1"><a xlink:href="../../SML/apps/web/components/breadcrumbs/use-breadcrumb-items.test.ts" xlink:title="use&#45;breadcrumb&#45;items.test.ts">
<path fill="#ddfeff" stroke="black" d="M191.83,-633.88C191.83,-633.88 69.92,-633.88 69.92,-633.88 66.96,-633.88 64,-630.92 64,-627.96 64,-627.96 64,-622.04 64,-622.04 64,-619.08 66.96,-616.12 69.92,-616.12 69.92,-616.12 191.83,-616.12 191.83,-616.12 194.79,-616.12 197.75,-619.08 197.75,-622.04 197.75,-622.04 197.75,-627.96 197.75,-627.96 197.75,-630.92 194.79,-633.88 191.83,-633.88"/>
<text text-anchor="start" x="72" y="-621.33" font-family="Helvetica,sans-Serif" font-size="9.00">use&#45;breadcrumb&#45;items.test.ts</text>
</a>
</g>
</g>
<!-- ../../SML/apps/web/components/breadcrumbs/use&#45;breadcrumb&#45;items.ts -->
<g id="node2" class="node">
<title>../../SML/apps/web/components/breadcrumbs/use&#45;breadcrumb&#45;items.ts</title>
<g id="a_node2"><a xlink:href="../../SML/apps/web/components/breadcrumbs/use-breadcrumb-items.ts" xlink:title="use&#45;breadcrumb&#45;items.ts">
<path fill="#ddfeff" stroke="black" d="M322.08,-633.88C322.08,-633.88 216.67,-633.88 216.67,-633.88 213.71,-633.88 210.75,-630.92 210.75,-627.96 210.75,-627.96 210.75,-622.04 210.75,-622.04 210.75,-619.08 213.71,-616.12 216.67,-616.12 216.67,-616.12 322.08,-616.12 322.08,-616.12 325.04,-616.12 328,-619.08 328,-622.04 328,-622.04 328,-627.96 328,-627.96 328,-630.92 325.04,-633.88 322.08,-633.88"/>
<text text-anchor="start" x="218.75" y="-621.33" font-family="Helvetica,sans-Serif" font-size="9.00">use&#45;breadcrumb&#45;items.ts</text>
</a>
</g>
</g>
<!-- ../../SML/apps/web/components/breadcrumbs/use&#45;breadcrumb&#45;items.test.ts&#45;&gt;../../SML/apps/web/components/breadcrumbs/use&#45;breadcrumb&#45;items.ts -->
<g id="edge1" class="edge">
<title>../../SML/apps/web/components/breadcrumbs/use&#45;breadcrumb&#45;items.test.ts&#45;&gt;../../SML/apps/web/components/breadcrumbs/use&#45;breadcrumb&#45;items.ts</title>
<path fill="none" stroke="#000000" stroke-width="2" stroke-opacity="0.200000" d="M198.13,-625C199.27,-625 200.42,-625 201.57,-625"/>
<polygon fill="#000000" fill-opacity="0.200000" stroke="#000000" stroke-width="2" stroke-opacity="0.200000" points="201.3,-627.1 207.3,-625 201.3,-622.9 201.3,-627.1"/>
</g>
<!-- @/__mocks__/dicontainer/DiContainerBuilder -->
<g id="node3" class="node">
<title>@/__mocks__/dicontainer/DiContainerBuilder</title>
<g id="a_node3"><a xlink:title="DiContainerBuilder">
<path fill="#ffffcc" stroke="black" d="M492.08,-353.88C492.08,-353.88 409.17,-353.88 409.17,-353.88 406.21,-353.88 403.25,-350.92 403.25,-347.96 403.25,-347.96 403.25,-342.04 403.25,-342.04 403.25,-339.08 406.21,-336.12 409.17,-336.12 409.17,-336.12 492.08,-336.12 492.08,-336.12 495.04,-336.12 498,-339.08 498,-342.04 498,-342.04 498,-347.96 498,-347.96 498,-350.92 495.04,-353.88 492.08,-353.88"/>
<text text-anchor="start" x="411.25" y="-341.32" font-family="Helvetica,sans-Serif" font-size="9.00">DiContainerBuilder</text>
</a>
</g>
</g>
<!-- ../../SML/apps/web/components/breadcrumbs/use&#45;breadcrumb&#45;items.test.ts&#45;&gt;@/__mocks__/dicontainer/DiContainerBuilder -->
<g id="edge2" class="edge">
<title>../../SML/apps/web/components/breadcrumbs/use&#45;breadcrumb&#45;items.test.ts&#45;&gt;@/__mocks__/dicontainer/DiContainerBuilder</title>
<path fill="none" stroke="#000000" stroke-width="2" stroke-opacity="0.200000" d="M141.59,-615.83C173.49,-585.81 278.07,-488 368,-411 389.13,-392.91 414.08,-372.93 430.78,-359.74"/>
<polygon fill="#000000" fill-opacity="0.200000" stroke="#000000" stroke-width="2" stroke-opacity="0.200000" points="432.04,-361.43 435.45,-356.07 429.44,-358.13 432.04,-361.43"/>
</g>
<!-- @/__mocks__/hook&#45;builder/hook&#45;builder -->
<g id="node4" class="node">
<title>@/__mocks__/hook&#45;builder/hook&#45;builder</title>
<g id="a_node4"><a xlink:title="hook&#45;builder">
<path fill="#ffffcc" stroke="black" d="M478.58,-293.88C478.58,-293.88 422.67,-293.88 422.67,-293.88 419.71,-293.88 416.75,-290.92 416.75,-287.96 416.75,-287.96 416.75,-282.04 416.75,-282.04 416.75,-279.08 419.71,-276.12 422.67,-276.12 422.67,-276.12 478.58,-276.12 478.58,-276.12 481.54,-276.12 484.5,-279.08 484.5,-282.04 484.5,-282.04 484.5,-287.96 484.5,-287.96 484.5,-290.92 481.54,-293.88 478.58,-293.88"/>
<text text-anchor="middle" x="450.62" y="-281.32" font-family="Helvetica,sans-Serif" font-size="9.00">hook&#45;builder</text>
</a>
</g>
</g>
<!-- ../../SML/apps/web/components/breadcrumbs/use&#45;breadcrumb&#45;items.test.ts&#45;&gt;@/__mocks__/hook&#45;builder/hook&#45;builder -->
<g id="edge3" class="edge">
<title>../../SML/apps/web/components/breadcrumbs/use&#45;breadcrumb&#45;items.test.ts&#45;&gt;@/__mocks__/hook&#45;builder/hook&#45;builder</title>
<path fill="none" stroke="#000000" stroke-width="2" stroke-opacity="0.200000" d="M133.22,-615.69C138.15,-584.49 157.78,-482.04 210.75,-419 264.79,-354.69 358.01,-315.32 410.59,-297.1"/>
<polygon fill="#000000" fill-opacity="0.200000" stroke="#000000" stroke-width="2" stroke-opacity="0.200000" points="411.11,-299.14 416.11,-295.23 409.76,-295.17 411.11,-299.14"/>
</g>
<!-- @/__mocks__/hook&#45;setup/hook&#45;setup -->
<g id="node5" class="node">
<title>@/__mocks__/hook&#45;setup/hook&#45;setup</title>
<g id="a_node5"><a xlink:title="hook&#45;setup">
<path fill="#ffffcc" stroke="black" d="M475.58,-233.88C475.58,-233.88 425.67,-233.88 425.67,-233.88 422.71,-233.88 419.75,-230.92 419.75,-227.96 419.75,-227.96 419.75,-222.04 419.75,-222.04 419.75,-219.08 422.71,-216.12 425.67,-216.12 425.67,-216.12 475.58,-216.12 475.58,-216.12 478.54,-216.12 481.5,-219.08 481.5,-222.04 481.5,-222.04 481.5,-227.96 481.5,-227.96 481.5,-230.92 478.54,-233.88 475.58,-233.88"/>
<text text-anchor="middle" x="450.62" y="-221.32" font-family="Helvetica,sans-Serif" font-size="9.00">hook&#45;setup</text>
</a>
</g>
</g>
<!-- ../../SML/apps/web/components/breadcrumbs/use&#45;breadcrumb&#45;items.test.ts&#45;&gt;@/__mocks__/hook&#45;setup/hook&#45;setup -->
<g id="edge4" class="edge">
<title>../../SML/apps/web/components/breadcrumbs/use&#45;breadcrumb&#45;items.test.ts&#45;&gt;@/__mocks__/hook&#45;setup/hook&#45;setup</title>
<path fill="none" stroke="#000000" stroke-width="2" stroke-opacity="0.200000" d="M133.06,-615.74C139.17,-569.19 168.53,-361.06 210.75,-314 263.13,-255.61 357.49,-235.41 410.59,-228.51"/>
<polygon fill="#000000" fill-opacity="0.200000" stroke="#000000" stroke-width="2" stroke-opacity="0.200000" points="410.66,-230.62 416.37,-227.81 410.16,-226.45 410.66,-230.62"/>
</g>
<!-- @/hooks/use&#45;tabs -->
<g id="node6" class="node">
<title>@/hooks/use&#45;tabs</title>
<g id="a_node6"><a xlink:title="use&#45;tabs">
<path fill="#ffffcc" stroke="black" d="M471.71,-135.88C471.71,-135.88 429.54,-135.88 429.54,-135.88 426.58,-135.88 423.62,-132.92 423.62,-129.96 423.62,-129.96 423.62,-124.04 423.62,-124.04 423.62,-121.08 426.58,-118.12 429.54,-118.12 429.54,-118.12 471.71,-118.12 471.71,-118.12 474.67,-118.12 477.62,-121.08 477.62,-124.04 477.62,-124.04 477.62,-129.96 477.62,-129.96 477.62,-132.92 474.67,-135.88 471.71,-135.88"/>
<text text-anchor="start" x="433" y="-123.33" font-family="Helvetica,sans-Serif" font-size="9.00">use&#45;tabs</text>
</a>
</g>
</g>
<!-- ../../SML/apps/web/components/breadcrumbs/use&#45;breadcrumb&#45;items.test.ts&#45;&gt;@/hooks/use&#45;tabs -->
<g id="edge5" class="edge">
<title>../../SML/apps/web/components/breadcrumbs/use&#45;breadcrumb&#45;items.test.ts&#45;&gt;@/hooks/use&#45;tabs</title>
<path fill="none" stroke="#000000" stroke-width="2" stroke-opacity="0.200000" d="M132.73,-615.75C137.73,-562.95 164.71,-299.74 210.75,-235 259.12,-166.98 360.78,-140.99 414.55,-131.72"/>
<polygon fill="#000000" fill-opacity="0.200000" stroke="#000000" stroke-width="2" stroke-opacity="0.200000" points="414.81,-133.8 420.39,-130.76 414.13,-129.66 414.81,-133.8"/>
</g>
<!-- @/store/tabs/tabs&#45;store -->
<g id="node7" class="node">
<title>@/store/tabs/tabs&#45;store</title>
<g id="a_node7"><a xlink:title="tabs&#45;store">
<path fill="#ffffcc" stroke="black" d="M472.96,-49.88C472.96,-49.88 428.29,-49.88 428.29,-49.88 425.33,-49.88 422.38,-46.92 422.38,-43.96 422.38,-43.96 422.38,-38.04 422.38,-38.04 422.38,-35.08 425.33,-32.12 428.29,-32.12 428.29,-32.12 472.96,-32.12 472.96,-32.12 475.92,-32.12 478.88,-35.08 478.88,-38.04 478.88,-38.04 478.88,-43.96 478.88,-43.96 478.88,-46.92 475.92,-49.88 472.96,-49.88"/>
<text text-anchor="start" x="430.38" y="-37.33" font-family="Helvetica,sans-Serif" font-size="9.00">tabs&#45;store</text>
</a>
</g>
</g>
<!-- ../../SML/apps/web/components/breadcrumbs/use&#45;breadcrumb&#45;items.test.ts&#45;&gt;@/store/tabs/tabs&#45;store -->
<g id="edge6" class="edge">
<title>../../SML/apps/web/components/breadcrumbs/use&#45;breadcrumb&#45;items.test.ts&#45;&gt;@/store/tabs/tabs&#45;store</title>
<path fill="none" stroke="#000000" stroke-width="2" stroke-opacity="0.200000" d="M132.19,-615.89C134.42,-556.09 149.57,-219.81 210.75,-142 261.13,-77.93 359.71,-53.97 413.12,-45.43"/>
<polygon fill="#000000" fill-opacity="0.200000" stroke="#000000" stroke-width="2" stroke-opacity="0.200000" points="413.31,-47.52 418.93,-44.55 412.68,-43.37 413.31,-47.52"/>
</g>
<!-- ../../SML/packages/utils/builders/FolderStructureBuilder.ts -->
<g id="node8" class="node">
<title>../../SML/packages/utils/builders/FolderStructureBuilder.ts</title>
<g id="a_node8"><a xlink:href="../../SML/packages/utils/builders/FolderStructureBuilder.ts" xlink:title="FolderStructureBuilder.ts">
<path fill="#ddfeff" stroke="black" d="M503.33,-651.88C503.33,-651.88 397.92,-651.88 397.92,-651.88 394.96,-651.88 392,-648.92 392,-645.96 392,-645.96 392,-640.04 392,-640.04 392,-637.08 394.96,-634.12 397.92,-634.12 397.92,-634.12 503.33,-634.12 503.33,-634.12 506.29,-634.12 509.25,-637.08 509.25,-640.04 509.25,-640.04 509.25,-645.96 509.25,-645.96 509.25,-648.92 506.29,-651.88 503.33,-651.88"/>
<text text-anchor="start" x="400" y="-639.33" font-family="Helvetica,sans-Serif" font-size="9.00">FolderStructureBuilder.ts</text>
</a>
</g>
</g>
<!-- ../../SML/apps/web/components/breadcrumbs/use&#45;breadcrumb&#45;items.test.ts&#45;&gt;../../SML/packages/utils/builders/FolderStructureBuilder.ts -->
<g id="edge7" class="edge">
<title>../../SML/apps/web/components/breadcrumbs/use&#45;breadcrumb&#45;items.test.ts&#45;&gt;../../SML/packages/utils/builders/FolderStructureBuilder.ts</title>
<path fill="none" stroke="#000000" stroke-width="2" stroke-opacity="0.200000" d="M173.43,-634.32C185.41,-636.62 198.55,-638.77 210.75,-640 268.63,-645.82 334.8,-646.16 382.8,-645.28"/>
<polygon fill="#000000" fill-opacity="0.200000" stroke="#000000" stroke-width="2" stroke-opacity="0.200000" points="382.56,-647.39 388.52,-645.17 382.47,-643.19 382.56,-647.39"/>
</g>
<!-- ../../SML/apps/web/components/breadcrumbs/use&#45;breadcrumb&#45;items.ts&#45;&gt;@/hooks/use&#45;tabs -->
<g id="edge10" class="edge">
<title>../../SML/apps/web/components/breadcrumbs/use&#45;breadcrumb&#45;items.ts&#45;&gt;@/hooks/use&#45;tabs</title>
<path fill="none" stroke="#000000" stroke-width="2" stroke-opacity="0.200000" d="M272.23,-615.79C285.69,-549.05 367.72,-142.28 368,-142 380.14,-130.07 398.46,-125.96 414.66,-124.99"/>
<polygon fill="#000000" fill-opacity="0.200000" stroke="#000000" stroke-width="2" stroke-opacity="0.200000" points="414.43,-127.09 420.37,-124.83 414.32,-122.9 414.43,-127.09"/>
</g>
<!-- ../../SML/apps/web/components/breadcrumbs/use&#45;breadcrumb&#45;items.ts&#45;&gt;@/store/tabs/tabs&#45;store -->
<g id="edge11" class="edge">
<title>../../SML/apps/web/components/breadcrumbs/use&#45;breadcrumb&#45;items.ts&#45;&gt;@/store/tabs/tabs&#45;store</title>
<path fill="none" stroke="#000000" stroke-width="2" stroke-opacity="0.200000" d="M271.74,-615.63C281.46,-549.38 340.48,-153.06 368,-107 381.49,-84.41 405.73,-66.31 424.3,-54.82"/>
<polygon fill="#000000" fill-opacity="0.200000" stroke="#000000" stroke-width="2" stroke-opacity="0.200000" points="425.19,-56.73 429.26,-51.86 423.03,-53.13 425.19,-56.73"/>
</g>
<!-- @/dicontainer/diTypes -->
<g id="node9" class="node">
<title>@/dicontainer/diTypes</title>
<g id="a_node9"><a xlink:title="diTypes">
<path fill="#ffffcc" stroke="black" d="M471.71,-439.88C471.71,-439.88 429.54,-439.88 429.54,-439.88 426.58,-439.88 423.62,-436.92 423.62,-433.96 423.62,-433.96 423.62,-428.04 423.62,-428.04 423.62,-425.08 426.58,-422.12 429.54,-422.12 429.54,-422.12 471.71,-422.12 471.71,-422.12 474.67,-422.12 477.62,-425.08 477.62,-428.04 477.62,-428.04 477.62,-433.96 477.62,-433.96 477.62,-436.92 474.67,-439.88 471.71,-439.88"/>
<text text-anchor="start" x="434.5" y="-427.32" font-family="Helvetica,sans-Serif" font-size="9.00">diTypes</text>
</a>
</g>
</g>
<!-- ../../SML/apps/web/components/breadcrumbs/use&#45;breadcrumb&#45;items.ts&#45;&gt;@/dicontainer/diTypes -->
<g id="edge8" class="edge">
<title>../../SML/apps/web/components/breadcrumbs/use&#45;breadcrumb&#45;items.ts&#45;&gt;@/dicontainer/diTypes</title>
<path fill="none" stroke="#000000" stroke-width="2" stroke-opacity="0.200000" d="M276.32,-615.72C290.62,-593.77 328.65,-537.48 368,-497 387.23,-477.22 412.26,-457.75 429.5,-445.15"/>
<polygon fill="#000000" fill-opacity="0.200000" stroke="#000000" stroke-width="2" stroke-opacity="0.200000" points="430.29,-447.17 433.92,-441.96 427.83,-443.77 430.29,-447.17"/>
</g>
<!-- @/hooks/use&#45;files -->
<g id="node10" class="node">
<title>@/hooks/use&#45;files</title>
<g id="a_node10"><a xlink:title="use&#45;files">
<path fill="#ffffcc" stroke="black" d="M471.71,-165.88C471.71,-165.88 429.54,-165.88 429.54,-165.88 426.58,-165.88 423.62,-162.92 423.62,-159.96 423.62,-159.96 423.62,-154.04 423.62,-154.04 423.62,-151.08 426.58,-148.12 429.54,-148.12 429.54,-148.12 471.71,-148.12 471.71,-148.12 474.67,-148.12 477.62,-151.08 477.62,-154.04 477.62,-154.04 477.62,-159.96 477.62,-159.96 477.62,-162.92 474.67,-165.88 471.71,-165.88"/>
<text text-anchor="start" x="433.38" y="-153.32" font-family="Helvetica,sans-Serif" font-size="9.00">use&#45;files</text>
</a>
</g>
</g>
<!-- ../../SML/apps/web/components/breadcrumbs/use&#45;breadcrumb&#45;items.ts&#45;&gt;@/hooks/use&#45;files -->
<g id="edge9" class="edge">
<title>../../SML/apps/web/components/breadcrumbs/use&#45;breadcrumb&#45;items.ts&#45;&gt;@/hooks/use&#45;files</title>
<path fill="none" stroke="#000000" stroke-width="2" stroke-opacity="0.200000" d="M269.99,-615.65C268.45,-567.25 267.14,-342.23 368,-205 379.8,-188.95 398.71,-177.34 415.37,-169.56"/>
<polygon fill="#000000" fill-opacity="0.200000" stroke="#000000" stroke-width="2" stroke-opacity="0.200000" points="415.91,-171.62 420.55,-167.27 414.21,-167.78 415.91,-171.62"/>
</g>
<!-- node_modules/.pnpm -->
<g id="node11" class="node">
<title>node_modules/.pnpm</title>
<g id="a_node11"><a xlink:href="https://www.npmjs.com/package/.pnpm" xlink:title=".pnpm">
<polygon fill="#c40b0a" fill-opacity="0.101961" stroke="black" points="477.62,-525.88 425.6,-525.88 423.62,-523.9 423.62,-508.12 475.65,-508.12 477.62,-510.1 477.62,-525.88"/>
<polyline fill="none" stroke="black" points="475.65,-523.9 423.62,-523.9"/>
<polyline fill="none" stroke="black" points="475.65,-523.9 475.65,-508.12"/>
<polyline fill="none" stroke="black" points="475.65,-523.9 477.62,-525.88"/>
<text text-anchor="start" x="437.88" y="-513.33" font-family="Helvetica,sans-Serif" font-size="9.00" fill="#c40b0a">.pnpm</text>
</a>
</g>
</g>
<!-- ../../SML/apps/web/components/breadcrumbs/use&#45;breadcrumb&#45;items.ts&#45;&gt;node_modules/.pnpm -->
<g id="edge12" class="edge">
<title>../../SML/apps/web/components/breadcrumbs/use&#45;breadcrumb&#45;items.ts&#45;&gt;node_modules/.pnpm</title>
<path fill="none" stroke="#000000" stroke-opacity="0.200000" d="M285.66,-615.79C317.46,-596.63 390.85,-552.41 427.69,-530.22"/>
<polygon fill="#000000" fill-opacity="0.200000" stroke="#000000" stroke-opacity="0.200000" points="428.77,-532.01 432.83,-527.12 426.61,-528.42 428.77,-532.01"/>
</g>
<!-- ../../SML/packages/utils/secure.util.ts -->
<g id="node12" class="node">
<title>../../SML/packages/utils/secure.util.ts</title>
<g id="a_node12"><a xlink:href="../../SML/packages/utils/secure.util.ts" xlink:title="secure.util.ts">
<path fill="#ddfeff" stroke="black" d="M478.21,-617.88C478.21,-617.88 423.04,-617.88 423.04,-617.88 420.08,-617.88 417.12,-614.92 417.12,-611.96 417.12,-611.96 417.12,-606.04 417.12,-606.04 417.12,-603.08 420.08,-600.12 423.04,-600.12 423.04,-600.12 478.21,-600.12 478.21,-600.12 481.17,-600.12 484.12,-603.08 484.12,-606.04 484.12,-606.04 484.12,-611.96 484.12,-611.96 484.12,-614.92 481.17,-617.88 478.21,-617.88"/>
<text text-anchor="start" x="425.12" y="-605.33" font-family="Helvetica,sans-Serif" font-size="9.00">secure.util.ts</text>
</a>
</g>
</g>
<!-- ../../SML/apps/web/components/breadcrumbs/use&#45;breadcrumb&#45;items.ts&#45;&gt;../../SML/packages/utils/secure.util.ts -->
<g id="edge13" class="edge">
<title>../../SML/apps/web/components/breadcrumbs/use&#45;breadcrumb&#45;items.ts&#45;&gt;../../SML/packages/utils/secure.util.ts</title>
<path fill="none" stroke="#000000" stroke-width="2" stroke-opacity="0.200000" d="M328.08,-619.85C354.12,-617.52 384.31,-614.83 408.08,-612.71"/>
<polygon fill="#000000" fill-opacity="0.200000" stroke="#000000" stroke-width="2" stroke-opacity="0.200000" points="408.05,-614.82 413.84,-612.19 407.68,-610.64 408.05,-614.82"/>
</g>
<!-- ../../SML/packages/models/src/SourceType.ts -->
<g id="node13" class="node">
<title>../../SML/packages/models/src/SourceType.ts</title>
<g id="a_node13"><a xlink:href="../../SML/packages/models/src/SourceType.ts" xlink:title="SourceType.ts">
<path fill="#ddfeff" stroke="black" d="M614.58,-771.88C614.58,-771.88 551.92,-771.88 551.92,-771.88 548.96,-771.88 546,-768.92 546,-765.96 546,-765.96 546,-760.04 546,-760.04 546,-757.08 548.96,-754.12 551.92,-754.12 551.92,-754.12 614.58,-754.12 614.58,-754.12 617.54,-754.12 620.5,-757.08 620.5,-760.04 620.5,-760.04 620.5,-765.96 620.5,-765.96 620.5,-768.92 617.54,-771.88 614.58,-771.88"/>
<text text-anchor="start" x="554" y="-759.33" font-family="Helvetica,sans-Serif" font-size="9.00">SourceType.ts</text>
</a>
</g>
</g>
<!-- ../../SML/packages/utils/builders/FolderStructureBuilder.ts&#45;&gt;../../SML/packages/models/src/SourceType.ts -->
<g id="edge18" class="edge">
<title>../../SML/packages/utils/builders/FolderStructureBuilder.ts&#45;&gt;../../SML/packages/models/src/SourceType.ts</title>
<path fill="none" stroke="#000000" stroke-width="2" stroke-opacity="0.200000" d="M458.11,-652.33C470.55,-669.75 499.26,-707.75 530,-733 537.53,-739.19 546.51,-744.85 554.88,-749.54"/>
<polygon fill="#000000" fill-opacity="0.200000" stroke="#000000" stroke-width="2" stroke-opacity="0.200000" points="553.7,-751.3 559.98,-752.3 555.7,-747.6 553.7,-751.3"/>
</g>
<!-- ../../SML/packages/utils/builders/AnyObjectBuilder.ts -->
<g id="node17" class="node">
<title>../../SML/packages/utils/builders/AnyObjectBuilder.ts</title>
<g id="a_node17"><a xlink:href="../../SML/packages/utils/builders/AnyObjectBuilder.ts" xlink:title="AnyObjectBuilder.ts">
<path fill="#ddfeff" stroke="black" d="M625.46,-651.88C625.46,-651.88 541.04,-651.88 541.04,-651.88 538.08,-651.88 535.12,-648.92 535.12,-645.96 535.12,-645.96 535.12,-640.04 535.12,-640.04 535.12,-637.08 538.08,-634.12 541.04,-634.12 541.04,-634.12 625.46,-634.12 625.46,-634.12 628.42,-634.12 631.38,-637.08 631.38,-640.04 631.38,-640.04 631.38,-645.96 631.38,-645.96 631.38,-648.92 628.42,-651.88 625.46,-651.88"/>
<text text-anchor="start" x="543.12" y="-639.33" font-family="Helvetica,sans-Serif" font-size="9.00">AnyObjectBuilder.ts</text>
</a>
</g>
</g>
<!-- ../../SML/packages/utils/builders/FolderStructureBuilder.ts&#45;&gt;../../SML/packages/utils/builders/AnyObjectBuilder.ts -->
<g id="edge17" class="edge">
<title>../../SML/packages/utils/builders/FolderStructureBuilder.ts&#45;&gt;../../SML/packages/utils/builders/AnyObjectBuilder.ts</title>
<path fill="none" stroke="#000000" stroke-width="2" stroke-opacity="0.200000" d="M509.68,-643C515.09,-643 520.57,-643 525.97,-643"/>
<polygon fill="#000000" fill-opacity="0.200000" stroke="#000000" stroke-width="2" stroke-opacity="0.200000" points="525.92,-645.1 531.92,-643 525.92,-640.9 525.92,-645.1"/>
</g>
<!-- ../../SML/packages/utils/path.util.ts -->
<g id="node18" class="node">
<title>../../SML/packages/utils/path.util.ts</title>
<g id="a_node18"><a xlink:href="../../SML/packages/utils/path.util.ts" xlink:title="path.util.ts">
<path fill="#ddfeff" stroke="black" d="M605.96,-703.88C605.96,-703.88 560.54,-703.88 560.54,-703.88 557.58,-703.88 554.62,-700.92 554.62,-697.96 554.62,-697.96 554.62,-692.04 554.62,-692.04 554.62,-689.08 557.58,-686.12 560.54,-686.12 560.54,-686.12 605.96,-686.12 605.96,-686.12 608.92,-686.12 611.88,-689.08 611.88,-692.04 611.88,-692.04 611.88,-697.96 611.88,-697.96 611.88,-700.92 608.92,-703.88 605.96,-703.88"/>
<text text-anchor="start" x="562.62" y="-691.33" font-family="Helvetica,sans-Serif" font-size="9.00">path.util.ts</text>
</a>
</g>
</g>
<!-- ../../SML/packages/utils/builders/FolderStructureBuilder.ts&#45;&gt;../../SML/packages/utils/path.util.ts -->
<g id="edge16" class="edge">
<title>../../SML/packages/utils/builders/FolderStructureBuilder.ts&#45;&gt;../../SML/packages/utils/path.util.ts</title>
<path fill="none" stroke="#000000" stroke-width="2" stroke-opacity="0.200000" d="M468.34,-652.26C483.94,-660.61 508.04,-672.82 530,-681 535.08,-682.89 540.53,-684.64 545.92,-686.22"/>
<polygon fill="#000000" fill-opacity="0.200000" stroke="#000000" stroke-width="2" stroke-opacity="0.200000" points="545.02,-688.15 551.37,-687.74 546.15,-684.11 545.02,-688.15"/>
</g>
<!-- ../../SML/packages/utils/Guard.ts -->
<g id="node14" class="node">
<title>../../SML/packages/utils/Guard.ts</title>
<g id="a_node14"><a xlink:href="../../SML/packages/utils/Guard.ts" xlink:title="Guard.ts">
<path fill="#ddfeff" stroke="black" d="M722.33,-703.88C722.33,-703.88 680.17,-703.88 680.17,-703.88 677.21,-703.88 674.25,-700.92 674.25,-697.96 674.25,-697.96 674.25,-692.04 674.25,-692.04 674.25,-689.08 677.21,-686.12 680.17,-686.12 680.17,-686.12 722.33,-686.12 722.33,-686.12 725.29,-686.12 728.25,-689.08 728.25,-692.04 728.25,-692.04 728.25,-697.96 728.25,-697.96 728.25,-700.92 725.29,-703.88 722.33,-703.88"/>
<text text-anchor="start" x="684" y="-691.33" font-family="Helvetica,sans-Serif" font-size="9.00">Guard.ts</text>
</a>
</g>
</g>
<!-- ../../SML/packages/utils/builders/AbstractObjectBuilder.ts -->
<g id="node15" class="node">
<title>../../SML/packages/utils/builders/AbstractObjectBuilder.ts</title>
<g id="a_node15"><a xlink:href="../../SML/packages/utils/builders/AbstractObjectBuilder.ts" xlink:title="AbstractObjectBuilder.ts">
<path fill="#ddfeff" stroke="black" d="M752.08,-651.88C752.08,-651.88 650.42,-651.88 650.42,-651.88 647.46,-651.88 644.5,-648.92 644.5,-645.96 644.5,-645.96 644.5,-640.04 644.5,-640.04 644.5,-637.08 647.46,-634.12 650.42,-634.12 650.42,-634.12 752.08,-634.12 752.08,-634.12 755.04,-634.12 758,-637.08 758,-640.04 758,-640.04 758,-645.96 758,-645.96 758,-648.92 755.04,-651.88 752.08,-651.88"/>
<text text-anchor="start" x="652.5" y="-639.33" font-family="Helvetica,sans-Serif" font-size="9.00">AbstractObjectBuilder.ts</text>
</a>
</g>
</g>
<!-- ../../SML/packages/utils/clone.util.ts -->
<g id="node16" class="node">
<title>../../SML/packages/utils/clone.util.ts</title>
<g id="a_node16"><a xlink:href="../../SML/packages/utils/clone.util.ts" xlink:title="clone.util.ts">
<path fill="#ddfeff" stroke="black" d="M829.83,-651.88C829.83,-651.88 779.92,-651.88 779.92,-651.88 776.96,-651.88 774,-648.92 774,-645.96 774,-645.96 774,-640.04 774,-640.04 774,-637.08 776.96,-634.12 779.92,-634.12 779.92,-634.12 829.83,-634.12 829.83,-634.12 832.79,-634.12 835.75,-637.08 835.75,-640.04 835.75,-640.04 835.75,-645.96 835.75,-645.96 835.75,-648.92 832.79,-651.88 829.83,-651.88"/>
<text text-anchor="start" x="782" y="-639.33" font-family="Helvetica,sans-Serif" font-size="9.00">clone.util.ts</text>
</a>
</g>
</g>
<!-- ../../SML/packages/utils/builders/AbstractObjectBuilder.ts&#45;&gt;../../SML/packages/utils/clone.util.ts -->
<g id="edge14" class="edge">
<title>../../SML/packages/utils/builders/AbstractObjectBuilder.ts&#45;&gt;../../SML/packages/utils/clone.util.ts</title>
<path fill="none" stroke="#000000" stroke-width="2" stroke-opacity="0.200000" d="M758.41,-643C760.54,-643 762.65,-643 764.74,-643"/>
<polygon fill="#000000" fill-opacity="0.200000" stroke="#000000" stroke-width="2" stroke-opacity="0.200000" points="764.63,-645.1 770.63,-643 764.63,-640.9 764.63,-645.1"/>
</g>
<!-- ../../SML/packages/utils/builders/AnyObjectBuilder.ts&#45;&gt;../../SML/packages/utils/builders/AbstractObjectBuilder.ts -->
<g id="edge15" class="edge">
<title>../../SML/packages/utils/builders/AnyObjectBuilder.ts&#45;&gt;../../SML/packages/utils/builders/AbstractObjectBuilder.ts</title>
<path fill="none" stroke="#000000" stroke-width="2" stroke-opacity="0.200000" d="M631.77,-643C632.93,-643 634.09,-643 635.27,-643"/>
<polygon fill="#000000" fill-opacity="0.200000" stroke="#000000" stroke-width="2" stroke-opacity="0.200000" points="635.26,-645.1 641.26,-643 635.26,-640.9 635.26,-645.1"/>
</g>
<!-- ../../SML/packages/utils/path.util.ts&#45;&gt;../../SML/packages/utils/Guard.ts -->
<g id="edge19" class="edge">
<title>../../SML/packages/utils/path.util.ts&#45;&gt;../../SML/packages/utils/Guard.ts</title>
<path fill="none" stroke="#000000" stroke-width="2" stroke-opacity="0.200000" d="M612.33,-695C628.17,-695 648.11,-695 665,-695"/>
<polygon fill="#000000" fill-opacity="0.200000" stroke="#000000" stroke-width="2" stroke-opacity="0.200000" points="664.99,-697.1 670.99,-695 664.99,-692.9 664.99,-697.1"/>
</g>
</g>
</svg>
